<svg xmlns="http://www.w3.org/2000/svg" xmlns:xlink="http://www.w3.org/1999/xlink" width="64" height="64" viewBox="0 0 64 64">
    <defs>
        <linearGradient id="b" x1="50%" x2="50%" y1="0%" y2="100%">
            <stop offset="0%" stop-color="#4668CB" stop-opacity=".8"/>
            <stop offset="100%" stop-color="#4668CB"/>
        </linearGradient>
        <path id="a" d="M-1 0h1441v4855H-1z"/>
        <circle id="c" cx="32" cy="32" r="32"/>
        <path id="e" d="M23.467 0H32c12.96 0 23.467 10.506 23.467 23.467H0C0 10.507 10.506 0 23.467 0z"/>
        <rect id="g" width="42.667" height="38.4" rx="7"/>
    </defs>
    <g fill="none" fill-rule="evenodd">
        <g transform="translate(-944 -616)">
            <use fill="#FFF" xlink:href="#a"/>
            <use fill="url(#b)" xlink:href="#a"/>
        </g>
        <path fill="#FFD87C" d="M-19.35 7.65A7.999 7.999 0 0 0-27.003 2h-215.994A7.996 7.996 0 0 0-251 9.999V54A7.995 7.995 0 0 0-242.997 62h215.994A7.996 7.996 0 0 0-19 54.001V14l3-3-3.35-3.35z"/>
        <text fill="#4668CB" font-family="NotoSansCJKtc-Regular, Noto Sans CJK TC" font-size="18" letter-spacing="2" transform="translate(-251 2)">
            <tspan x="16" y="39">我想要存小孩教育費！</tspan>
        </text>
        <g>
            <mask id="d" fill="#fff">
                <use xlink:href="#c"/>
            </mask>
            <use fill="#91E3E1" xlink:href="#c"/>
            <g mask="url(#d)">
                <g transform="translate(4.267 44.8)">
                    <mask id="f" fill="#fff">
                        <use xlink:href="#e"/>
                    </mask>
                    <use fill="#FFF" xlink:href="#e"/>
                    <path fill="#9B9B9B" fill-opacity=".3" d="M10.667-12.8H44.8v6.4c0 9.426-7.641 17.067-17.067 17.067-9.425 0-17.066-7.641-17.066-17.067v-6.4z" mask="url(#f)"/>
                </g>
            </g>
            <circle cx="51.2" cy="27.733" r="6.4" fill="#FFF" mask="url(#d)"/>
            <circle cx="12.8" cy="27.733" r="6.4" fill="#FFF" mask="url(#d)"/>
            <g mask="url(#d)">
                <g transform="translate(10.667 8.533)">
                    <mask id="h" fill="#fff">
                        <use xlink:href="#g"/>
                    </mask>
                    <use fill="#FFF" xlink:href="#g"/>
                    <rect width="34.133" height="25.6" x="4.267" y="6.4" fill="#8F93B2" mask="url(#h)" rx="3"/>
                </g>
            </g>
            <path stroke="#595E7F" stroke-linecap="round" d="M27.733 34.133c.428 1.844 1.85 2.766 4.267 2.766 2.416 0 3.839-.922 4.267-2.766" mask="url(#d)"/>
            <rect width="4.267" height="6.4" x="25.6" y="23.467" fill="#595E7F" mask="url(#d)" rx="2.133"/>
            <rect width="4.267" height="6.4" x="34.133" y="23.467" fill="#595E7F" mask="url(#d)" rx="2.133"/>
        </g>
    </g>
</svg>
