<svg xmlns="http://www.w3.org/2000/svg" xmlns:xlink="http://www.w3.org/1999/xlink" width="64" height="64" viewBox="0 0 64 64">
    <defs>
        <circle id="a" cx="32" cy="32" r="32"/>
        <path id="c" d="M23.467 0H32c12.96 0 23.467 10.506 23.467 23.467H0C0 10.507 10.506 0 23.467 0z"/>
        <rect id="e" width="42.667" height="38.4" rx="7"/>
    </defs>
    <g fill="none" fill-rule="evenodd">
        <mask id="b" fill="#fff">
            <use xlink:href="#a"/>
        </mask>
        <use fill="#91E3E1" xlink:href="#a"/>
        <g mask="url(#b)">
            <g transform="translate(4.267 44.8)">
                <mask id="d" fill="#fff">
                    <use xlink:href="#c"/>
                </mask>
                <use fill="#FFF" xlink:href="#c"/>
                <path fill="#9B9B9B" fill-opacity=".3" d="M10.667-12.8H44.8v6.4c0 9.426-7.641 17.067-17.067 17.067-9.425 0-17.066-7.641-17.066-17.067v-6.4z" mask="url(#d)"/>
            </g>
        </g>
        <circle cx="51.2" cy="27.733" r="6.4" fill="#FFF" mask="url(#b)"/>
        <circle cx="12.8" cy="27.733" r="6.4" fill="#FFF" mask="url(#b)"/>
        <g mask="url(#b)">
            <g transform="translate(10.667 8.533)">
                <mask id="f" fill="#fff">
                    <use xlink:href="#e"/>
                </mask>
                <use fill="#FFF" xlink:href="#e"/>
                <rect width="34.133" height="25.6" x="4.267" y="6.4" fill="#8F93B2" mask="url(#f)" rx="3"/>
            </g>
        </g>
        <path stroke="#595E7F" stroke-linecap="round" d="M27.733 34.133c.428 1.844 1.85 2.766 4.267 2.766 2.416 0 3.839-.922 4.267-2.766" mask="url(#b)"/>
        <rect width="4.267" height="6.4" x="25.6" y="23.467" fill="#595E7F" mask="url(#b)" rx="2.133"/>
        <rect width="4.267" height="6.4" x="34.133" y="23.467" fill="#595E7F" mask="url(#b)" rx="2.133"/>
    </g>
</svg>
