<svg width="104" height="107" xmlns="http://www.w3.org/2000/svg">
    <g stroke-width="2.75" fill="none" fill-rule="evenodd">
        <path stroke="#15BD7A" d="m54.03 44.084 16.513-10.252L101 51.081l-15.507 9.731M67.337 72.21l-15.322 9.609-30.952-17.264L37.33 54.457"/>
        <path stroke="#15BD7A" d="m67.368 79.588-15.353 9.64L21.063 71.95M101 58.475l-15.368 9.64"/>
        <path stroke="#15BD7A" d="m67.368 87.319-15.353 9.64-30.952-17.28M101 66.206l-15.368 9.64"/>
        <path stroke="#15BD7A" d="m67.368 95.049-15.353 9.625L21.063 87.41M101 73.936l-15.368 9.64"/>
        <path stroke="#99EAAD" d="M40.614 52.501 71.1 69.46v22.932l10.457-6.677.077-22.228L50.87 46.039zM81.635 63.486l-5.964 3.636"/>
        <path stroke="#15BD7A" d="M35.672 12.108 52.48 1.674l30.457 17.248-15.507 9.731M49.273 40.05l-15.32 9.625L3 32.396l16.235-10.083M29.01 54.289 3 39.806M82.937 26.332l-8.149 5.133M22.194 58.353 3 47.52M82.937 34.062l-2.851 1.787M16.927 62.92 3 55.253"/>
        <path stroke="#99EAAD" d="m63.557 34.994.015-3.652L32.806 13.88 22.55 20.358 53.038 37.3v4.248M63.572 31.343l-5.964 3.62"/>
    </g>
</svg>
