<svg width="583" height="347" xmlns="http://www.w3.org/2000/svg">
    <g opacity=".3">
        <g opacity=".5" fill="#99EAAD" fill-rule="evenodd">
            <path d="M577.127 78.093h.939V0h-.939zM548.396 130.401h.937V.737h-.937zM519.662 124.507h.939v-76.62h-.939zM491.666 139.242h.94V3.684h-.94zM462.198 145.136h.937V29.469h-.937zM434.202 182.71h.938V23.574h-.938zM405.47 151.766h.938v-44.203h-.939zM377.473 198.18h.939V66.306h-.939zM348.003 207.758h.94V73.673h-.94zM320.008 204.811h.939v-98.722h-.939zM292.013 162.08h.938V93.566h-.938zM262.543 213.652h.94V71.462h-.94zM233.811 188.603h.939v-39.047h-.939zM205.078 201.127h.94v-49.36h-.94zM177.083 321.951h.938V88.408h-.938zM148.35 263.75h.939v-66.306h-.939zM119.617 277.01h.94V214.39h-.94zM91.621 301.323h.94v-110.51h-.94zM62.89 304.27h.937V209.23h-.937zM34.156 347h.94V240.174h-.94zM5.425 342.58h.937v-89.881h-.937z"/>
            <path d="M570.966 50.834h11.788V26.522h-11.788zM542.97 83.987h11.788V44.941H542.97zM514.238 99.459h11.787V75.883h-11.787zM486.242 91.355h11.788V50.098h-11.788zM457.51 104.616h11.787V69.989H457.51zM428.777 127.454h11.788V78.83h-11.788zM400.781 135.558h11.788v-13.26h-11.788zM372.049 152.503h11.788V112.72h-11.788zM342.58 161.344h11.787v-41.257H342.58zM314.584 172.395h11.788v-30.206h-11.788zM285.851 138.505h11.788v-20.628h-11.788zM257.856 164.29h11.787v-43.466h-11.787zM228.386 174.605h11.788v-12.524h-11.788zM200.39 183.446h11.788V168.71h-11.787zM172.395 240.174h11.788v-70.726h-11.788zM142.926 240.91h11.787v-19.89h-11.787zM114.193 254.909h11.788v-19.155h-11.788zM85.46 263.013h11.788v-33.89H85.461zM57.465 272.59h11.788v-29.469H57.465zM27.996 318.268h11.787v-37.574H27.996zM0 310.9h11.788v-27.259H0z"/>
        </g>
    </g>
</svg>
