<svg xmlns="http://www.w3.org/2000/svg" width="230" height="230" viewBox="0 0 230 230">
    <g fill="none" fill-rule="evenodd">
        <path fill="#316FC9" d="M72.222 53.333h109.445a5 5 0 0 1 5 5v69.79a5 5 0 0 1-5 5H72.222a5 5 0 0 1-5-5v-69.79a5 5 0 0 1 5-5z"/>
        <path fill="#FFF" d="M48.333 83.255h109.445a5 5 0 0 1 5 5v69.79a5 5 0 0 1-5 5H48.333a5 5 0 0 1-5-5v-69.79a5 5 0 0 1 5-5z"/>
        <path fill="#C0C0C0" d="M63.24 99.213h79.63v5.984H63.24v-5.984zm0 11.968h39.816v5.984H63.24v-5.984zm0 11.969h59.723v5.984H63.241v-5.984z"/>
        <path fill="#FFF" d="M66.915 162.047h27.238l-35.89 17.777z"/>
        <g>
            <path fill="#01B1B1" d="M26.667 26.667c11.045 0 20 8.954 20 20 0 11.045-8.955 20-20 20-11.046 0-20-8.955-20-20 0-11.046 8.954-20 20-20z"/>
            <path fill="#FFF" d="M28.01 55.227h-2.04V39.675h-2.855l1.248-2.016h3.648z"/>
        </g>
    </g>
</svg>
