<svg xmlns="http://www.w3.org/2000/svg" width="230" height="230" viewBox="0 0 230 230">
    <g fill="none" fill-rule="evenodd">
        <path fill="#224D8D" d="M193.333 78h-77V50h63c7.732 0 14 6.268 14 14v14z"/>
        <path fill="#FFF" d="M71.333 78h93.982c-.97-18.667 3.369-28 13.018-28h-101a6 6 0 0 0-6 6v22z"/>
        <path fill="#FFF" d="M72.333 50h93v116c0 7.732-6.268 14-14 14h-87a8 8 0 0 1-8-8V66c0-8.837 7.164-16 16-16z"/>
        <path fill="#316FC9" d="M43.333 152h96.977c-1.283 18.667 3.194 28 13.433 28h-94.41c-8.836 0-16-7.163-16-16v-12z"/>
        <path fill="#C0C0C0" d="M77.505 81.657l9.9-9.9a2 2 0 1 1 2.828 2.829l-9.9 9.9-2.828 2.828-7.071-7.071a2 2 0 1 1 2.828-2.829l4.243 4.243zM78.485 111.97l9.9-9.899a2 2 0 1 1 2.828 2.828l-9.9 9.9-2.828 2.828-7.07-7.07a2 2 0 1 1 2.828-2.83l4.242 4.244zM102.333 70h50v6h-50v-6zm0 11h30v6h-30v-6zm0 19h50v6h-50v-6zm0 11h30v6h-30v-6zm0 19h50v6h-50v-6zm0 11h30v6h-30v-6z"/>
        <g transform="translate(6.667 26.667)">
            <rect width="40" height="40" fill="#01B1B1" rx="20"/>
            <path fill="#FFF" d="M25.952 28.56H13.688l6.84-7.392c1.152-1.216 1.968-2.176 2.448-2.88.48-.704.72-1.504.72-2.4 0-.896-.348-1.68-1.044-2.352-.696-.672-1.56-1.008-2.592-1.008s-1.892.364-2.58 1.092c-.688.728-1.08 1.764-1.176 3.108h-1.992c.08-1.888.68-3.388 1.8-4.5s2.476-1.668 4.068-1.668c1.592 0 2.912.516 3.96 1.548s1.572 2.292 1.572 3.78a5.749 5.749 0 0 1-.864 3.048c-.576.944-1.448 2.04-2.616 3.288L18.2 26.568h7.752v1.992z"/>
        </g>
    </g>
</svg>
