<svg xmlns="http://www.w3.org/2000/svg" width="230" height="230" viewBox="0 0 230 230">
    <g fill="none" fill-rule="evenodd">
        <g transform="translate(70 36.667)">
            <path fill="#316FC9" d="M12.029 0h71.304c5.523 0 10 4.477 10 10v133.333c0 5.523-4.477 10-10 10H12.03c-5.523 0-10-4.477-10-10V10c0-5.523 4.477-10 10-10z"/>
            <path fill="#316FC9" d="M.3 19.913h4.772v15.931H.3a.3.3 0 0 1-.3-.3v-15.33a.3.3 0 0 1 .3-.3zM.3 39.827h4.772v15.93H.3a.3.3 0 0 1-.3-.3v-15.33a.3.3 0 0 1 .3-.3z"/>
            <path fill="#FFF" d="M6.087 11.948h83.188v125.455H6.087z"/>
            <path fill="#C0C0C0" d="M14.203 41.818h66.956v5.974H14.203v-5.974zm0-21.905h36.522v5.974H14.203v-5.974zm0 31.862h48.696v5.974H14.203v-5.974zm0 9.957h58.84v5.974h-58.84v-5.974z"/>
            <rect width="54.783" height="11.948" x="20.29" y="117.489" fill="#2AD3B8" rx="5.974"/>
            <path fill="#224D8D" d="M47.587 140.39h.188a4.978 4.978 0 0 1 0 9.956h-.188a4.978 4.978 0 1 1 0-9.956zM39.528 3.983h16.307a1.991 1.991 0 0 1 0 3.982H39.528a1.991 1.991 0 0 1 0-3.982zm-8.116 0h.075a1.991 1.991 0 0 1 0 3.982h-.075a1.991 1.991 0 0 1 0-3.982z"/>
        </g>
        <g transform="translate(6.667 26.667)">
            <rect width="40" height="40" fill="#01B1B1" rx="20"/>
            <path fill="#FFF" d="M22.928 18.672c.944.464 1.676 1.104 2.196 1.92.52.816.78 1.704.78 2.664 0 1.568-.572 2.916-1.716 4.044-1.144 1.128-2.588 1.692-4.332 1.692-1.568 0-2.852-.452-3.852-1.356-1-.904-1.676-2.244-2.028-4.02h2.04c.304 1.136.756 1.98 1.356 2.532.6.552 1.456.828 2.568.828s2.044-.348 2.796-1.044c.752-.696 1.128-1.572 1.128-2.628s-.428-1.896-1.284-2.52c-.856-.624-2.116-.952-3.78-.984v-1.92c1.2 0 2.168-.256 2.904-.768.736-.512 1.104-1.148 1.104-1.908s-.284-1.392-.852-1.896c-.568-.504-1.256-.756-2.064-.756s-1.464.228-1.968.684c-.504.456-.932 1.148-1.284 2.076h-2.088c.352-1.536.992-2.712 1.92-3.528.928-.816 2.072-1.224 3.432-1.224 1.36 0 2.54.448 3.54 1.344 1 .896 1.5 1.984 1.5 3.264 0 1.472-.672 2.64-2.016 3.504z"/>
        </g>
    </g>
</svg>
