<svg xmlns="http://www.w3.org/2000/svg" width="230" height="230" viewBox="0 0 230 230">
    <g fill="none" fill-rule="evenodd">
        <path fill="#0F549D" d="M56.667 164.21h120V86.475a.6.6 0 0 0-.6-.6h-118.8a.6.6 0 0 0-.6.6v77.733z"/>
        <path fill="#FFF" d="M62.267 47.714h108.8a.6.6 0 0 1 .6.6v129.955h-110V48.314a.6.6 0 0 1 .6-.6z"/>
        <path fill="#C0C0C0" d="M71.667 130.064h90v6.026h-90v-6.026zm0 10.043h50v6.025h-50v-6.025zm0 10.043h70v6.025h-70v-6.025z"/>
        <path fill="#316FC9" d="M97.074 109.18l-6.129-5.142-15.493 18.464-3.064-2.571L90.463 98.39l3.064 2.57 6.129 5.143 19.366-23.08 3.064 2.572 6.128 5.142L152.1 62.272l-3.064-2.57 12.343-5.376-3.15 13.089-3.065-2.572-26.467 31.542-3.064-2.57-6.128-5.143-19.366 23.08-3.064-2.572zM56.667 131.068l60 35.15 60-35.15v60.265a2 2 0 0 1-2 2h-116a2 2 0 0 1-2-2v-60.265z"/>
        <g transform="translate(6.667 26.667)">
            <rect width="40" height="40" fill="#01B1B1" rx="20"/>
            <path fill="#FFF" d="M26.168 24.552H24.08v4.008h-2.04v-4.008h-8.424L23.48 10.56h.6v12h2.088v1.992zM22.04 22.56v-6.48l-4.584 6.48h4.584z"/>
        </g>
    </g>
</svg>
