<?xml version="1.0" encoding="utf-8"?>
<!-- Generator: Adobe Illustrator 22.1.0, SVG Export Plug-In . SVG Version: 6.00 Build 0)  -->
<svg version="1.1" id="圖層_1" xmlns="http://www.w3.org/2000/svg" xmlns:xlink="http://www.w3.org/1999/xlink" x="0px" y="0px"
	 viewBox="0 0 250 68" style="enable-background:new 0 0 250 68;" xml:space="preserve">
<style type="text/css">
	.st0{filter:url(#a);}
	.st1{fill:none;stroke:#49FFFB;}
	.st2{opacity:0.6;fill:none;stroke:#49FFFB;enable-background:new    ;}
	.st3{opacity:0.3;fill:none;stroke:#49FFFB;enable-background:new    ;}
	.st4{opacity:0.1;fill:none;stroke:#49FFFB;enable-background:new    ;}
	.st5{fill:#C5C5C5;}
	.st6{fill:#E1E1E1;}
	.st7{fill:#E82087;}
	.st8{fill:#4668CB;}
</style>
<filter  filterUnits="objectBoundingBox" height="129.4%" id="a" width="108%" x="-4%" y="-11.8%">
	<feOffset  dy="2" in="SourceAlpha" result="shadowOffsetOuter1"></feOffset>
	<feGaussianBlur  in="shadowOffsetOuter1" result="shadowBlurOuter1" stdDeviation="3"></feGaussianBlur>
	<feColorMatrix  in="shadowBlurOuter1" result="shadowMatrixOuter1" values="0 0 0 0 0 0 0 0 0 0 0 0 0 0 0 0 0 0 0.3 0">
		</feColorMatrix>
	<feMerge>
		<feMergeNode  in="shadowMatrixOuter1"></feMergeNode>
		<feMergeNode  in="SourceGraphic"></feMergeNode>
	</feMerge>
</filter>
<g class="st0">
	<path class="st1" d="M17,9.5c-4.1,0-7.5,3.4-7.5,7.5v34c0,4.1,3.4,7.5,7.5,7.5l0,0h216c4.1,0,7.5-3.4,7.5-7.5l0,0V17
		c0-4.1-3.4-7.5-7.5-7.5H17z"/>
	<path class="st2" d="M17,6.5C11.2,6.5,6.5,11.2,6.5,17v34c0,5.8,4.7,10.5,10.5,10.5h216c5.8,0,10.5-4.7,10.5-10.5V17
		c0-5.8-4.7-10.5-10.5-10.5H17z"/>
	<path class="st3" d="M17,3.5C9.5,3.5,3.5,9.5,3.5,17v34c0,7.5,6,13.5,13.5,13.5h216c7.5,0,13.5-6,13.5-13.5V17
		c0-7.5-6-13.5-13.5-13.5H17z"/>
	<path class="st4" d="M17,0.5C7.9,0.5,0.5,7.9,0.5,17v34c0,9.1,7.4,16.5,16.5,16.5h216c9.1,0,16.5-7.4,16.5-16.5V17
		c0-9.1-7.4-16.5-16.5-16.5H17z"/>
	<path class="st5" d="M210.1,42.7l-1.3,0.4l1.8,5.1l1.3-0.4L210.1,42.7z M201.4,42.3l-1.2-0.5l-2.1,5l1.2,0.5L201.4,42.3z
		 M193.4,22.3l1.1-0.8l6.9,10.1l-1.1,0.8L193.4,22.3z"/>
	<path class="st6" d="M216.9,26.1l-16.6-3.5l-4.1,19.1l16.6,3.5L216.9,26.1z"/>
	<path class="st5" d="M216.9,26.1l-3.5-0.7l-4.1,19.1l3.5,0.7L216.9,26.1z"/>
	<path class="st7" d="M204.6,28.7l-1.2,1.9l1.5,0.3L204.6,28.7z"/>
	<path class="st6" d="M213.6,36.4l-0.8,1.1l4.7,3.4l0.8-1.1L213.6,36.4z"/>
	<g>
		<path class="st8" d="M202.4,29.5l0.6-0.3l-0.8-1.7l-1.5,1.1l0.4,0.5l0.9-0.7L202.4,29.5z M207.4,29.7l0.4,0.9l0.6-0.3l-0.8-1.7
			l-1.5,1.1l0.4,0.5L207.4,29.7z"/>
	</g>
</g>
</svg>
