<svg xmlns="http://www.w3.org/2000/svg" xmlns:xlink="http://www.w3.org/1999/xlink" width="72" height="72" viewBox="0 0 72 72">
    <defs>
        <circle id="a" cx="36" cy="36" r="36"/>
    </defs>
    <g fill="none" fill-rule="evenodd">
        <mask id="b" fill="#fff">
            <use xlink:href="#a"/>
        </mask>
        <use fill="#279FBC" opacity=".9" xlink:href="#a"/>
        <path fill="#000" d="M52 34.17v-2.608C52 27.386 55.283 24 59.333 24h1.334C64.717 24 68 27.386 68 31.563v2.608a3.001 3.001 0 0 1-.132 5.701c-.432 2.319-1.89 4.26-3.868 5.303V47h1.474C69.63 47 73 50.42 73 54.639V72H47V54.639C47 50.42 50.37 47 54.526 47H56v-1.825c-1.978-1.042-3.436-2.984-3.868-5.303A3.001 3.001 0 0 1 52 34.171zM4 34.17v-2.608C4 27.386 7.283 24 11.333 24h1.334C16.717 24 20 27.386 20 31.563v2.608a3.001 3.001 0 0 1-.132 5.701c-.432 2.319-1.89 4.26-3.868 5.303V47h1.474C21.63 47 25 50.42 25 54.639V72H-1V54.639C-1 50.42 2.37 47 6.526 47H8v-1.825c-1.978-1.042-3.436-2.984-3.868-5.303A3.001 3.001 0 0 1 4 34.171z" mask="url(#b)" opacity=".123"/>
        <g mask="url(#b)">
            <g transform="translate(16 8)">
                <path fill="#FFF" d="M14 25h12v14H14z"/>
                <path fill="#FFF" d="M12 34h16c6.075 0 11 4.925 11 11v25H1V45c0-6.075 4.925-11 11-11z"/>
                <rect width="24" height="32" x="8" fill="#FFF" rx="11"/>
                <path fill="#279FBC" fill-rule="nonzero" d="M15.028 23.234a1 1 0 1 1 1.944-.468C17.253 23.934 18.16 24.5 20 24.5c1.84 0 2.747-.566 3.028-1.734a1 1 0 1 1 1.944.468C24.451 25.399 22.69 26.5 20 26.5c-2.69 0-4.45-1.1-4.972-3.266z"/>
                <circle cx="31" cy="17" r="4" fill="#FFF"/>
                <circle cx="9" cy="17" r="4" fill="#FFF"/>
                <path fill="#279FBC" d="M21.047 40.673l1.845 12.975a1 1 0 0 1-.194.747l-1.951 2.561a1 1 0 0 1-1.591 0l-1.951-2.56a1 1 0 0 1-.195-.748l1.845-12.975A1.998 1.998 0 0 1 17.951 39v-2h4v2c0 .7-.36 1.316-.904 1.673z"/>
                <g transform="translate(10 10)">
                    <rect width="7" height="7" x="12" y="1" fill="#FFF" stroke="#279FBC" stroke-width="2" rx="3.5"/>
                    <rect width="7" height="7" x="1" y="1" fill="#FFF" stroke="#279FBC" stroke-width="2" rx="3.5"/>
                    <path fill="#279FBC" d="M8 4h4v2H8z"/>
                </g>
            </g>
        </g>
    </g>
</svg>
