<svg xmlns="http://www.w3.org/2000/svg" xmlns:xlink="http://www.w3.org/1999/xlink" width="72" height="72" viewBox="0 0 72 72">
    <defs>
        <circle id="a" cx="36" cy="36" r="36"/>
    </defs>
    <g fill="none" fill-rule="evenodd" transform="translate(0 3)">
        <mask id="b" fill="#fff">
            <use xlink:href="#a"/>
        </mask>
        <use fill="#279FBC" opacity=".9" xlink:href="#a"/>
        <path fill="#FFF" d="M10 4h19a1 1 0 0 1 0 2H10a1 1 0 1 1 0-2zm23 0h2a1 1 0 0 1 0 2h-2a1 1 0 0 1 0-2zm6 0h12a1 1 0 0 1 0 2H39a1 1 0 0 1 0-2zM6 22h1a1 1 0 0 1 0 2H6a1 1 0 0 1 0-2zm56 0a1 1 0 1 1 0 2 1 1 0 0 1 0-2zm-8 0h5a1 1 0 0 1 0 2h-5a1 1 0 0 1 0-2zm-44 0h9a1 1 0 0 1 0 2h-9a1 1 0 0 1 0-2zm58 0h8a1 1 0 0 1 0 2h-8a1 1 0 0 1 0-2z" mask="url(#b)" opacity=".6"/>
        <path fill="#FFF" d="M10 8h9a1 1 0 0 1 0 2h-9a1 1 0 1 1 0-2zm46 0h19a1 1 0 0 1 0 2H56a1 1 0 0 1 0-2zM31 8h8a1 1 0 0 1 0 2h-8a1 1 0 0 1 0-2zm-5 0h1a1 1 0 0 1 0 2h-1a1 1 0 0 1 0-2zm20 0h3a1 1 0 0 1 0 2h-3a1 1 0 0 1 0-2z" mask="url(#b)" opacity=".404"/>
        <path fill="#FFF" d="M-2 35h9a1 1 0 0 1 0 2h-9a1 1 0 0 1 0-2zm57 0h12a1 1 0 0 1 0 2H55a1 1 0 0 1 0-2zm18 0h3a1 1 0 0 1 0 2h-3a1 1 0 0 1 0-2zm-53 0h8a1 1 0 0 1 0 2h-8a1 1 0 0 1 0-2zm-8 0h1a1 1 0 0 1 0 2h-1a1 1 0 0 1 0-2zm23 0h3a1 1 0 0 1 0 2h-3a1 1 0 0 1 0-2z" mask="url(#b)" opacity=".403" transform="matrix(-1 0 0 1 74 0)"/>
        <path fill="#CAD3F0" d="M-7 27H6a1 1 0 0 1 0 2H-7a1 1 0 0 1 0-2zm66 0h9a1 1 0 0 1 0 2h-9a1 1 0 0 1 0-2zm-45 0h8a1 1 0 0 1 0 2h-8a1 1 0 0 1 0-2zm-5 0a1 1 0 1 1 0 2 1 1 0 0 1 0-2zm20 0h3a1 1 0 0 1 0 2h-3a1 1 0 0 1 0-2z" mask="url(#b)" opacity=".599"/>
        <path fill="#FFF" d="M-5 60H8a1 1 0 0 1 0 2H-5a1 1 0 0 1 0-2zm66 0h9a1 1 0 0 1 0 2h-9a1 1 0 0 1 0-2zm-47 0h8a1 1 0 0 1 0 2h-8a1 1 0 0 1 0-2zm-4 0h1a1 1 0 0 1 0 2h-1a1 1 0 0 1 0-2z" mask="url(#b)" opacity=".4"/>
        <path fill="#FFF" d="M7 52a1 1 0 1 1 0 2 1 1 0 0 1 0-2zm51 0h9a1 1 0 0 1 0 2h-9a1 1 0 0 1 0-2zm-48 0h8a1 1 0 0 1 0 2h-8a1 1 0 0 1 0-2zm-7 0h1a1 1 0 0 1 0 2H3a1 1 0 0 1 0-2zm35 0h3a1 1 0 0 1 0 2h-3a1 1 0 0 1 0-2z" mask="url(#b)" opacity=".202" transform="matrix(-1 0 0 1 70 0)"/>
        <path fill="#FFF" d="M-3 48H8a1 1 0 0 1 0 2H-3a1 1 0 0 1 0-2zm66 0h9a1 1 0 0 1 0 2h-9a1 1 0 0 1 0-2zm-52 0h8a1 1 0 0 1 0 2h-8a1 1 0 0 1 0-2zm49 0a1 1 0 1 1 0 2 1 1 0 0 1 0-2zm-6 0h3a1 1 0 0 1 0 2h-3a1 1 0 0 1 0-2z" mask="url(#b)" opacity=".405" transform="matrix(-1 0 0 1 69 0)"/>
        <path fill="#FFF" d="M4 15h13a1 1 0 0 1 0 2H4a1 1 0 0 1 0-2zm60 0h5a1 1 0 0 1 0 2h-5a1 1 0 0 1 0-2zm-7 0h3a1 1 0 0 1 0 2h-3a1 1 0 0 1 0-2zm-3 0a1 1 0 1 1 0 2 1 1 0 0 1 0-2zm-34 0h4a1 1 0 0 1 0 2h-4a1 1 0 0 1 0-2z" mask="url(#b)" opacity=".405" transform="matrix(-1 0 0 1 73 0)"/>
        <path fill="#FFF" d="M-3 40h13a1 1 0 0 1 0 2H-3a1 1 0 0 1 0-2zm67 0h5a1 1 0 0 1 0 2h-5a1 1 0 0 1 0-2zm-6 0h3a1 1 0 0 1 0 2h-3a1 1 0 0 1 0-2zm-4 0a1 1 0 1 1 0 2 1 1 0 0 1 0-2zm-29 0h23a1 1 0 0 1 0 2H25a1 1 0 0 1 0-2zm-12 0h4a1 1 0 0 1 0 2h-4a1 1 0 0 1 0-2z" mask="url(#b)" opacity=".405"/>
        <g mask="url(#b)">
            <path fill="#FFF" d="M43 38v3h4c6.075 0 11 4.925 11 11v25H14V52c0-6.075 4.925-11 11-11h4v-3h-7a1 1 0 0 1-1-1v-7h-3a1 1 0 0 1-1-1v-8a1 1 0 0 1 1-1h3v-7a1 1 0 0 1 1-1h28a1 1 0 0 1 1 1v6.8h3.387a1 1 0 0 1 1 1v8a1 1 0 0 1-1 1H51V37a1 1 0 0 1-1 1h-7z"/>
            <path fill="#01B1B1" d="M33 47h2v8h-2v-8zm-4 2h2v4h-2v-4zm8-3h2v10h-2V46zm4 2h2v6h-2v-6zM29 20a4 4 0 1 1 0 8 4 4 0 0 1 0-8zm14 0a4 4 0 1 1 0 8 4 4 0 0 1 0-8z"/>
        </g>
    </g>
</svg>
