<svg xmlns="http://www.w3.org/2000/svg" xmlns:xlink="http://www.w3.org/1999/xlink" width="72" height="72" viewBox="0 0 72 72">
    <defs>
        <circle id="a" cx="36" cy="36" r="36"/>
    </defs>
    <g fill="none" fill-rule="evenodd">
        <mask id="b" fill="#fff">
            <use xlink:href="#a"/>
        </mask>
        <use fill="#90A4E0" xlink:href="#a"/>
        <g fill="#CAD3F0" mask="url(#b)">
            <g transform="translate(9 4)">
                <rect width="21" height="2" rx="1"/>
                <rect width="4" height="2" x="23" rx="1"/>
                <rect width="14" height="2" x="29" rx="1"/>
            </g>
        </g>
        <g fill="#CAD3F0" mask="url(#b)" opacity=".5">
            <g transform="translate(5 22)">
                <rect width="3" height="2" rx="1"/>
                <rect width="2" height="2" x="56" rx="1"/>
                <rect width="7" height="2" x="48" rx="1"/>
                <rect width="11" height="2" x="4" rx="1"/>
                <rect width="10" height="2" x="62" rx="1"/>
            </g>
        </g>
        <g fill="#CAD3F0" mask="url(#b)" opacity=".2">
            <g transform="translate(9 8)">
                <rect width="11" height="2" rx="1"/>
                <rect width="21" height="2" x="46" rx="1"/>
                <rect width="10" height="2" x="21" rx="1"/>
                <rect width="3" height="2" x="16" rx="1"/>
                <rect width="5" height="2" x="36" rx="1"/>
            </g>
        </g>
        <g fill="#CAD3F0" mask="url(#b)">
            <g transform="matrix(-1 0 0 1 77 35)">
                <rect width="11" height="2" rx="1"/>
                <rect width="14" height="2" x="57" rx="1"/>
                <rect width="5" height="2" x="75" rx="1"/>
                <rect width="10" height="2" x="22" rx="1"/>
                <rect width="3" height="2" x="14" rx="1"/>
                <rect width="5" height="2" x="37" rx="1"/>
            </g>
        </g>
        <g fill="#CAD3F0" mask="url(#b)">
            <g transform="translate(-8 27)">
                <rect width="15" height="2" rx="1"/>
                <rect width="11" height="2" x="66" rx="1"/>
                <rect width="10" height="2" x="21" rx="1"/>
                <rect width="2" height="2" x="16" rx="1"/>
                <rect width="5" height="2" x="36" rx="1"/>
            </g>
        </g>
        <g fill="#CAD3F0" mask="url(#b)">
            <g transform="translate(-6 60)">
                <rect width="15" height="2" rx="1"/>
                <rect width="11" height="2" x="66" rx="1"/>
                <rect width="10" height="2" x="19" rx="1"/>
                <rect width="3" height="2" x="15" rx="1"/>
            </g>
        </g>
        <g fill="#CAD3F0" mask="url(#b)">
            <g transform="matrix(-1 0 0 1 68 52)">
                <rect width="2" height="2" x="4" rx="1"/>
                <rect width="11" height="2" x="55" rx="1"/>
                <rect width="10" height="2" x="7" rx="1"/>
                <rect width="3" height="2" rx="1"/>
                <rect width="5" height="2" x="35" rx="1"/>
            </g>
        </g>
        <g fill="#CAD3F0" mask="url(#b)" opacity=".202">
            <g transform="matrix(-1 0 0 1 73 48)">
                <rect width="13" height="2" rx="1"/>
                <rect width="11" height="2" x="66" rx="1"/>
                <rect width="10" height="2" x="14" rx="1"/>
                <rect width="2" height="2" x="63" rx="1"/>
                <rect width="5" height="2" x="57" rx="1"/>
            </g>
        </g>
        <g fill="#CAD3F0" mask="url(#b)">
            <g transform="matrix(-1 0 0 1 70 15)">
                <rect width="15" height="2" rx="1"/>
                <rect width="7" height="2" x="60" rx="1"/>
                <rect width="5" height="2" x="53" rx="1"/>
                <rect width="2" height="2" x="50" rx="1"/>
                <rect width="6" height="2" x="16" rx="1"/>
            </g>
        </g>
        <g fill="#CAD3F0" mask="url(#b)" opacity=".496">
            <g transform="translate(-4 40)">
                <rect width="15" height="2" rx="1"/>
                <rect width="7" height="2" x="67" rx="1"/>
                <rect width="5" height="2" x="61" rx="1"/>
                <rect width="2" height="2" x="57" rx="1"/>
                <rect width="25" height="2" x="28" rx="1"/>
                <rect width="6" height="2" x="16" rx="1"/>
            </g>
        </g>
        <g mask="url(#b)">
            <g transform="translate(17 12)">
                <rect width="30" height="26" x="4" fill="#91E3E1" rx="1"/>
                <rect width="6" height="10" x="32.387" y="7.8" fill="#91E3E1" rx="1"/>
                <rect width="6" height="10" y="8" fill="#91E3E1" rx="1"/>
                <rect width="8" height="8" x="8" y="8" fill="#FFF" rx="4"/>
                <rect width="8" height="8" x="22" y="8" fill="#FFF" rx="4"/>
            </g>
            <path fill="#91E3E1" d="M25 41h22c6.075 0 11 4.925 11 11v25H14V52c0-6.075 4.925-11 11-11z"/>
            <path fill="#91E3E1" d="M29 33h14v10H29z"/>
            <path fill="#90A4E0" d="M19 41h2v36h-2zM51 41h2v36h-2z"/>
            <g fill="#FFF">
                <path d="M33 47h2v8h-2zM29 49h2v4h-2zM37 46h2v10h-2zM41 48h2v6h-2z"/>
            </g>
        </g>
    </g>
</svg>
