<?xml version="1.0" encoding="utf-8"?>
<!-- Generator: Adobe Illustrator 22.0.0, SVG Export Plug-In . SVG Version: 6.00 Build 0)  -->
<svg version="1.1" id="圖層_1" xmlns="http://www.w3.org/2000/svg" xmlns:xlink="http://www.w3.org/1999/xlink" x="0px" y="0px"
	 viewBox="0 0 240 240" style="enable-background:new 0 0 240 240;" xml:space="preserve">
<style type="text/css">
	.st0{filter:url(#b);}
	.st1{fill:#91E3E1;}
	.st2{opacity:0.47;fill:#FFFFFF;enable-background:new    ;}
	.st3{fill:#62C9C7;}
</style>
<filter  filterUnits="objectBoundingBox" height="130.5%" id="b" width="130.5%" x="-15.2%" y="-14.8%">
	<feOffset  dy="1" in="SourceAlpha" result="shadowOffsetOuter1"></feOffset>
	<feGaussianBlur  in="shadowOffsetOuter1" result="shadowBlurOuter1" stdDeviation="10"></feGaussianBlur>
	<feColorMatrix  in="shadowBlurOuter1" result="shadowMatrixOuter1" values="0 0 0 0 0 0 0 0 0 0 0 0 0 0 0 0 0 0 0.12 0">
		</feColorMatrix>
	<feMerge>
		<feMergeNode  in="shadowMatrixOuter1"></feMergeNode>
		<feMergeNode  in="SourceGraphic"></feMergeNode>
	</feMerge>
</filter>
<g transform="translate(20 19)" class="st0">
	<circle class="st1" cx="99.3" cy="99.3" r="99.3"/>
	<path class="st2" d="M100.3,0C70.1,0,43,13.5,24.8,34.8c17.4-14.9,39.9-23.9,64.6-23.9c54.8,0,99.3,44.4,99.3,99.3
		c0,24.7-9,47.2-23.9,64.6c21.3-18.2,34.8-45.2,34.8-75.4C199.5,44.4,155,0,100.3,0L100.3,0z"/>
	<path class="st3" d="M115,183.5c-54.8,0-99.3-44.4-99.3-99.3c0-23.4,8.1-45,21.7-62C14.6,40.4,0,68.4,0,99.9
		c0,54.8,44.4,99.3,99.3,99.3c31.4,0,59.3-14.6,77.6-37.4C159.9,175.4,138.4,183.5,115,183.5L115,183.5z"/>
</g>
</svg>
