<svg xmlns="http://www.w3.org/2000/svg" width="240" height="240" viewBox="0 0 240 240">
    <g fill="none" fill-rule="evenodd">
        <circle cx="120" cy="120" r="120" fill="#4668CB"/>
        <path fill="#859BDD" fill-rule="nonzero" d="M43.235 40.518A111.062 111.062 0 0 0 29.627 56.4a5.5 5.5 0 0 0 8.99 6.338 100.062 100.062 0 0 1 12.26-14.309 5.5 5.5 0 0 0-7.642-7.911zm59.646-29.7a109.909 109.909 0 0 0-46.116 18.553 5.5 5.5 0 1 0 6.302 9.016 98.91 98.91 0 0 1 41.506-16.699 5.5 5.5 0 1 0-1.692-10.87z"/>
        <path fill="#4668CB" d="M90.625 153.375h14v7.564h-6.436a7.564 7.564 0 0 1-7.564-7.564z"/>
        <g fill="#6EC4C2" transform="matrix(-1 0 0 1 184 103)">
            <rect width="80" height="56" rx="8"/>
            <path d="M11 54h14L8 67z"/>
        </g>
        <g fill="#FFF" transform="translate(57 71)">
            <rect width="80" height="56" rx="8"/>
            <path d="M11 54h14L8 67z"/>
        </g>
        <path fill="#EC4196" d="M69 83h56v6H69zM69 103h50v6H69zM69 93h30v6H69z"/>
        <path fill="#C5EFEE" fill-rule="nonzero" d="M50 175h34a2 2 0 0 0 0-4H50a2 2 0 0 0 0 4zm43 0h11a2 2 0 0 0 0-4H93a2 2 0 0 0 0 4zm20 0h11a2 2 0 0 0 0-4h-11a2 2 0 0 0 0 4z"/>
        <path fill="#6EC4C2" fill-rule="nonzero" d="M159 120h34a2 2 0 0 0 0-4h-34a2 2 0 0 0 0 4zm34 12h11a2 2 0 0 0 0-4h-11a2 2 0 0 0 0 4z"/>
        <path fill="#C5EFEE" fill-rule="nonzero" d="M114 152h4a2 2 0 1 0 0-4h-4a2 2 0 1 0 0 4zm-42 0h4a2 2 0 1 0 0-4h-4a2 2 0 1 0 0 4zm12 0h22a2 2 0 1 0 0-4H84a2 2 0 1 0 0 4zM120 61h34a2 2 0 0 0 0-4h-34a2 2 0 1 0 0 4zm43 0h11a2 2 0 0 0 0-4h-11a2 2 0 0 0 0 4z"/>
    </g>
</svg>
