<svg xmlns="http://www.w3.org/2000/svg" xmlns:xlink="http://www.w3.org/1999/xlink" width="240" height="240" viewBox="0 0 240 240">
    <defs>
        <path id="a" d="M84 81h38c5.523 0 10 4.477 10 10v56H74V91c0-5.523 4.477-10 10-10z"/>
        <rect id="b" width="14" height="14" x="16" rx="7"/>
        <rect id="c" width="14" height="14" rx="7"/>
    </defs>
    <g fill="none" fill-rule="evenodd">
        <circle cx="120" cy="120" r="120" fill="#4668CB"/>
        <path fill="#859BDD" fill-rule="nonzero" d="M45.235 40.518A111.062 111.062 0 0 0 31.627 56.4a5.5 5.5 0 0 0 8.99 6.338 100.062 100.062 0 0 1 12.26-14.309 5.5 5.5 0 0 0-7.642-7.911zm59.646-29.7a109.909 109.909 0 0 0-46.116 18.553 5.5 5.5 0 1 0 6.302 9.016 98.91 98.91 0 0 1 41.506-16.699 5.5 5.5 0 1 0-1.692-10.87z"/>
        <g transform="translate(17 56)">
            <path stroke="#FFF" stroke-linecap="round" stroke-linejoin="round" stroke-width="15" d="M121 87l36.235 30.106L176.172 87M85.172 87l-36.234 30.106L30 87"/>
            <use fill="#FFF" xlink:href="#a"/>
            <path stroke="#4668CB" stroke-width="3" d="M84 79.5h38c6.351 0 11.5 5.149 11.5 11.5v57.5h-61V91c0-6.351 5.149-11.5 11.5-11.5z"/>
            <path fill="#FFF" d="M94 62h18.612v24.429H94z"/>
            <rect width="38" height="54" x="84" y="24" fill="#FFF" rx="19"/>
            <circle cx="86" cy="54" r="7" fill="#FFF"/>
            <circle cx="120" cy="54" r="7" fill="#FFF"/>
            <path fill="#4668CB" d="M104.274 91.976l3.643 34.663a1 1 0 0 1-.23.749l-3.961 4.704a1 1 0 0 1-1.53 0l-3.96-4.704a1 1 0 0 1-.23-.749l3.642-34.663A2 2 0 0 1 99.961 90v-4h6v4a2 2 0 0 1-1.687 1.976z"/>
            <g transform="translate(88 45)">
                <use fill="#FFF" xlink:href="#b"/>
                <rect width="12" height="12" x="17" y="1" stroke="#4668CB" stroke-width="2" rx="6"/>
            </g>
            <g transform="translate(88 45)">
                <use fill="#FFF" xlink:href="#c"/>
                <rect width="12" height="12" x="1" y="1" stroke="#4668CB" stroke-width="2" rx="6"/>
            </g>
            <path fill="#4668CB" d="M100.469 50.653h5v3h-5z"/>
            <g fill="#FFF" fill-rule="nonzero">
                <path d="M144 16v2a1.5 1.5 0 0 0 3 0v-2a1.5 1.5 0 0 0-3 0zm6.5 3.5h-2a1.5 1.5 0 0 0 0 3h2a1.5 1.5 0 0 0 0-3zM147 26v-2a1.5 1.5 0 0 0-3 0v2a1.5 1.5 0 0 0 3 0zm-6.5-3.5h2a1.5 1.5 0 0 0 0-3h-2a1.5 1.5 0 0 0 0 3zM42 2v2a1.5 1.5 0 0 0 3 0V2a1.5 1.5 0 0 0-3 0zm6.5 3.5h-2a1.5 1.5 0 0 0 0 3h2a1.5 1.5 0 0 0 0-3zM45 12v-2a1.5 1.5 0 0 0-3 0v2a1.5 1.5 0 0 0 3 0zm-6.5-3.5h2a1.5 1.5 0 0 0 0-3h-2a1.5 1.5 0 0 0 0 3zM186 10v1a1.5 1.5 0 0 0 3 0v-1a1.5 1.5 0 0 0-3 0zm-1-4h-1a1.5 1.5 0 0 0 0 3h1a1.5 1.5 0 0 0 0-3zm4-1V4a1.5 1.5 0 0 0-3 0v1a1.5 1.5 0 0 0 3 0zm1 4h1a1.5 1.5 0 0 0 0-3h-1a1.5 1.5 0 0 0 0 3zM61 32v1a1.5 1.5 0 0 0 3 0v-1a1.5 1.5 0 0 0-3 0zm-1-4h-1a1.5 1.5 0 0 0 0 3h1a1.5 1.5 0 0 0 0-3zm4-1v-1a1.5 1.5 0 0 0-3 0v1a1.5 1.5 0 0 0 3 0zm1 4h1a1.5 1.5 0 0 0 0-3h-1a1.5 1.5 0 0 0 0 3z"/>
            </g>
            <g transform="translate(146 23)">
                <circle cx="30" cy="30" r="30" fill="#859BDD"/>
                <path fill="#6EC4C2" d="M17 57h26v6H17z"/>
                <g fill="#91E3E1" transform="translate(13 17)">
                    <rect width="8" height="26" y="8" rx="1"/>
                    <rect width="8" height="19" x="13" y="15" rx="1"/>
                    <rect width="8" height="34" x="26" rx="1"/>
                </g>
                <path fill="#FFF" fill-rule="nonzero" d="M8.5 18a.624.624 0 0 0-.625.625v1.25h-1.25a.624.624 0 1 0 0 1.25h1.25v1.25a.624.624 0 1 0 1.25 0v-1.25h1.25a.624.624 0 1 0 0-1.25h-1.25v-1.25A.624.624 0 0 0 8.5 18zM27.5 8a.624.624 0 0 0-.625.625v1.25h-1.25a.624.624 0 1 0 0 1.25h1.25v1.25a.624.624 0 1 0 1.25 0v-1.25h1.25a.624.624 0 1 0 0-1.25h-1.25v-1.25A.624.624 0 0 0 27.5 8zM53.5 28a.624.624 0 0 0-.625.625v1.25h-1.25a.624.624 0 1 0 0 1.25h1.25v1.25a.624.624 0 1 0 1.25 0v-1.25h1.25a.624.624 0 1 0 0-1.25h-1.25v-1.25A.624.624 0 0 0 53.5 28z"/>
            </g>
            <g transform="translate(0 23)">
                <circle cx="30" cy="30" r="30" fill="#859BDD"/>
                <path fill="#F37FB9" d="M17 57h26v6H17z"/>
                <g fill="#EC4196" transform="translate(13 17)">
                    <rect width="8" height="26" x="26" y="8" rx="1"/>
                    <rect width="8" height="19" y="15" rx="1"/>
                    <rect width="8" height="34" x="13" rx="1"/>
                </g>
                <path fill="#FFF" fill-rule="nonzero" d="M53.5 28a.624.624 0 0 0-.625.625v1.25h-1.25a.624.624 0 1 0 0 1.25h1.25v1.25a.624.624 0 1 0 1.25 0v-1.25h1.25a.624.624 0 1 0 0-1.25h-1.25v-1.25A.624.624 0 0 0 53.5 28zM36.5 6a.624.624 0 0 0-.625.625v1.25h-1.25a.624.624 0 1 0 0 1.25h1.25v1.25a.624.624 0 1 0 1.25 0v-1.25h1.25a.624.624 0 1 0 0-1.25h-1.25v-1.25A.624.624 0 0 0 36.5 6zM13.5 13a.624.624 0 0 0-.625.625v1.25h-1.25a.624.624 0 1 0 0 1.25h1.25v1.25a.624.624 0 1 0 1.25 0v-1.25h1.25a.624.624 0 1 0 0-1.25h-1.25v-1.25A.624.624 0 0 0 13.5 13z"/>
            </g>
        </g>
    </g>
</svg>
