<svg id="圖層_1" data-name="圖層 1" xmlns="http://www.w3.org/2000/svg" viewBox="0 0 31.71 31.71"><defs><style>.cls-1{fill:#fff;stroke:#4668cb;}.cls-2{fill:#4668cb;}</style></defs><title>error</title><circle class="cls-1" cx="15.85" cy="15.85" r="15.35"/><path class="cls-2" d="M22.11,9.89h0a1,1,0,0,1,0,1.36L11.25,22.11a1,1,0,0,1-1.36,0h0a1,1,0,0,1,0-1.36L20.75,9.89A1,1,0,0,1,22.11,9.89Z" transform="translate(-0.15 -0.15)"/><path class="cls-2" d="M11.25,9.89,22.11,20.75a1,1,0,0,1,0,1.36h0a1,1,0,0,1-1.36,0L9.89,11.25a1,1,0,0,1,0-1.36h0A1,1,0,0,1,11.25,9.89Z" transform="translate(-0.15 -0.15)"/></svg>