<svg xmlns="http://www.w3.org/2000/svg" width="48" height="48" viewBox="0 0 48 48">
    <g fill="none" fill-rule="evenodd">
        <path d="M0 0h48v48H0z"/>
        <g stroke="#FFF" stroke-width="2" transform="translate(2 2)">
            <path d="M9 19.586L13.586 15H22a7 7 0 0 0 0-14H8a7 7 0 1 0 0 14h1v4.586z"/>
            <rect width="10" height="1" x="10" y="8" rx=".5"/>
        </g>
        <g stroke="#FFF" stroke-width="2" transform="matrix(-1 0 0 1 46 24)">
            <path d="M9 19.586L13.586 15H22a7 7 0 0 0 0-14H8a7 7 0 1 0 0 14h1v4.586z"/>
            <rect width="10" height="1" x="10" y="8" rx=".5"/>
        </g>
    </g>
</svg>
