<svg xmlns="http://www.w3.org/2000/svg" width="48" height="48" viewBox="0 0 48 48">
    <g fill="none" fill-rule="evenodd">
        <path d="M0 0h48v48H0z"/>
        <g transform="translate(10 6)">
            <path stroke="#FFF" stroke-width="2" d="M27 19.2V8.376L20.546 1H2a1 1 0 0 0-1 1v32a1 1 0 0 0 1 1h14.999A9.97 9.97 0 0 1 15 29c0-5.523 4.477-10 10-10 .678 0 1.347.068 2 .2z"/>
            <path stroke="#FFF" stroke-width="2" d="M25.773 8L21 2.63V7a1 1 0 0 0 1 1h3.773z"/>
            <rect width="16" height="2" x="6" y="11" fill="#FFF" rx="1"/>
            <rect width="16" height="2" x="6" y="17" fill="#FFF" rx="1"/>
            <rect width="11" height="2" x="6" y="23" fill="#FFF" rx="1"/>
        </g>
        <g transform="translate(25 25)">
            <circle cx="10" cy="10" r="10" stroke="#FFF" stroke-width="2"/>
            <path fill="#FFF" d="M10.11 5c1.163 0 2.076.235 2.726.72.692.511 1.093 1.313 1.19 2.392H12.42c-.138-.608-.401-1.05-.76-1.314-.36-.276-.914-.4-1.633-.4-.623 0-1.093.082-1.425.262-.415.207-.609.553-.609 1.024 0 .415.222.76.692 1.01.207.11.775.318 1.688.608 1.341.415 2.2.747 2.586.968.858.512 1.287 1.218 1.287 2.13 0 .886-.346 1.592-1.038 2.103-.691.498-1.673.761-2.932.761-1.218 0-2.172-.235-2.85-.705-.83-.581-1.286-1.494-1.356-2.753h1.605c.11.747.374 1.286.802 1.605.388.276.983.428 1.799.428.72 0 1.3-.124 1.715-.36.415-.248.636-.566.636-.981 0-.526-.318-.941-.926-1.245-.194-.097-.83-.319-1.923-.65-1.218-.388-1.978-.665-2.269-.83-.76-.457-1.134-1.121-1.134-1.993 0-.871.36-1.563 1.106-2.06.692-.485 1.564-.72 2.629-.72z"/>
            <path fill="#FFF" d="M9.286 3.929h1.786v1.429H9.286zM9.286 15h1.786v1.429H9.286z"/>
        </g>
    </g>
</svg>
