<svg xmlns="http://www.w3.org/2000/svg" width="239" height="239" viewBox="0 0 239 239">
    <defs>
        <filter id="a" width="125.5%" height="125.5%" x="-12.8%" y="-12.3%" filterUnits="objectBoundingBox">
            <feOffset dy="1" in="SourceAlpha" result="shadowOffsetOuter1"/>
            <feGaussianBlur in="shadowOffsetOuter1" result="shadowBlurOuter1" stdDeviation="10"/>
            <feColorMatrix in="shadowBlurOuter1" result="shadowMatrixOuter1" values="0 0 0 0 0 0 0 0 0 0 0 0 0 0 0 0 0 0 0.12 0"/>
            <feMerge>
                <feMergeNode in="shadowMatrixOuter1"/>
                <feMergeNode in="SourceGraphic"/>
            </feMerge>
        </filter>
    </defs>
    <g fill="none" fill-rule="nonzero" filter="url(#a)">
        <circle cx="119.346" cy="118.346" r="99.346" fill="#91E3E1"/>
        <path fill="#FFF" d="M120.261 19c-30.196 0-57.254 13.464-75.424 34.771C62.222 38.87 84.706 29.85 109.412 29.85c54.771 0 99.346 44.444 99.346 99.346 0 24.706-9.02 47.19-23.921 64.575 21.307-18.17 34.77-45.229 34.77-75.425C219.478 63.444 175.034 19 120.262 19z" opacity=".47"/>
        <path fill="#62C9C7" d="M135.033 202.53c-54.772 0-99.347-44.445-99.347-99.347 0-23.399 8.105-44.967 21.7-61.96C34.64 59.392 20 87.365 20 118.868c0 54.772 44.444 99.347 99.346 99.347 31.373 0 59.347-14.64 77.647-37.386-17.124 13.595-38.562 21.7-61.96 21.7z"/>
    </g>
</svg>
