<svg xmlns="http://www.w3.org/2000/svg" width="370" height="461" viewBox="0 0 370 461">
    <g fill="none" fill-rule="evenodd">
        <path fill="#F796C5" d="M353.381 261l-35.762 61.942a16 16 0 0 1-13.857 8h-71.524a16 16 0 0 1-13.857-8L182.62 261a16 16 0 0 1 0-16l35.762-61.942a16 16 0 0 1 13.857-8h71.524a16 16 0 0 1 13.857 8L353.38 245a16 16 0 0 1 0 16zM173.381 131l-35.762 61.942a16 16 0 0 1-13.857 8H52.238a16 16 0 0 1-13.857-8L2.62 131a16 16 0 0 1 0-16L38.38 53.058a16 16 0 0 1 13.857-8h71.524a16 16 0 0 1 13.857 8L173.38 115a16 16 0 0 1 0 16zM173.381 391l-35.762 61.942a16 16 0 0 1-13.857 8H52.238a16 16 0 0 1-13.857-8L2.62 391a16 16 0 0 1 0-16l35.762-61.942a16 16 0 0 1 13.857-8h71.524a16 16 0 0 1 13.857 8L173.38 375a16 16 0 0 1 0 16z"/>
        <path stroke="#F796C5" stroke-linecap="round" stroke-width="3" d="M367.754 2H176.181a8 8 0 0 0-6.944 4.028L150 39.654M301.754 344h-81.591a8 8 0 0 0-6.93 4.004L165 431.654M95 215h41.623a8 8 0 0 1 6.907 3.963l37.224 63.691" opacity=".402"/>
    </g>
</svg>
