<svg xmlns="http://www.w3.org/2000/svg" width="59" height="57" viewBox="0 0 59 57">
    <g fill="none" fill-rule="evenodd">
        <path stroke="#C5C5C5" stroke-linecap="square" stroke-linejoin="round" stroke-width="2" d="M30 36c-2.32 2.269-5.552 2.836-9.696 1.702"/>
        <path fill="#C5C5C5" fill-rule="nonzero" d="M50 46h-2v10.953h2zM38 46h-2v10.953h2z"/>
        <path fill="#E1E1E1" d="M59 16H27v36h32z"/>
        <path fill="#C5C5C5" d="M59 16h-8v36h8z"/>
        <path stroke="#F7F7F7" stroke-linecap="square" stroke-linejoin="round" stroke-width="2" d="M54.861 35.842c-2.32 2.269-5.552 2.836-9.696 1.701"/>
        <g transform="matrix(-1 0 0 1 42 24)">
            <path fill="#E82087" d="M6.5 2L8 6H5z"/>
            <rect width="3" height="4" fill="#4668CB" rx="1.5"/>
            <rect width="3" height="4" x="9" fill="#4668CB" rx="1.5"/>
        </g>
        <path fill="#F8BE5F" d="M8.866 14.928l-3.248.498a1 1 0 0 1-1.028-1.469l1.58-2.881L4.69 8.14a1 1 0 0 1 1.08-1.433l3.228.612 2.335-2.313a1 1 0 0 1 1.696.584l.415 3.26 2.921 1.506a1 1 0 0 1-.03 1.793l-2.973 1.403-.529 3.243a1 1 0 0 1-1.715.525l-2.253-2.393z"/>
        <path stroke="#F8BE5F" stroke-linecap="round" stroke-width="2" d="M16 15.977l4.756 3.658"/>
    </g>
</svg>
