<svg xmlns="http://www.w3.org/2000/svg" width="1288" height="379" viewBox="0 0 1288 379">
    <g fill="#FFF" fill-rule="evenodd">
        <g opacity=".602" transform="translate(1003 355)">
            <rect width="5.053" height="7.579" x="9.474" rx="2.526"/>
            <rect width="5.053" height="7.579" x="9.474" y="16.421" rx="2.526"/>
            <rect width="7.579" height="5.053" x="16.421" y="9.474" rx="2.526"/>
            <rect width="7.579" height="5.053" y="9.474" rx="2.526"/>
        </g>
        <g transform="translate(1076 38)">
            <rect width="8" height="12" x="15" rx="4"/>
            <rect width="8" height="12" x="15" y="26" rx="4"/>
            <rect width="12" height="8" x="26" y="15" rx="4"/>
            <rect width="12" height="8" y="15" rx="4"/>
        </g>
        <g transform="translate(1250 223)">
            <rect width="8" height="12" x="15" rx="4"/>
            <rect width="8" height="12" x="15" y="26" rx="4"/>
            <rect width="12" height="8" x="26" y="15" rx="4"/>
            <rect width="12" height="8" y="15" rx="4"/>
        </g>
        <g opacity=".595" transform="translate(1045 158)">
            <rect width="5.053" height="7.579" x="9.474" rx="2.526"/>
            <rect width="5.053" height="7.579" x="9.474" y="16.421" rx="2.526"/>
            <rect width="7.579" height="5.053" x="16.421" y="9.474" rx="2.526"/>
            <rect width="7.579" height="5.053" y="9.474" rx="2.526"/>
        </g>
        <g transform="translate(257)">
            <rect width="8" height="12" x="15" rx="4"/>
            <rect width="8" height="12" x="15" y="26" rx="4"/>
            <rect width="12" height="8" x="26" y="15" rx="4"/>
            <rect width="12" height="8" y="15" rx="4"/>
        </g>
        <g transform="translate(0 57)">
            <rect width="8" height="12" x="15" rx="4"/>
            <rect width="8" height="12" x="15" y="26" rx="4"/>
            <rect width="12" height="8" x="26" y="15" rx="4"/>
            <rect width="12" height="8" y="15" rx="4"/>
        </g>
        <g transform="translate(69 341)">
            <rect width="8" height="12" x="15" rx="4"/>
            <rect width="8" height="12" x="15" y="26" rx="4"/>
            <rect width="12" height="8" x="26" y="15" rx="4"/>
            <rect width="12" height="8" y="15" rx="4"/>
        </g>
        <g transform="translate(276 182)">
            <rect width="8" height="12" x="15" rx="4"/>
            <rect width="8" height="12" x="15" y="26" rx="4"/>
            <rect width="12" height="8" x="26" y="15" rx="4"/>
            <rect width="12" height="8" y="15" rx="4"/>
        </g>
        <g opacity=".598" transform="translate(175 155)">
            <rect width="5.053" height="7.579" x="9.474" rx="2.526"/>
            <rect width="5.053" height="7.579" x="9.474" y="16.421" rx="2.526"/>
            <rect width="7.579" height="5.053" x="16.421" y="9.474" rx="2.526"/>
            <rect width="7.579" height="5.053" y="9.474" rx="2.526"/>
        </g>
        <g opacity=".598" transform="translate(305 104)">
            <rect width="5.053" height="7.579" x="9.474" rx="2.526"/>
            <rect width="5.053" height="7.579" x="9.474" y="16.421" rx="2.526"/>
            <rect width="7.579" height="5.053" x="16.421" y="9.474" rx="2.526"/>
            <rect width="7.579" height="5.053" y="9.474" rx="2.526"/>
        </g>
    </g>
</svg>
