<svg id="圖層_1" data-name="圖層 1" xmlns="http://www.w3.org/2000/svg" xmlns:xlink="http://www.w3.org/1999/xlink" viewBox="0 0 316 487"><defs><style>.cls-1,.cls-11,.cls-2{fill:none;}.cls-1{clip-rule:evenodd;}.cls-3{clip-path:url(#clip-path);}.cls-4{clip-path:url(#clip-path-2);}.cls-5{fill:#f796c5;}.cls-6{clip-path:url(#clip-path-3);}.cls-7{clip-path:url(#clip-path-4);}.cls-8{clip-path:url(#clip-path-5);}.cls-9{clip-path:url(#clip-path-6);}.cls-10{clip-path:url(#clip-path-7);}.cls-11{stroke:#f77ebc;stroke-miterlimit:10;stroke-width:3px;opacity:0.4;}</style><clipPath id="clip-path"><path class="cls-1" d="M198.38,382l-35.76,61.94a16,16,0,0,1-13.86,8H77.24a16,16,0,0,1-13.86-8L27.62,382a16,16,0,0,1,0-16l35.76-61.94a16,16,0,0,1,13.86-8h71.52a16,16,0,0,1,13.86,8L198.38,366A16,16,0,0,1,198.38,382Z"/></clipPath><clipPath id="clip-path-2"><rect class="cls-2" x="23" y="284" width="180" height="180"/></clipPath><clipPath id="clip-path-3"><path class="cls-1" d="M313.38,252l-35.76,61.94a16,16,0,0,1-13.86,8H192.24a16,16,0,0,1-13.86-8L142.62,252a16,16,0,0,1,0-16l35.76-61.94a16,16,0,0,1,13.86-8h71.52a16,16,0,0,1,13.86,8L313.38,236A16,16,0,0,1,313.38,252Z"/></clipPath><clipPath id="clip-path-4"><rect class="cls-2" x="138" y="154" width="180" height="180"/></clipPath><clipPath id="clip-path-5"><path class="cls-1" d="M198.38,122l-35.76,61.94a16,16,0,0,1-13.86,8H77.24a16,16,0,0,1-13.86-8L27.62,122a16,16,0,0,1,0-16L63.38,44.06a16,16,0,0,1,13.86-8h71.52a16,16,0,0,1,13.86,8L198.38,106A16,16,0,0,1,198.38,122Z"/></clipPath><clipPath id="clip-path-6"><rect class="cls-2" x="23" y="24" width="180" height="180"/></clipPath><clipPath id="clip-path-7"><rect class="cls-2" x="-416" y="-186" width="789" height="1285"/></clipPath></defs><title>工作區域 1</title><g class="cls-3"><g class="cls-4"><rect class="cls-5" x="20.48" y="291.06" width="185.05" height="165.88"/></g></g><g class="cls-6"><g class="cls-7"><rect class="cls-5" x="135.48" y="161.06" width="185.05" height="165.88"/></g></g><g class="cls-8"><g class="cls-9"><rect class="cls-5" x="20.48" y="31.06" width="185.05" height="165.88"/></g></g><g class="cls-10"><circle class="cls-11" cx="201" cy="320" r="9"/><circle class="cls-11" cx="239" cy="338" r="7"/><circle class="cls-11" cx="219" cy="178" r="7"/><circle class="cls-11" cx="134" cy="9" r="7"/><circle class="cls-11" cx="79" cy="478" r="7"/><circle class="cls-11" cx="271" cy="140" r="9"/><circle class="cls-11" cx="11" cy="130" r="9"/></g></svg>