<svg xmlns="http://www.w3.org/2000/svg" width="117" height="100" viewBox="0 0 117 100">
    <g fill="none" fill-rule="evenodd">
        <path fill="#C5C5C5" fill-rule="nonzero" d="M51.946 74.375h3.762v15.313h-3.762zM69.816 74.375h3.762v15.313h-3.762zM77.475 50.322v-3.75h1.247a17.565 17.565 0 0 0 15.504-9.288l2.963-5.559 3.322 1.76-2.963 5.558a21.328 21.328 0 0 1-18.826 11.28h-1.247z"/>
        <path fill="#4668CB" d="M94.782 32.708l21.212-7.72.748 2.055-21.212 7.72z"/>
        <path fill="#E1E1E1" d="M35.52 25.824l47.852-3.346 3.836 54.866-47.851 3.346z"/>
        <path fill="#C5C5C5" d="M35.52 25.824l10.008-.7 3.837 54.867-10.008.7z"/>
        <g transform="rotate(-4 555.676 -811.66)">
            <path fill="#E82087" d="M10.838 2.033l2.194 5.937H8.643z"/>
            <rect width="4.703" height="6.875" fill="#4668CB" rx="2.351"/>
            <rect width="4.389" height="6.875" x="15.32" fill="#4668CB" rx="2.195"/>
        </g>
        <g fill="#4668CB" fill-rule="nonzero">
            <path d="M79.6 46.562c-4.672.164-8.592-3.48-8.754-8.137-.163-4.657 3.493-8.564 8.165-8.727 4.672-.164 8.592 3.48 8.754 8.137.163 4.657-3.493 8.564-8.165 8.727zm-.065-1.874c3.633-.126 6.477-3.166 6.35-6.788-.126-3.622-3.175-6.455-6.809-6.329-3.633.127-6.477 3.167-6.35 6.789.126 3.622 3.175 6.455 6.809 6.328zM61.168 48.77c-4.672.163-8.591-3.48-8.754-8.137-.162-4.658 3.493-8.565 8.166-8.728 4.672-.163 8.591 3.48 8.754 8.137.162 4.657-3.493 8.564-8.166 8.727zm-.065-1.874c3.634-.127 6.477-3.167 6.35-6.789-.126-3.622-3.174-6.455-6.808-6.328-3.634.126-6.477 3.166-6.35 6.788.126 3.622 3.174 6.455 6.808 6.329z"/>
            <path d="M53.365 40.912l.066 1.874-12.533.438-.066-1.874zM71.696 38.4l.245 1.86-3.112.406-.245-1.86z"/>
        </g>
        <path stroke="#E1E1E1" stroke-linecap="square" stroke-width="3.438" d="M41.443 50.625L30 69.219"/>
        <g transform="scale(-1 1) rotate(20 -134.894 -50.167)">
            <rect width="25.081" height="32.5" fill="#F6F6F6" rx="2.5"/>
            <path fill="#C5C5C5" d="M3.135 5h18.811v1.875H3.135zM3.135 10h18.811v1.875H3.135zM3.135 15h12.541v1.875H3.135z"/>
            <path stroke="#C5C5C5" stroke-width="1.875" d="M3.343 22.82l4.309 4.367 6.055-6.497 4.064 4.42 4.383-5.238"/>
        </g>
    </g>
</svg>
