<svg xmlns="http://www.w3.org/2000/svg" xmlns:xlink="http://www.w3.org/1999/xlink" width="768" height="948" viewBox="0 0 768 948">
  <defs>
    <rect id="幾何黃-a" width="768" height="940"/>
    <rect id="幾何黃-c" width="56" height="16" rx="2"/>
    <rect id="幾何黃-e" width="56" height="16" rx="2"/>
    <rect id="幾何黃-g" width="56" height="16" rx="2"/>
    <rect id="幾何黃-i" width="56" height="16" rx="2"/>
    <rect id="幾何黃-k" width="56" height="16" rx="2"/>
    <rect id="幾何黃-m" width="56" height="16" rx="2"/>
    <rect id="幾何黃-o" width="56" height="16" rx="2"/>
  </defs>
  <g fill="none" fill-rule="evenodd">
    <g transform="translate(0 8)">
      <mask id="幾何黃-b" fill="#fff">
        <use xlink:href="#幾何黃-a"/>
      </mask>
      <g mask="url(#幾何黃-b)" opacity=".25">
        <g transform="translate(-318)">
          <polygon stroke="#F5AC02" stroke-linecap="round" stroke-linejoin="round" stroke-width="3" points="24.749 7.249 42.249 42.249 7.249 42.249" opacity=".6" style="mix-blend-mode:overlay" transform="rotate(45 -194.053 1323.118)"/>
          <polygon stroke="#F5AC02" stroke-linecap="round" stroke-linejoin="round" stroke-width="3" points="24.749 7.249 42.249 42.249 7.249 42.249" opacity=".6" style="mix-blend-mode:overlay" transform="rotate(154 262.137 99.617)"/>
          <circle cx="17.5" cy="17.5" r="17.5" stroke="#F5AC02" stroke-width="3" opacity=".6" style="mix-blend-mode:overlay" transform="translate(834 890)"/>
          <g opacity=".6" transform="rotate(30 465.75 1738.203)">
            <path fill="#F5AC02" fill-rule="nonzero" d="M3,3 L3,32 L32,32 L32,3 L3,3 Z M-1.13686838e-13,0 L35,0 L35,35 L-1.13686838e-13,35 L-1.13686838e-13,0 Z"/>
            <polygon fill="#F5AC02" points="3 15 32 15 32 12 3 12"/>
          </g>
          <g opacity=".6" transform="rotate(-130 376.737 333.404)">
            <path fill="#F5AC02" fill-rule="nonzero" d="M3,3 L3,32 L32,32 L32,3 L3,3 Z M-1.13686838e-13,0 L35,0 L35,35 L-1.13686838e-13,35 L-1.13686838e-13,0 Z"/>
            <polygon fill="#F5AC02" points="3 15 32 15 32 12 3 12"/>
          </g>
          <circle cx="17.5" cy="17.5" r="17.5" stroke="#F5AC02" stroke-width="3" opacity=".6" style="mix-blend-mode:overlay" transform="translate(431 211)"/>
          <g stroke-linecap="round" stroke-linejoin="round" opacity=".597" transform="translate(934 260)">
            <polyline stroke="#F5AC02" stroke-width="3" points="0 11 11.25 0 22.5 11 33.75 0 45 11" style="mix-blend-mode:overlay"/>
            <polyline stroke="#F5AC02" stroke-width="3" points="0 29 11.25 18 22.5 29 33.75 18 45 29" style="mix-blend-mode:overlay"/>
          </g>
          <g stroke-linecap="round" stroke-linejoin="round" opacity=".597" transform="translate(451 566)">
            <polyline stroke="#F5AC02" stroke-width="3" points="0 11 11.25 0 22.5 11 33.75 0 45 11" style="mix-blend-mode:overlay"/>
            <polyline stroke="#F5AC02" stroke-width="3" points="0 29 11.25 18 22.5 29 33.75 18 45 29" style="mix-blend-mode:overlay"/>
          </g>
          <g stroke-linecap="round" stroke-linejoin="round" opacity=".597" transform="translate(1037 654)">
            <polyline stroke="#F5AC02" stroke-width="3" points="0 11 11.25 0 22.5 11 33.75 0 45 11" style="mix-blend-mode:overlay"/>
            <polyline stroke="#F5AC02" stroke-width="3" points="0 29 11.25 18 22.5 29 33.75 18 45 29" style="mix-blend-mode:overlay"/>
          </g>
        </g>
      </g>
    </g>
    <g transform="translate(11 756)">
      <g transform="translate(0 123)">
        <g transform="matrix(-1 0 0 1 56 17)">
          <mask id="幾何黃-d" fill="#fff">
            <use xlink:href="#幾何黃-c"/>
          </mask>
          <use fill="#F5AC02" xlink:href="#幾何黃-c"/>
          <rect width="60" height="3" x="-2" fill="#FAC343" mask="url(#幾何黃-d)" style="mix-blend-mode:hard-light"/>
          <rect width="2" height="13" x="6" y="3" fill="#FAC343" mask="url(#幾何黃-d)" style="mix-blend-mode:hard-light"/>
          <rect width="2" height="13" x="24" y="3" fill="#FAC343" mask="url(#幾何黃-d)" style="mix-blend-mode:hard-light"/>
          <rect width="2" height="13" x="42" y="3" fill="#FAC343" mask="url(#幾何黃-d)" style="mix-blend-mode:hard-light"/>
        </g>
        <g transform="matrix(-1 0 0 1 56 34)">
          <mask id="幾何黃-f" fill="#fff">
            <use xlink:href="#幾何黃-e"/>
          </mask>
          <use fill="#F5AC02" xlink:href="#幾何黃-e"/>
          <rect width="60" height="3" x="-2" fill="#FAC343" mask="url(#幾何黃-f)" style="mix-blend-mode:hard-light"/>
          <rect width="2" height="13" x="6" y="3" fill="#FAC343" mask="url(#幾何黃-f)" style="mix-blend-mode:hard-light"/>
          <rect width="2" height="13" x="24" y="3" fill="#FAC343" mask="url(#幾何黃-f)" style="mix-blend-mode:hard-light"/>
          <rect width="2" height="13" x="42" y="3" fill="#FAC343" mask="url(#幾何黃-f)" style="mix-blend-mode:hard-light"/>
        </g>
        <g transform="translate(0 51)">
          <mask id="幾何黃-h" fill="#fff">
            <use xlink:href="#幾何黃-g"/>
          </mask>
          <use fill="#F5AC02" xlink:href="#幾何黃-g"/>
          <rect width="60" height="3" x="-2" fill="#FAC343" mask="url(#幾何黃-h)" style="mix-blend-mode:hard-light"/>
          <rect width="2" height="13" x="6" y="3" fill="#FAC343" mask="url(#幾何黃-h)" style="mix-blend-mode:hard-light"/>
          <rect width="2" height="13" x="24" y="3" fill="#FAC343" mask="url(#幾何黃-h)" style="mix-blend-mode:hard-light"/>
          <rect width="2" height="13" x="42" y="3" fill="#FAC343" mask="url(#幾何黃-h)" style="mix-blend-mode:hard-light"/>
        </g>
        <g transform="translate(9)">
          <mask id="幾何黃-j" fill="#fff">
            <use xlink:href="#幾何黃-i"/>
          </mask>
          <use fill="#F5AC02" xlink:href="#幾何黃-i"/>
          <rect width="60" height="3" x="-2" fill="#FAC343" mask="url(#幾何黃-j)" style="mix-blend-mode:hard-light"/>
          <rect width="2" height="13" x="6" y="3" fill="#FAC343" mask="url(#幾何黃-j)" style="mix-blend-mode:hard-light"/>
          <rect width="2" height="13" x="24" y="3" fill="#FAC343" mask="url(#幾何黃-j)" style="mix-blend-mode:hard-light"/>
          <rect width="2" height="13" x="42" y="3" fill="#FAC343" mask="url(#幾何黃-j)" style="mix-blend-mode:hard-light"/>
        </g>
        <g transform="translate(602 51)">
          <mask id="幾何黃-l" fill="#fff">
            <use xlink:href="#幾何黃-k"/>
          </mask>
          <use fill="#F5AC02" xlink:href="#幾何黃-k"/>
          <rect width="60" height="3" x="-2" fill="#FAC343" mask="url(#幾何黃-l)" style="mix-blend-mode:hard-light"/>
          <rect width="2" height="13" x="6" y="3" fill="#FAC343" mask="url(#幾何黃-l)" style="mix-blend-mode:hard-light"/>
          <rect width="2" height="13" x="24" y="3" fill="#FAC343" mask="url(#幾何黃-l)" style="mix-blend-mode:hard-light"/>
          <rect width="2" height="13" x="42" y="3" fill="#FAC343" mask="url(#幾何黃-l)" style="mix-blend-mode:hard-light"/>
        </g>
        <g transform="matrix(-1 0 0 1 726 34)">
          <mask id="幾何黃-n" fill="#fff">
            <use xlink:href="#幾何黃-m"/>
          </mask>
          <use fill="#F5AC02" xlink:href="#幾何黃-m"/>
          <rect width="60" height="3" x="-2" fill="#FAC343" mask="url(#幾何黃-n)" style="mix-blend-mode:hard-light"/>
          <rect width="2" height="13" x="6" y="3" fill="#FAC343" mask="url(#幾何黃-n)" style="mix-blend-mode:hard-light"/>
          <rect width="2" height="13" x="24" y="3" fill="#FAC343" mask="url(#幾何黃-n)" style="mix-blend-mode:hard-light"/>
          <rect width="2" height="13" x="42" y="3" fill="#FAC343" mask="url(#幾何黃-n)" style="mix-blend-mode:hard-light"/>
        </g>
        <g transform="translate(670 51)">
          <mask id="幾何黃-p" fill="#fff">
            <use xlink:href="#幾何黃-o"/>
          </mask>
          <use fill="#F5AC02" xlink:href="#幾何黃-o"/>
          <rect width="60" height="3" x="-2" fill="#FAC343" mask="url(#幾何黃-p)" style="mix-blend-mode:hard-light"/>
          <rect width="2" height="13" x="6" y="3" fill="#FAC343" mask="url(#幾何黃-p)" style="mix-blend-mode:hard-light"/>
          <rect width="2" height="13" x="24" y="3" fill="#FAC343" mask="url(#幾何黃-p)" style="mix-blend-mode:hard-light"/>
          <rect width="2" height="13" x="42" y="3" fill="#FAC343" mask="url(#幾何黃-p)" style="mix-blend-mode:hard-light"/>
        </g>
      </g>
      <g transform="translate(551)">
        <polygon fill="#C5C5C5" fill-rule="nonzero" points="113.083 163.453 119.439 163.453 119.439 190.572 113.083 190.572" transform="matrix(-1 0 0 1 232.521 0)"/>
        <polygon fill="#C5C5C5" fill-rule="nonzero" points="82.892 163.453 89.248 163.453 89.248 190.572 82.892 190.572" transform="matrix(-1 0 0 1 172.14 0)"/>
        <g transform="translate(59.322 16.95)">
          <path stroke="#C5C5C5" stroke-width="7" d="M11.918714,100.965837 C4.71259688,83.3316129 3.32642967,68.9476021 7.76021233,57.8138044 C12.193995,46.6800068 20.2013081,39.6084305 31.7821515,36.5990755" transform="rotate(-4 18.505 68.782)"/>
          <rect width="81.038" height="93.22" x="3.686" y="61.265" fill="#E1E1E1" transform="scale(-1 1) rotate(-4 0 1373.748)"/>
          <rect width="16.949" height="93.22" x="67.697" y="63.5" fill="#C5C5C5" transform="scale(-1 1) rotate(-4 0 2291.382)"/>
          <g transform="scale(-1 1) rotate(-4 1160.435 756.464)">
            <polygon fill="#E82087" points="18.31 3.445 22.017 13.509 14.602 13.509"/>
            <rect width="7.945" height="11.653" fill="#4668CB" rx="3.972"/>
            <rect width="7.415" height="11.653" x="25.883" fill="#4668CB" rx="3.708"/>
          </g>
          <g transform="rotate(16 13.294 116.277)">
            <circle cx="23.729" cy="23.729" r="23.729" fill="#FAC343"/>
            <circle cx="23.729" cy="23.729" r="20.339" fill="#F5AC02" stroke="#FFF" stroke-width="2"/>
            <path fill="#FFF" d="M23.9915939,11.8644068 C26.7488692,11.8644068 28.9152998,12.4224268 30.458061,13.5712915 C32.0992963,14.7858056 33.0512128,16.6896386 33.2809857,19.2499657 L29.4733198,19.2499657 C29.1450728,17.8056786 28.5214033,16.755288 27.667961,16.1316186 C26.8145186,15.4751245 25.5015304,15.1797021 23.7946456,15.1797021 C22.3175339,15.1797021 21.2014938,15.3766503 20.4137009,15.8033715 C19.4289597,16.2957421 18.9694138,17.1163598 18.9694138,18.2323998 C18.9694138,19.217141 19.4946091,20.0377586 20.6106491,20.6286033 C21.1030197,20.891201 22.4488327,21.3835716 24.6152633,22.0728904 C27.7992598,23.0576316 29.8343916,23.8454245 30.7534834,24.3706198 C32.7886151,25.585134 33.806181,27.259194 33.806181,29.4256246 C33.806181,31.5264058 32.9855634,33.2004658 31.3443281,34.4149799 C29.7030928,35.5966694 27.3725386,36.2203388 24.3854903,36.2203388 C21.4969162,36.2203388 19.2320115,35.6623188 17.6236009,34.5462788 C15.6541185,33.1676411 14.5709032,31.0012105 14.4067797,28.0141622 L18.2144456,28.0141622 C18.4770432,29.7866964 19.1007126,31.0668599 20.1182785,31.8218282 C21.0373703,32.4783223 22.4488327,32.839394 24.3854903,32.839394 C26.0923751,32.839394 27.4710127,32.5439717 28.4557539,31.9859517 C29.4404951,31.395107 29.9656904,30.6401387 29.9656904,29.6553975 C29.9656904,28.4080587 29.2107222,27.4233175 27.7664351,26.701174 C27.3068892,26.471401 25.7969527,25.9462057 23.2038009,25.1584128 C20.3152268,24.239321 18.5098679,23.5828269 17.8205491,23.1889304 C16.0151903,22.1057151 15.1289232,20.5301292 15.1289232,18.4621727 C15.1289232,16.3942162 15.9823656,14.7529809 17.7548997,13.5712915 C19.396135,12.4224268 21.4640915,11.8644068 23.9915939,11.8644068 Z"/>
            <rect width="4.237" height="3.39" x="22.034" y="9.322" fill="#FFF"/>
            <rect width="4.237" height="3.39" x="22.034" y="35.593" fill="#FFF"/>
          </g>
          <path stroke="#E1E1E1" stroke-width="7" d="M81.1935602,103.39483 C69.0328713,89.6286367 64.1395051,75.9360264 66.5134616,62.3169991 C68.887418,48.6979718 78.4122905,39.7862179 95.088079,35.5817375" transform="scale(-1 1) rotate(-4 0 2374.992)"/>
        </g>
        <path fill="#F8BE5F" d="M63.9830508 0C66.7807129 9.88700565 71.7242157 14.8305085 78.8135593 14.8305085 71.7577933 14.8305085 66.8142905 19.7740113 63.9830508 29.6610169 61.4160925 19.7740113 56.4725897 14.8305085 49.1525424 14.8305085 56.4725897 14.8305085 61.4160925 9.88700565 63.9830508 0zM150.423729 18.6440678C152.422059 25.7062147 155.953132 29.2372881 161.016949 29.2372881 155.977116 29.2372881 152.446043 32.7683616 150.423729 39.8305085 148.590187 32.7683616 145.059114 29.2372881 139.830508 29.2372881 145.059114 29.2372881 148.590187 25.7062147 150.423729 18.6440678zM38.559322 39.8305085C40.5576521 46.8926554 44.0887255 50.4237288 49.1525424 50.4237288 44.1127095 50.4237288 40.5816361 53.9548023 38.559322 61.0169492 36.7257804 53.9548023 33.1947069 50.4237288 27.9661017 50.4237288 33.1947069 50.4237288 36.7257804 46.8926554 38.559322 39.8305085z"/>
      </g>
    </g>
  </g>
</svg>
