<svg id="圖層_1" data-name="圖層 1" xmlns="http://www.w3.org/2000/svg" xmlns:xlink="http://www.w3.org/1999/xlink" viewBox="0 0 260 264"><defs><style>.cls-1,.cls-2{fill:none;}.cls-1{clip-rule:evenodd;}.cls-3{clip-path:url(#clip-path);}.cls-4{clip-path:url(#clip-path-2);}.cls-5{fill:#fff;}.cls-6{clip-path:url(#clip-path-3);}.cls-7{clip-path:url(#clip-path-5);}.cls-8{clip-path:url(#clip-path-7);}.cls-9{opacity:0.6;isolation:isolate;}.cls-10{clip-path:url(#clip-path-10);}.cls-11{clip-path:url(#clip-path-11);}.cls-12{clip-path:url(#clip-path-13);}.cls-13{clip-path:url(#clip-path-15);}.cls-14{clip-path:url(#clip-path-17);}.cls-15{clip-path:url(#clip-path-20);}.cls-16{clip-path:url(#clip-path-21);}.cls-17{clip-path:url(#clip-path-23);}.cls-18{clip-path:url(#clip-path-25);}.cls-19{clip-path:url(#clip-path-27);}</style><clipPath id="clip-path"><path class="cls-1" d="M225,0h0a2.53,2.53,0,0,1,2.53,2.53V5.05a2.53,2.53,0,0,1-5.05,0V2.53A2.53,2.53,0,0,1,225,0Z"/></clipPath><clipPath id="clip-path-2"><rect class="cls-2" x="-263" y="-695" width="789" height="1285"/></clipPath><clipPath id="clip-path-3"><path class="cls-1" d="M225,16.42h0a2.53,2.53,0,0,1,2.53,2.53v2.53a2.53,2.53,0,0,1-5.05,0V18.95A2.53,2.53,0,0,1,225,16.42Z"/></clipPath><clipPath id="clip-path-5"><path class="cls-1" d="M231.95,9.47h2.53a2.53,2.53,0,1,1,0,5.05h-2.53a2.53,2.53,0,1,1,0-5.05Z"/></clipPath><clipPath id="clip-path-7"><path class="cls-1" d="M215.53,9.47h2.53a2.53,2.53,0,1,1,0,5.05h-2.53a2.53,2.53,0,1,1,0-5.05Z"/></clipPath><clipPath id="clip-path-10"><rect class="cls-2" x="240" y="194" width="20" height="20"/></clipPath><clipPath id="clip-path-11"><path class="cls-1" d="M249.5,194h0a2.5,2.5,0,0,1,2.5,2.5v3a2.5,2.5,0,0,1-5,0v-3A2.5,2.5,0,0,1,249.5,194Z"/></clipPath><clipPath id="clip-path-13"><path class="cls-1" d="M249.5,206h0a2.5,2.5,0,0,1,2.5,2.5v3a2.5,2.5,0,0,1-5,0v-3A2.5,2.5,0,0,1,249.5,206Z"/></clipPath><clipPath id="clip-path-15"><path class="cls-1" d="M254.5,201h3a2.5,2.5,0,0,1,0,5h-3a2.5,2.5,0,0,1,0-5Z"/></clipPath><clipPath id="clip-path-17"><path class="cls-1" d="M242.5,201h3a2.5,2.5,0,0,1,0,5h-3a2.5,2.5,0,0,1,0-5Z"/></clipPath><clipPath id="clip-path-20"><rect class="cls-2" y="244" width="20" height="20"/></clipPath><clipPath id="clip-path-21"><path class="cls-1" d="M9.5,244h0a2.5,2.5,0,0,1,2.5,2.5v3a2.5,2.5,0,0,1-5,0v-3A2.5,2.5,0,0,1,9.5,244Z"/></clipPath><clipPath id="clip-path-23"><path class="cls-1" d="M9.5,256h0a2.5,2.5,0,0,1,2.5,2.5v3a2.5,2.5,0,0,1-5,0v-3A2.5,2.5,0,0,1,9.5,256Z"/></clipPath><clipPath id="clip-path-25"><path class="cls-1" d="M14.5,251h3a2.5,2.5,0,0,1,0,5h-3a2.5,2.5,0,0,1,0-5Z"/></clipPath><clipPath id="clip-path-27"><path class="cls-1" d="M2.5,251h3a2.5,2.5,0,0,1,0,5h-3a2.5,2.5,0,0,1,0-5Z"/></clipPath></defs><title>工作區域 1</title><g class="cls-3"><g class="cls-4"><rect class="cls-5" x="217.47" y="-5" width="15.05" height="17.58"/></g></g><g class="cls-6"><g class="cls-4"><rect class="cls-5" x="217.47" y="11.42" width="15.05" height="17.58"/></g></g><g class="cls-7"><g class="cls-4"><rect class="cls-5" x="224.42" y="4.47" width="17.58" height="15.05"/></g></g><g class="cls-8"><g class="cls-4"><rect class="cls-5" x="208" y="4.47" width="17.58" height="15.05"/></g></g><g class="cls-4"><g class="cls-9"><g class="cls-10"><g class="cls-11"><g class="cls-10"><rect class="cls-5" x="242" y="189" width="15" height="18"/></g></g><g class="cls-12"><g class="cls-10"><rect class="cls-5" x="242" y="201" width="15" height="18"/></g></g><g class="cls-13"><g class="cls-10"><rect class="cls-5" x="247" y="196" width="18" height="15"/></g></g><g class="cls-14"><g class="cls-10"><rect class="cls-5" x="235" y="196" width="18" height="15"/></g></g></g></g></g><g class="cls-4"><g class="cls-9"><g class="cls-15"><g class="cls-16"><g class="cls-15"><rect class="cls-5" x="2" y="239" width="15" height="18"/></g></g><g class="cls-17"><g class="cls-15"><rect class="cls-5" x="2" y="251" width="15" height="18"/></g></g><g class="cls-18"><g class="cls-15"><rect class="cls-5" x="7" y="246" width="18" height="15"/></g></g><g class="cls-19"><g class="cls-15"><rect class="cls-5" x="-5" y="246" width="18" height="15"/></g></g></g></g></g></svg>