<svg xmlns="http://www.w3.org/2000/svg" width="959" height="449" viewBox="0 0 959 449">
    <g fill="none" fill-rule="evenodd">
        <g transform="translate(390 331)">
            <rect width="180" height="2" x="5" y="116" fill="#86CFCE" rx="1"/>
            <path fill="#B0F5F4" d="M20 36h150v80H20z"/>
            <path fill="#A6E8E3" d="M20 36h40v80H20z"/>
            <path fill="#FFF" d="M20 36h150v4H20z" opacity=".5"/>
            <path fill="#91E3E1" d="M150 0h40l-20 36h-40z"/>
            <path fill="#A6E8E3" d="M40 0H0l20 36h40z"/>
        </g>
        <path fill="#F77EBC" d="M7.33 131.997l7.713 9.192-6.895 5.785-7.713-9.192z" opacity=".6"/>
        <path fill="#F77EBC" d="M243.96 324.974l-8.485 8.485 6.364 6.364 8.485-8.485z" opacity=".4"/>
        <path fill="#FAC343" d="M54 131l-8 13.856 10.392 6 8-13.856z" opacity=".4"/>
        <path fill="#FAC343" d="M452.485 315l11.314 11.313-8.485 8.485L444 323.485z" opacity=".6"/>
        <path fill="#4668CB" d="M135.485 210l11.314 11.313-8.485 8.485L127 218.485z" opacity=".4"/>
        <path fill="#4668CB" fill-opacity=".404" d="M51.148 12.997l-7.714 9.192 6.895 5.785 7.713-9.192z"/>
        <path fill="#4668CB" fill-opacity=".8" d="M336.284 277L326 289.257l9.192 7.713 10.285-12.256z"/>
        <path fill="#4668CB" fill-opacity=".597" d="M759.284 291L749 303.257l9.192 7.713 10.285-12.256z" opacity=".6"/>
        <path fill="#4668CB" fill-opacity=".597" d="M179.284 0L169 12.257l9.192 7.713 10.285-12.256z" opacity=".4"/>
        <path fill="#4668CB" fill-opacity=".403" d="M869.193 141l10.284 12.257-9.192 7.713L860 148.714z"/>
        <path fill="#FAC343" d="M911.093 23.982l6 10.392-7.794 4.5-6-10.392z" opacity=".4"/>
        <path fill="#FFF" d="M491.96 155.974l-8.485 8.485 6.364 6.364 8.485-8.485z" opacity=".804"/>
        <path fill="#4668CB" fill-opacity=".796" d="M538.392 327l8 13.856-10.392 6L528 333z"/>
        <path fill="#F77EBC" d="M646.314 245L635 256.312l8.485 8.485 11.314-11.313z" opacity=".6"/>
        <path fill="#F77EBC" d="M786.314 15L775 26.312l8.485 8.485L794.8 23.485z" opacity=".4"/>
        <path fill="#F77EBC" d="M951.96 171.974l-8.485 8.485 6.364 6.364 8.485-8.485z" opacity=".601"/>
        <path fill="#F77EBC" d="M554.33 245.997l7.713 9.192-6.895 5.785-7.713-9.192z" opacity=".396"/>
        <path stroke="#FAC343" stroke-width="6" d="M634.243 337.33c5.182-8.975 14.322-4.065 19.306-12.697 4.984-8.632-.389-12.085 4.445-20.458 3.223-5.582 10.328-8.004 21.314-7.265" opacity=".75"/>
        <path stroke="#F796C5" stroke-width="6" d="M795.498 53.077c-.438 8.371-14.042 8.885-14.464 16.936-.422 8.051 4.457 8.083 4.047 15.893-.272 5.206-4.66 9.552-13.164 13.038" opacity=".503"/>
        <path stroke="#FAC343" stroke-width="6" d="M402.159 262.284c-.801 8.724.175 14.913 2.929 18.567 4.13 5.48 6.804 3.228 10.81 8.544 2.67 3.545 2.635 8.442-.108 14.694" opacity=".502"/>
        <path stroke="#F77EBC" stroke-width="6" d="M115.42 105.876c2.232 8.472 5.266 13.953 9.103 16.445 5.756 3.738 7.498.706 13.081 4.332 3.722 2.417 5.363 7.032 4.924 13.844" opacity=".3"/>
        <path stroke="#90A4E0" stroke-width="6" d="M329.41 350.391c-10.288-1.814-8.786-12.182-18.68-13.926-9.895-1.745-11.316 4.545-20.914 2.853-6.398-1.129-11.14-7.032-14.226-17.71" opacity=".75"/>
    </g>
</svg>
