<svg xmlns="http://www.w3.org/2000/svg" xmlns:xlink="http://www.w3.org/1999/xlink" width="320" height="266" viewBox="0 0 320 266">
  <defs>
    <rect id="禮物@1x-a" width="320" height="266"/>
  </defs>
  <g fill="none" fill-rule="evenodd">
    <mask id="禮物@1x-b" fill="#fff">
      <use xlink:href="#禮物@1x-a"/>
    </mask>
    <g mask="url(#禮物@1x-b)">
      <g transform="translate(-140)">
        <g transform="translate(241.25 192.5)">
          <rect width="112.5" height="1.25" x="3.125" y="72.5" fill="#86CFCE" rx=".625"/>
          <rect width="93.75" height="50" x="12.5" y="22.5" fill="#B0F5F4"/>
          <rect width="25" height="50" x="12.5" y="22.5" fill="#A6E8E3"/>
          <rect width="93.75" height="2.5" x="12.5" y="22.5" fill="#FFF" opacity=".5"/>
          <polygon fill="#91E3E1" points="93.75 0 118.75 0 106.25 22.5 81.25 22.5"/>
          <polygon fill="#A6E8E3" points="12.5 0 37.5 0 25 22.5 0 22.5" transform="matrix(-1 0 0 1 37.5 0)"/>
        </g>
        <g transform="translate(.625)">
          <rect width="7.5" height="5.625" x="1.087" y="69.991" fill="#F77EBC" opacity=".6" transform="rotate(50 4.837 72.803)"/>
          <rect width="7.5" height="5.625" x="148.062" y="190.562" fill="#F77EBC" opacity=".4" transform="scale(-1 1) rotate(45 0 -173.132)"/>
          <rect width="10" height="7.5" x="61.373" y="138.705" fill="#FAC343" opacity=".4" transform="scale(-1 1) rotate(60 0 27.494)"/>
          <rect width="10" height="7.5" x="278.687" y="184.937" fill="#FAC343" opacity=".6" transform="rotate(45 283.687 188.687)"/>
          <rect width="10" height="7.5" x="30.562" y="106.812" fill="#FFF" transform="rotate(45 35.562 110.562)"/>
          <rect width="7.5" height="5.625" x="52.962" y="16.241" fill="#4668CB" fill-opacity=".404" transform="scale(-1 1) rotate(50 0 -102.565)"/>
          <rect width="10" height="7.5" x="204.837" y="161.241" fill="#4668CB" fill-opacity=".8" transform="scale(-1 1) rotate(50 0 -285.005)"/>
          <rect width="10" height="7.5" x="469.212" y="169.991" fill="#4668CB" fill-opacity=".597" opacity=".6" transform="scale(-1 1) rotate(50 0 -843.21)"/>
          <rect width="10" height="7.5" x="262.962" y="93.116" fill="#4668CB" fill-opacity=".597" opacity=".6" transform="scale(-1 1) rotate(50 0 -477.78)"/>
          <rect width="10" height="7.5" x="538.587" y="76.241" fill="#4668CB" fill-opacity=".403" transform="rotate(50 543.587 79.99)"/>
          <rect width="7.5" height="5.625" x="565.123" y="2.455" fill="#FAC343" opacity=".4" transform="rotate(60 568.873 5.268)"/>
          <rect width="7.5" height="5.625" x="303.062" y="84.937" fill="#FFF" opacity=".804" transform="scale(-1 1) rotate(45 0 -652.96)"/>
          <rect width="10" height="7.5" x="330.748" y="192.455" fill="#4668CB" fill-opacity=".796" transform="rotate(60 335.748 196.205)"/>
          <rect width="10" height="7.5" x="398.062" y="141.187" fill="#F77EBC" opacity=".6" transform="scale(-1 1) rotate(45 0 -828.141)"/>
          <rect width="7.5" height="5.625" x="590.562" y="94.937" fill="#F77EBC" transform="scale(-1 1) rotate(45 0 -1337.047)"/>
          <rect width="7.5" height="5.625" x="342.962" y="141.241" fill="#F77EBC" opacity=".396" transform="rotate(50 346.712 144.053)"/>
          <path stroke="#FAC343" stroke-width="3.75" d="M404.60443,165.844578 C404.60443,172.321757 411.086136,172.520444 411.086136,178.75 C411.086136,184.979556 407.09914,185.169699 407.09914,191.212335 C407.09914,195.24076 410.187807,198.771721 416.365141,201.805221" opacity=".75" transform="scale(1 -1) rotate(-30 -275.56 0)"/>
          <path stroke="#F796C5" stroke-width="3.75" d="M333.208215,93.4320239 C333.208215,98.671222 341.68216,99.4367059 341.68216,104.47561 C341.68216,109.514514 338.636004,109.375154 338.636004,114.262864 C338.636004,117.521337 341.232717,120.377428 346.426143,122.831136" opacity=".75" transform="scale(-1 1) rotate(-3 0 13085.226)"/>
          <path stroke="#FAC343" stroke-width="3.75" d="M251.149017,149.61969 C254.830103,153.673012 256.670647,157.129406 256.670647,159.98887 C256.670647,164.278067 254.488513,164.159442 254.488513,168.31994 C254.488513,171.093605 256.348685,173.524756 260.06903,175.613392" opacity=".502" transform="scale(-1 1) rotate(37 0 -601.318)"/>
          <path stroke="#90A4E0" stroke-width="3.75" d="M183.125,177.5 C183.125,184.029297 189.669695,184.229583 189.669695,190.509265 C189.669695,196.788948 185.643953,196.98062 185.643953,203.071879 C185.643953,207.132718 188.762636,210.692092 195,213.75" opacity=".75" transform="scale(1 -1) rotate(80 422.2 0)"/>
        </g>
      </g>
    </g>
  </g>
</svg>
