<svg xmlns="http://www.w3.org/2000/svg" xmlns:xlink="http://www.w3.org/1999/xlink" width="380" height="240" viewBox="0 0 380 240">
    <defs>
        <path id="a" d="M8 0h364a8 8 0 0 1 8 8v232H0V8a8 8 0 0 1 8-8z"/>
        <circle id="c" cx="102.917" cy="102.917" r="102.917"/>
        <path id="e" d="M31.25.88h62.5C111.009.88 125 16.042 125 34.745v76.968H0V34.745C0 16.042 13.991.88 31.25.88z"/>
    </defs>
    <g fill="none" fill-rule="evenodd">
        <mask id="b" fill="#fff">
            <use xlink:href="#a"/>
        </mask>
        <use fill="#279FBC" xlink:href="#a"/>
        <g mask="url(#b)">
            <g transform="translate(86.833 23.75)">
                <mask id="d" fill="#fff">
                    <use xlink:href="#c"/>
                </mask>
                <use fill="#FFF" opacity=".195" xlink:href="#c"/>
                <g mask="url(#d)">
                    <g fill="#CAD3F0" transform="translate(28.167 13.312)">
                        <rect width="58.333" height="5.864" rx="2.932"/>
                        <rect width="11.111" height="5.864" x="63.889" rx="2.932"/>
                    </g>
                </g>
                <g mask="url(#d)" opacity=".2">
                    <g fill="#CAD3F0" transform="translate(14.167 139.861)">
                        <rect width="8.333" height="5.864" rx="2.932"/>
                        <rect width="5.556" height="5.864" x="125.556" rx="2.778"/>
                        <rect width="19.444" height="5.864" x="103.333" rx="2.932"/>
                        <rect width="30.556" height="5.864" x="11.111" rx="2.932"/>
                        <rect width="27.778" height="5.864" x="142.222" rx="2.932"/>
                    </g>
                </g>
                <g mask="url(#d)" opacity=".2">
                    <g fill="#CAD3F0" transform="matrix(-1 0 0 1 174.278 25.04)">
                        <rect width="30.556" height="5.864" rx="2.932"/>
                        <rect width="27.778" height="5.864" x="58.333" rx="2.932"/>
                        <rect width="8.333" height="5.864" x="44.444" rx="2.932"/>
                        <rect width="13.889" height="5.864" x="100" rx="2.932"/>
                    </g>
                </g>
                <g mask="url(#d)" opacity=".2">
                    <g fill="#CAD3F0" transform="matrix(-1 0 0 1 170.278 167.54)">
                        <rect width="30.556" height="5.864" rx="2.932"/>
                        <rect width="27.778" height="5.864" x="58.333" rx="2.932"/>
                        <rect width="8.333" height="5.864" x="44.444" rx="2.932"/>
                        <rect width="13.889" height="5.864" x="100" rx="2.932"/>
                    </g>
                </g>
                <g mask="url(#d)">
                    <g fill="#CAD3F0" transform="matrix(-1 0 0 1 219.056 104.207)">
                        <rect width="38.56" height="5.864" rx="2.932"/>
                        <rect width="13.889" height="5.864" x="231.333" rx="2.932"/>
                        <rect width="20" height="5.864" x="207.333" rx="2.932"/>
                        <rect width="29" height="5.864" x="173.333" rx="2.932"/>
                        <rect width="8.333" height="5.864" x="42.889" rx="2.932"/>
                    </g>
                </g>
                <g mask="url(#d)">
                    <g fill="#CAD3F0" transform="translate(-19.056 80.75)">
                        <rect width="41.667" height="5.864" rx="2.932"/>
                        <rect width="30.556" height="5.864" x="194.333" rx="2.932"/>
                        <rect width="5.556" height="5.864" x="50.444" rx="2.778"/>
                        <rect width="13.889" height="5.864" x="100" rx="2.932"/>
                    </g>
                </g>
                <g mask="url(#d)">
                    <g fill="#CAD3F0" transform="matrix(-1 0 0 1 194.056 154.052)">
                        <rect width="5.556" height="5.864" x="12.111" rx="2.778"/>
                        <rect width="30.556" height="5.864" x="157.778" rx="2.932"/>
                        <rect width="27.778" height="5.864" x="20.444" rx="2.932"/>
                        <rect width="8.333" height="5.864" rx="2.932"/>
                        <rect width="13.889" height="5.864" x="98.222" rx="2.932"/>
                    </g>
                </g>
                <g mask="url(#d)">
                    <g fill="#CAD3F0" transform="matrix(-1 0 0 1 197.611 45.565)">
                        <rect width="41.667" height="5.864" rx="2.932"/>
                        <rect width="19.444" height="5.864" x="166.667" rx="2.932"/>
                        <rect width="13.889" height="5.864" x="147.222" rx="2.932"/>
                        <rect width="5.556" height="5.864" x="138.889" rx="2.778"/>
                        <rect width="16.667" height="5.864" x="44.444" rx="2.932"/>
                    </g>
                </g>
                <g mask="url(#d)" opacity=".496">
                    <g fill="#CAD3F0" transform="translate(-7.944 118.867)">
                        <rect width="41.667" height="5.864" rx="2.932"/>
                        <rect width="19.444" height="5.864" x="186.111" rx="2.932"/>
                        <rect width="13.889" height="5.864" x="169.444" rx="2.932"/>
                        <rect width="5.556" height="5.864" x="158.333" rx="2.778"/>
                        <rect width="16.667" height="5.864" x="44.444" rx="2.932"/>
                    </g>
                </g>
            </g>
        </g>
        <g mask="url(#b)">
            <path fill="#FFF" d="M209.444 139.685v11.729h-38.888v-11.729h-19.723c-1.534 0-2.777-1.363-2.777-3.045v-22.757H140c-1.534 0-2.778-1.34-2.778-2.991V86.966c0-1.652 1.244-2.99 2.778-2.99h8.056V63.562c0-1.681 1.243-3.044 2.777-3.044h77.778c1.534 0 2.778 1.363 2.778 3.044V83.39h8.333c1.534 0 2.778 1.339 2.778 2.99v23.927c0 1.651-1.244 2.99-2.778 2.99h-8.333v23.344c0 1.682-1.244 3.045-2.778 3.045h-19.167z"/>
            <path fill="#2AD3B8" d="M170.833 83.389c6.904 0 12.5 5.907 12.5 13.194 0 7.287-5.596 13.195-12.5 13.195-6.903 0-12.5-5.908-12.5-13.195s5.597-13.194 12.5-13.194zM209.167 83.389c6.903 0 12.5 5.907 12.5 13.194 0 7.287-5.597 13.195-12.5 13.195-6.904 0-12.5-5.908-12.5-13.195s5.596-13.194 12.5-13.194z"/>
            <g transform="translate(127.222 144.963)">
                <mask id="f" fill="#fff">
                    <use xlink:href="#e"/>
                </mask>
                <use fill="#FFF" xlink:href="#e"/>
                <path fill="#279FBC" d="M18.556 58.056h85.888V0h3v108.722h-3v-47.5H18.556v48.108h-3V.607h3v57.449z" mask="url(#f)"/>
            </g>
            <path fill="#2AD3B8" d="M182.333 162.673h3.556a1 1 0 0 1 1 1v21.457a1 1 0 0 1-1 1h-3.556a1 1 0 0 1-1-1v-21.457a1 1 0 0 1 1-1zm-11.11 5.864h3.555a1 1 0 0 1 1 1v9.728a1 1 0 0 1-1 1h-3.556a1 1 0 0 1-1-1v-9.728a1 1 0 0 1 1-1zm22.221-8.796H197a1 1 0 0 1 1 1v27.32a1 1 0 0 1-1 1h-3.556a1 1 0 0 1-1-1v-27.32a1 1 0 0 1 1-1zm11.112 5.864h3.555a1 1 0 0 1 1 1v15.593a1 1 0 0 1-1 1h-3.555a1 1 0 0 1-1-1v-15.593a1 1 0 0 1 1-1z"/>
        </g>
    </g>
</svg>
