<?xml version="1.0" encoding="utf-8"?>
<!-- Generator: Adobe Illustrator 22.0.0, SVG Export Plug-In . SVG Version: 6.00 Build 0)  -->
<svg version="1.1" id="圖層_1" xmlns="http://www.w3.org/2000/svg" xmlns:xlink="http://www.w3.org/1999/xlink" x="0px" y="0px"
	 viewBox="0 0 210.7 33.9" style="enable-background:new 0 0 210.7 33.9;" xml:space="preserve">
<style type="text/css">
	.st0{fill:#FFFFFF;}
</style>
<title>logo</title>
<g id="圖層_2_1_">
	<g id="圖層_1-2">
		<path class="st0" d="M119.1,19.1v3.6h-15.8v-4.9h13.8C119.2,17.7,119.1,19.1,119.1,19.1z M106.3,21.7h9.8v-2h-9.8
			C106.3,19.7,106.3,21.7,106.3,21.7z M100.4,33.5v-9.8H119c1.1,0.1,2,1,2.1,2.2v7.7H118v-0.7h-14.5v0.7L100.4,33.5z M112.2,27.2
			h5.9v-1.6h-5.9V27.2z M103.4,27.2h5.9v-1.6h-5.9V27.2z M112.2,31.1h5.9v-1.6h-5.9V31.1z M103.4,31.1h5.9v-1.6h-5.9V31.1z"/>
		<g>
			<path class="st0" d="M103.4,16.7h15.8v-2h-15.8V16.7z"/>
		</g>
		<g>
			<path class="st0" d="M99.4,16.7v-6.3h10.3V8.9h3.1v1.5h8.1c0,0,2.1,0.1,2.1,1.9v4.5h-2.8v-3.6h-17.8v3.6H99.4z M149.4,18.3
				l1.9-6.4c0.2-0.9-0.4-1.8-1.3-2c-0.1,0-0.2,0-0.3,0h-7.8v23.6h2.9v-4.3c0,0,0.9,1.3,1.3,2c0.8,0,1.6-0.2,2.3-0.6
				c1.9-1,3.1-2.8,3.4-5C151.8,23,151,20.4,149.4,18.3 M148.5,25.9c-0.4,1.1-1.2,2-2.3,2.5c-0.5,0.2-1,0.2-1.5,0.1V12.8h3.3
				c-0.5,2-1.1,4.2-1.7,6.2c0.2,0.4,0.6,0.7,0.8,1.1C148.1,21.8,149,23.7,148.5,25.9 M140.8,20.1V17h-4.1v-2.4h4v-3h-4V8.9h-3.1v2.8
				H129v3h4.6V17H129v3h4.6v2.3H129v3.1h4.5c-0.2,2.2-1.2,4.2-2.8,5.7l1.7,2.4c4.1-2.4,4.3-8,4.3-8h4v-3.1h-4.1v-2.2L140.8,20.1z
				 M42.3,32.5V21.7h18.5c0.3,0,0.6,0.1,0.9,0.3c0.7,0.3,1.2,1,1.2,1.7v8.8h-3.5v-0.6H45.9v0.6L42.3,32.5z M46.3,29.5h13.8v-4.9
				H46.3V29.5z M46.5,20.6h-5.2v-3.2l6-7.6h3.9L45,17.6h14.1c0.5,0,0.7-0.3,0.5-1l-2.8-4.5h3.7l3.2,5.1c0.9,2.3,0.3,3.4-1.8,3.4
				L46.5,20.6z M76.6,9.8h3.2v20.2c0.2,1.2-0.6,2.2-1.8,2.4c-0.2,0-0.4,0-0.6,0h-7.5v-3.1H76c0.3,0,0.6-0.2,0.6-0.5
				c0-0.1,0-0.1,0-0.2v-8.9h-6.7v-3.1h6.7V9.8L76.6,9.8z M87,28.8v-6.2c2.7-1.8,5.2-3.9,7.5-6.2L92.4,14c-1.7,1.7-3.5,3.3-5.4,4.7
				V9.8h-3.3v20.2c-0.2,1.2,0.7,2.3,1.9,2.4c0.2,0,0.4,0,0.6,0h7.8v-3.1h-6.3c-0.3,0-0.6-0.2-0.6-0.5C87,28.9,87,28.8,87,28.8
				 M181.8,31.3c-1.5-1-2.9-2.3-4.1-3.7c1.3-1,2.6-2.1,3.7-3.3l0.2-0.2l-1.7-1.9l-0.2,0.2c-1,1-2,2-3.2,2.9
				c-0.4-1.1-0.6-2.1-0.7-3.3h3.6c0.5,0,0.9-0.3,0.9-0.8c0,0,0-0.1,0-0.1V10.7c0-0.4-0.3-0.8-0.7-0.9c0,0-0.1,0-0.1,0h-9.6
				c-0.4,0-0.8,0.3-0.8,0.7c0,0,0,0.1,0,0.1v19.8l-1.7,0.4l0.1,0.3l0.6,2.2h0.2c2.5-0.5,4.9-1.3,7.3-2.3l0.2-0.1l-0.8-2.5l-0.3,0.1
				c-0.9,0.4-1.9,0.8-3.1,1.1v-7.7h1.7c0.1,2.9,1.2,5.7,3,7.9c1,1.2,2.2,2.3,3.4,3.2l0.2,0.1l2.2-1.8L181.8,31.3z M177,18.7h-5.7v-2
				h5.9v1.7C177.2,18.7,177.2,18.7,177,18.7z M171.3,14.8V13v-0.1h0.2h5.5c0.1,0,0.2,0,0.2,0.2v1.8L171.3,14.8z"/>
		</g>
		<g>
			<path class="st0" d="M167.8,30.7l-9.5,1.8l-0.9-2.7l4-0.6V28c0,0-1.8,0.3-2-0.2c-0.6-1.4-1.2-2.9-1.8-4.4h2.7
				c0.2,0.4,1,2.3,1.2,2.7V22h-4v-2.5h4V18h-2.6v-2.1l-0.5,0.4l-1.8-2c2.2-1.5,4.1-3.3,5.6-5.4h1.5c1.5,2.2,3.4,4,5.7,5.4l-2,2
				l-0.4-0.4V18h-2.7v1.5h3.8V22h-3.8v3.2c0.5-0.6,1-1.3,1.4-1.9h2.6c-0.6,1.2-1.3,2.4-2.1,3.5c-0.6,0.4-1.2,0.6-1.9,0.8v1.1
				l3.2-0.6c0,0,0.4,1.8,0.4,1.8 M162.9,11.8c-1,1.4-2.1,2.8-3.4,3.9h6.9C165.1,14.6,164,13.2,162.9,11.8 M196.9,12.8h12.8v-3h-12.8
				L196.9,12.8z M210.7,19.7v-3h-14.8v3h8.6V29c0,0.4-0.1,0.7-0.3,1c-0.2,0.2-0.4,1-3,0.9l1.3,2.4c1.5,0.4,3.2-0.2,4.1-1.4
				c0.4-0.7,0.7-1.5,0.7-2.3v-10L210.7,19.7z M190.1,23.7c-0.5,0.5-1.1,1-1.7,1.5l-2.3-1.9c2.7-2,4.8-4.5,6.3-7.5l2.5,1.2
				c-0.6,1.1-1.3,2.2-2,3.2v13.2H190L190.1,23.7z M191.2,8.9L194,10c-1.2,3-3.1,5.6-5.4,7.8l-2.5-1.8
				C188.3,14.1,190.1,11.6,191.2,8.9L191.2,8.9z M24.4,16.6L24.4,16.6c0,0,0,0.1,0.3,0.3c1.9,1.3,2.9,3.4,2.7,5.6
				c-0.1,3.5-3.1,6.2-6.6,6.1c0,0,0,0,0,0v4.9c6.1,0,11.6-4.3,11.6-10.5c0-2.3-0.7-4.6-2.1-6.5c0.2-0.3,0.5-0.6,0.7-0.9
				c0.4-0.6,0.4-1.4,0.4-4.1V0H15.8v9.2h-5v5h10.1v-9h5.6V13C26.6,14.5,25.8,15.9,24.4,16.6"/>
		</g>
		<g>
			<path class="st0" d="M10.8,0H9.3C6.6-0.1,4,1,2.1,3C0.2,5.2,0,7.2,0,10.4v23.1h15.7v-9.1h5v-5.1h-10v9.1H5V9.3
				c0,0-0.4-4.2,4.6-4.3L10.8,5V0z"/>
		</g>
	</g>
</g>
</svg>
