<svg xmlns="http://www.w3.org/2000/svg" width="239" height="239" viewBox="0 0 239 239">
    <defs>
        <filter id="a" width="130.5%" height="130.5%" x="-15.2%" y="-14.8%" filterUnits="objectBoundingBox">
            <feOffset dy="1" in="SourceAlpha" result="shadowOffsetOuter1"/>
            <feGaussianBlur in="shadowOffsetOuter1" result="shadowBlurOuter1" stdDeviation="10"/>
            <feColorMatrix in="shadowBlurOuter1" result="shadowMatrixOuter1" values="0 0 0 0 0 0 0 0 0 0 0 0 0 0 0 0 0 0 0.2 0"/>
            <feMerge>
                <feMergeNode in="shadowMatrixOuter1"/>
                <feMergeNode in="SourceGraphic"/>
            </feMerge>
        </filter>
    </defs>
    <g fill="none" fill-rule="nonzero" filter="url(#a)" transform="translate(20 19)">
        <circle cx="99.346" cy="99.346" r="99.346" fill="#9CF4F2"/>
        <path fill="#FFF" d="M100.261 0C70.065 0 43.007 13.464 24.837 34.771 42.222 19.87 64.706 10.85 89.412 10.85c54.771 0 99.346 44.444 99.346 99.346 0 24.706-9.02 47.19-23.921 64.575 21.307-18.17 34.77-45.229 34.77-75.425C199.478 44.444 155.034 0 100.262 0z" opacity=".6"/>
        <path fill="#62C9C7" d="M115.033 183.53c-54.772 0-99.347-44.445-99.347-99.347 0-23.399 8.105-44.967 21.7-61.96C14.64 40.392 0 68.365 0 99.868c0 54.772 44.444 99.347 99.346 99.347 31.373 0 59.347-14.64 77.647-37.386-17.124 13.595-38.562 21.7-61.96 21.7z"/>
    </g>
</svg>
