<svg xmlns="http://www.w3.org/2000/svg" xmlns:xlink="http://www.w3.org/1999/xlink" width="72" height="72" viewBox="0 0 72 72">
    <defs>
        <circle id="a" cx="36" cy="36" r="36"/>
    </defs>
    <g fill="none" fill-rule="evenodd">
        <mask id="b" fill="#fff">
            <use xlink:href="#a"/>
        </mask>
        <use fill="#2FB153" opacity=".9" xlink:href="#a"/>
        <circle cx="36" cy="36" r="32" stroke="#FFF" mask="url(#b)" opacity=".404"/>
        <circle cx="36" cy="36" r="28" stroke="#FFF" mask="url(#b)" opacity=".404"/>
        <circle cx="36" cy="36" r="24" stroke="#FFF" mask="url(#b)" opacity=".404"/>
        <g mask="url(#b)">
            <path fill="#CAD3F0" d="M39 44h12v12H39z"/>
            <path fill="#FFF" d="M54 21h-4v-8a2 2 0 1 1 4 0v8zm0 1v5h-4v-5h4z"/>
            <path fill="#CAD3F0" d="M16 24h20v24H16V33.6L8 24h8z"/>
            <path fill="#FAC343" d="M18 26h16v20H18z"/>
            <path fill="#FFF" d="M18 35l7 11h-7z" opacity=".5"/>
            <path fill="#FFF" d="M36 36L26 24h38v24H36V36z"/>
        </g>
        <path fill="#FAC343" d="M42.692 11.192h3.5l-2.5 10-2-8h-3.5l2.5-10 2 8z" mask="url(#b)" transform="scale(-1 1) rotate(30 0 -145.272)"/>
    </g>
</svg>
