<svg xmlns="http://www.w3.org/2000/svg" xmlns:xlink="http://www.w3.org/1999/xlink" width="72" height="72" viewBox="0 0 72 72">
    <defs>
        <circle id="a" cx="36" cy="36" r="36"/>
        <path id="c" d="M22 26.4L0 0h50L28 26.4V40l-6-5v-8.6z"/>
    </defs>
    <g fill="none" fill-rule="evenodd">
        <mask id="b" fill="#fff">
            <use xlink:href="#a"/>
        </mask>
        <use fill="#2FB153" opacity=".9" xlink:href="#a"/>
        <rect width="5" height="11" x="34" y="52" fill="#FAC343" mask="url(#b)" rx="2.5"/>
        <g fill="#FFF" mask="url(#b)">
            <g transform="rotate(-90 27.5 10)">
                <path d="M27 7a1 1 0 1 1 0 2 1 1 0 0 1 0-2zM41 20h-9a1 1 0 0 0 0 2h9a1 1 0 0 0 0-2zm-22 0h-8a1 1 0 0 0 0 2h8a1 1 0 0 0 0-2zm8 0h-1a1 1 0 0 0 0 2h1a1 1 0 0 0 0-2zM4 20H1a1 1 0 0 0 0 2h3a1 1 0 0 0 0-2z" opacity=".6"/>
                <rect width="11" height="2" x="23" y="12" opacity=".197" rx="1"/>
                <path d="M28 37a1 1 0 1 0 0 2 1 1 0 0 0 0-2zm-3 0h-8a1 1 0 0 0 0 2h8a1 1 0 0 0 0-2zm7 0h-1a1 1 0 0 0 0 2h1a1 1 0 0 0 0-2z" opacity=".4"/>
                <path d="M37 33H26a1 1 0 0 0 0 2h11a1 1 0 0 0 0-2zm-14 0h-8a1 1 0 0 0 0 2h8a1 1 0 0 0 0-2z" opacity=".205"/>
                <path d="M34 0H21a1 1 0 0 0 0 2h13a1 1 0 0 0 0-2zM18 0h-4a1 1 0 0 0 0 2h4a1 1 0 0 0 0-2zM29 25h5a1 1 0 0 1 0 2h-5a1 1 0 0 1 0-2zm-6 0h3a1 1 0 0 1 0 2h-3a1 1 0 0 1 0-2zm-4 0a1 1 0 1 1 0 2 1 1 0 0 1 0-2z" opacity=".4"/>
            </g>
        </g>
        <g mask="url(#b)">
            <g transform="translate(11 20)">
                <mask id="d" fill="#fff">
                    <use xlink:href="#c"/>
                </mask>
                <use fill="#B5DBFA" xlink:href="#c"/>
                <path fill="#FFF" d="M-2 0h54v8H-2z" mask="url(#d)" opacity=".797"/>
                <path fill="#FFF" d="M-4 8h54v8H-4z" mask="url(#d)" opacity=".4"/>
            </g>
        </g>
    </g>
</svg>
