<svg xmlns="http://www.w3.org/2000/svg" xmlns:xlink="http://www.w3.org/1999/xlink" width="72" height="72" viewBox="0 0 72 72">
    <defs>
        <circle id="a" cx="36" cy="36" r="36"/>
    </defs>
    <g fill="none" fill-rule="evenodd">
        <mask id="b" fill="#fff">
            <use xlink:href="#a"/>
        </mask>
        <use fill="#2FB153" opacity=".9" xlink:href="#a"/>
        <circle cx="36" cy="36" r="22" stroke="#FFF" mask="url(#b)" opacity=".1"/>
        <circle cx="36" cy="36" r="19" stroke="#FFF" mask="url(#b)" opacity=".15"/>
        <circle cx="36" cy="36" r="16" stroke="#FFF" mask="url(#b)" opacity=".3"/>
        <circle cx="36" cy="36" r="13" stroke="#FFF" mask="url(#b)" opacity=".45"/>
        <g mask="url(#b)">
            <g transform="translate(-4 -4)">
                <path fill="#FFF" d="M18.342 42.044v2.459a1 1 0 0 1-1.453.892l-8.876-4.503a1 1 0 0 1 0-1.784l8.876-4.503a1 1 0 0 1 1.453.892v2.46h44.316v-2.46a1 1 0 0 1 1.453-.892l8.876 4.503a1 1 0 0 1 0 1.784l-8.876 4.503a1 1 0 0 1-1.453-.892v-2.46H18.342z"/>
                <path fill="#FFF" d="M29.465 59.323l2.014 1.41a1 1 0 0 1-.103 1.702l-8.78 4.688a1 1 0 0 1-1.46-1.023l1.402-9.853a1 1 0 0 1 1.564-.679l2.014 1.41 25.42-36.301-2.015-1.41a1 1 0 0 1 .102-1.702l8.78-4.688a1 1 0 0 1 1.461 1.023l-1.402 9.853a1 1 0 0 1-1.564.679l-2.014-1.41-25.42 36.301z"/>
                <path fill="#FFF" d="M51.535 59.323l-2.014 1.41a1 1 0 0 0 .103 1.702l8.78 4.688a1 1 0 0 0 1.46-1.023l-1.402-9.853a1 1 0 0 0-1.564-.679l-2.014 1.41-25.42-36.301 2.015-1.41a1 1 0 0 0-.102-1.702l-8.78-4.688a1 1 0 0 0-1.461 1.023l1.402 9.853a1 1 0 0 0 1.564.679l2.014-1.41 25.42 36.301z"/>
                <circle cx="40" cy="40" r="10" fill="#FAC343"/>
                <path fill="#FFF" d="M40.956 35.024c1.656.271 2.58 1.22 2.752 2.87h-1.91c-.138-.468-.344-.81-.62-.99-.292-.198-.74-.288-1.341-.288-.517 0-.912.072-1.17.234-.31.162-.448.414-.448.774 0 .288.224.558.706.774.292.126.877.306 1.772.54.998.252 1.755.54 2.236.882.706.468 1.067 1.134 1.067 1.962 0 1.725-1.019 2.699-3.044 2.92V46h-1.912v-1.309c-1.87-.258-2.88-1.333-3.044-3.215h1.91c.103.594.31 1.008.602 1.26.292.216.757.342 1.41.342 1.377 0 2.065-.396 2.065-1.152 0-.432-.258-.774-.774-1.026-.275-.144-.86-.306-1.755-.522-1.05-.252-1.79-.522-2.22-.81-.687-.45-1.032-1.08-1.032-1.89 0-.864.327-1.53 1.016-1.998.493-.37 1.098-.595 1.822-.688V34h1.912v1.024z"/>
            </g>
        </g>
    </g>
</svg>
