<svg id="圖層_1" data-name="圖層 1" xmlns="http://www.w3.org/2000/svg" viewBox="0 0 31.53 31.53"><defs><style>.cls-1{fill:#fff;stroke:#4668cb;}.cls-2{fill:#4668cb;}</style></defs><title>notice</title><circle class="cls-1" cx="15.77" cy="15.77" r="15.27"/><path class="cls-2" d="M16,7.41h0a1,1,0,0,1,.95,1V19.82a1,1,0,0,1-.95.95h0a1,1,0,0,1-.95-.95V8.37A1,1,0,0,1,16,7.41Z" transform="translate(-0.23 -0.23)"/><path class="cls-2" d="M16,22.68h0a1,1,0,0,1,.95.95h0a1,1,0,0,1-.95,1h0a1,1,0,0,1-.95-1h0A1,1,0,0,1,16,22.68Z" transform="translate(-0.23 -0.23)"/></svg>