<svg xmlns="http://www.w3.org/2000/svg" xmlns:xlink="http://www.w3.org/1999/xlink" width="380" height="240" viewBox="0 0 380 240">
    <defs>
        <path id="a" d="M8 0h364a8 8 0 0 1 8 8v232H0V8a8 8 0 0 1 8-8z"/>
    </defs>
    <g fill="none" fill-rule="evenodd">
        <mask id="b" fill="#fff">
            <use xlink:href="#a"/>
        </mask>
        <use fill="#2FB153" xlink:href="#a"/>
        <g mask="url(#b)">
            <g transform="translate(80 -2890.006)">
                <ellipse cx="110" cy="3024.378" fill="#FFF" opacity=".2" rx="110" ry="110.306"/>
                <path fill="#FFF" fill-rule="nonzero" d="M51.612 2940.504a2 2 0 1 1 2.296 3.275c-18.517 12.985-32.106 32.03-38.248 53.896a2 2 0 0 1-3.85-1.082c6.392-22.759 20.533-42.577 39.802-56.089zm156.728 56.625a2 2 0 0 1-3.857 1.06C192.86 2955.922 154.365 2926.1 110 2926.1c-12.045 0-23.788 2.18-34.807 6.379a2 2 0 0 1-1.424-3.738c11.472-4.372 23.697-6.641 36.231-6.641 46.179 0 86.242 31.037 98.34 75.029z" opacity=".2"/>
                <path fill="#FFF" fill-rule="nonzero" d="M69.422 3013.476a2 2 0 0 1 3.865 1.03 38.27 38.27 0 0 0-1.287 9.872 2 2 0 1 1-4 0c0-3.718.481-7.375 1.422-10.902z" opacity=".4"/>
                <path fill="#FFF" fill-rule="nonzero" d="M139.389 3054.462a2 2 0 1 1-2.803-2.854 38.113 38.113 0 0 0 9.875-16.458 2 2 0 0 1 3.839 1.125 42.113 42.113 0 0 1-10.911 18.187zM187.319 2974.365a2 2 0 0 1-3.362 2.167c-14.357-22.27-37.99-37.076-64.548-39.906a2 2 0 1 1 .424-3.977c27.772 2.96 52.48 18.438 67.486 41.716zm-90.68-41.271a2 2 0 0 1 .578 3.958c-29.473 4.3-54.709 23.396-67.127 50.312a2 2 0 0 1-3.632-1.675c12.981-28.137 39.36-48.098 70.182-52.595zM166.917 2980.158a2 2 0 1 1-3.163 2.448c-12.806-16.55-32.465-26.423-53.754-26.423-19.903 0-38.409 8.621-51.246 23.368a2 2 0 0 1-3.017-2.626c13.589-15.61 33.19-24.742 54.263-24.742 22.54 0 43.362 10.457 56.917 27.975z" opacity=".6"/>
                <path fill="#FFF" fill-rule="nonzero" d="M158.817 3006.377a2 2 0 0 1-3.755 1.377c-6.89-18.78-24.778-31.515-45.062-31.515-8.389 0-16.46 2.159-23.6 6.21a48.139 48.139 0 0 0-24.4 41.929 2 2 0 1 1-4 0 52.138 52.138 0 0 1 26.427-45.408c7.737-4.39 16.488-6.731 25.573-6.731 21.976 0 41.354 13.796 48.817 34.138z" opacity=".6"/>
                <path fill="#FFF" fill-rule="nonzero" d="M58.157 2990.27a2 2 0 1 1 3.345 2.193c-6.166 9.405-9.502 20.409-9.502 31.915 0 16.817 7.153 32.471 19.43 43.443a2 2 0 1 1-2.665 2.982C55.647 3059.081 48 3042.345 48 3024.378c0-12.291 3.566-24.057 10.157-34.109zm107.882 7.477a2 2 0 1 1-3.616 1.712 58.328 58.328 0 0 0-12.403-17.183 2 2 0 1 1 2.765-2.89 62.328 62.328 0 0 1 13.254 18.36z" opacity=".4"/>
                <path fill="#FFF" fill-rule="nonzero" d="M79.629 2947.98a2 2 0 0 1 1.486 3.714c-18.576 7.431-33.678 21.839-42.027 40.056a2 2 0 1 1-3.636-1.667c8.775-19.148 24.647-34.29 44.177-42.103zm105.623 43.682a2 2 0 0 1-3.671 1.59 78.459 78.459 0 0 0-23.215-30.247 2 2 0 0 1 2.486-3.133 82.459 82.459 0 0 1 24.4 31.79z" opacity=".202"/>
                <ellipse cx="110" cy="3024.378" stroke="#FFF" stroke-linecap="round" stroke-width="2.526" opacity=".4" rx="30" ry="30.083"/>
            </g>
        </g>
        <g mask="url(#b)">
            <path fill="#2A9E4A" d="M239 135.889v-7.847c0-12.565 9.85-22.75 22-22.75h4c12.15 0 22 10.185 22 22.75v7.847a9.027 9.027 0 0 1 6 8.511 9.026 9.026 0 0 1-6.396 8.641c-1.295 6.975-5.67 12.816-11.604 15.953v5.49h4.421c12.47 0 22.579 10.288 22.579 22.98v70.278h-78v-70.278c0-12.692 10.109-22.98 22.579-22.98H251v-5.49c-5.934-3.137-10.31-8.978-11.604-15.953A9.026 9.026 0 0 1 233 144.4a9.027 9.027 0 0 1 6-8.511zM95 135.889v-7.847c0-12.565 9.85-22.75 22-22.75h4c12.15 0 22 10.185 22 22.75v7.847a9.027 9.027 0 0 1 6 8.511 9.026 9.026 0 0 1-6.396 8.641c-1.295 6.975-5.67 12.816-11.604 15.953v5.49h4.421c12.47 0 22.579 10.288 22.579 22.98v70.278H80v-70.278c0-12.692 10.109-22.98 22.579-22.98H107v-5.49c-5.934-3.137-10.31-8.978-11.604-15.953A9.026 9.026 0 0 1 89 144.4a9.027 9.027 0 0 1 6-8.511z"/>
            <path fill="#FFF" d="M155 96.646V90.25c0-18.276 14.775-33.092 33-33.092h6c18.225 0 33 14.816 33 33.092v6.396c5.176 1.336 9 6.047 9 11.654a12.032 12.032 0 0 1-9 11.654v.38c0 12.859-7.315 24.005-18 29.483v9.625h6c18.225 0 33 14.815 33 33.091v75.209H134v-75.209c0-18.276 14.775-33.091 33-33.091h6v-9.625c-10.685-5.478-18-16.624-18-29.484v-.379a12.032 12.032 0 0 1-9-11.654 12.032 12.032 0 0 1 9-11.654z"/>
            <path fill="#2FB153" d="M194.798 181.873l6.172 43.517a.632.632 0 0 1-.123.471l-9.364 12.325a.632.632 0 0 1-1.006 0l-9.364-12.325a.632.632 0 0 1-.123-.47l6.172-43.518h-1.306a1.263 1.263 0 0 1-1.235-1.527l2.532-11.88h7.654l2.532 11.88a1.263 1.263 0 0 1-1.235 1.527h-1.306z"/>
            <path stroke="#2FB153" stroke-linecap="round" stroke-width="4" d="M179 126.701c1.204 5.028 5.204 7.542 12 7.542s10.796-2.514 12-7.542"/>
            <path fill="#FFF" stroke="#2FB153" stroke-width="4" d="M185.815 103.584h10.37l.47 1.337c1.612 4.586 5.935 7.713 10.845 7.713 6.349 0 11.5-5.18 11.5-11.575s-5.151-11.575-11.5-11.575c-5.873 0-10.789 4.455-11.43 10.285l-.195 1.782h-9.75l-.195-1.782c-.641-5.83-5.557-10.285-11.43-10.285-6.349 0-11.5 5.18-11.5 11.575s5.151 11.575 11.5 11.575c4.91 0 9.233-3.127 10.845-7.713l.47-1.337z"/>
        </g>
    </g>
</svg>
