<svg xmlns="http://www.w3.org/2000/svg" width="1184" height="861" viewBox="0 0 1184 861">
    <g fill="none" fill-rule="evenodd">
        <g transform="translate(494 743)">
            <rect width="180" height="2" x="5" y="116" fill="#86CFCE" rx="1"/>
            <path fill="#B0F5F4" d="M20 36h150v80H20z"/>
            <path fill="#A6E8E3" d="M20 36h40v80H20z"/>
            <path fill="#FFF" d="M20 36h150v4H20z" opacity=".5"/>
            <path fill="#91E3E1" d="M150 0h40l-20 36h-40z"/>
            <path fill="#A6E8E3" d="M40 0H0l20 36h40z"/>
        </g>
        <path fill="#F77EBC" d="M117.33 543.997l7.713 9.192-6.895 5.785-7.713-9.192z" opacity=".6"/>
        <path fill="#F77EBC" d="M353.96 736.974l-8.485 8.485 6.364 6.364 8.485-8.485z" opacity=".4"/>
        <path fill="#FAC343" d="M215 653l-8 13.856 10.392 6 8-13.856z" opacity=".4"/>
        <path fill="#FAC343" d="M562.485 727l11.314 11.313-8.485 8.485L554 735.485z" opacity=".6"/>
        <path fill="#FFF" d="M165.485 602l11.314 11.313-8.485 8.485L157 610.485z"/>
        <path fill="#4668CB" fill-opacity=".404" d="M371.148 577.997l-7.714 9.192 6.895 5.785 7.713-9.192z"/>
        <path fill="#4668CB" fill-opacity=".8" d="M445.193 689l10.284 12.257-9.192 7.713L436 696.714z"/>
        <path fill="#4668CB" fill-opacity=".597" d="M539.284 580L529 592.257l9.192 7.713 10.285-12.256z" opacity=".6"/>
        <path fill="#F77EBC" d="M667.33 203.997l7.713 9.192-6.895 5.785-7.713-9.192z" opacity=".6"/>
        <path fill="#F77EBC" d="M903.96 396.974l-8.485 8.485 6.364 6.364 8.485-8.485z" opacity=".4"/>
        <path fill="#FAC343" d="M765 313l-8 13.856 10.392 6 8-13.856z" opacity=".4"/>
        <path fill="#4668CB" fill-opacity=".404" d="M771.148 160.997l-7.714 9.192 6.895 5.785 7.713-9.192z"/>
        <path fill="#4668CB" fill-opacity=".8" d="M996.284 349L986 361.257l9.192 7.713 10.285-12.256z"/>
        <path fill="#4668CB" fill-opacity=".597" d="M1089.284 240L1079 252.257l9.192 7.713 10.285-12.256z" opacity=".6"/>
        <path fill="#4668CB" fill-opacity=".403" d="M979.193 553l10.284 12.257-9.192 7.713L970 560.714z"/>
        <path fill="#FAC343" d="M1021.093 435.982l6 10.392-7.794 4.5-6-10.392z" opacity=".4"/>
        <path fill="#FFF" d="M601.96 567.974l-8.485 8.485 6.364 6.364 8.485-8.485z" opacity=".804"/>
        <path fill="#4668CB" fill-opacity=".796" d="M648.392 739l8 13.856-10.392 6L638 745z"/>
        <path fill="#F77EBC" d="M756.314 657L745 668.312l8.485 8.485 11.314-11.313z" opacity=".6"/>
        <path fill="#4668CB" fill-opacity=".597" d="M213.894 404.571l4.944 15.217 11.413-3.708-4.945-15.217zM53.33 39.535l4.944 15.217 11.413-3.708-4.944-15.217z" opacity=".6"/>
        <path fill="#4668CB" fill-opacity=".403" d="M309.921 399.217l4.945 15.217 11.412-3.708-4.944-15.217z"/>
        <path fill="#F77EBC" d="M.865 300.212l13.569 8.479 6.359-10.177-13.569-8.479z" opacity=".6"/>
        <path fill="#F77EBC" d="M969.912 11.81l2.7 11.693 8.769-2.024-2.7-11.693z" opacity=".4"/>
        <path fill="#F77EBC" d="M811.96 653.974l-8.485 8.485 6.364 6.364 8.485-8.485z"/>
        <path fill="#4668CB" fill-opacity=".403" d="M147.808 144l-10.285 12.256 9.193 7.714L157 151.713z"/>
        <path fill="#FAC343" d="M192.796 295.918l11.702 10.912 8.184-8.777-11.702-10.912zM1031 163.582l8.776 8.184 6.138-6.582-8.776-8.184zM1158.408 242.767l11.852-1.878-1.408-8.889-11.852 1.877z" opacity=".75"/>
        <path fill="#FAC343" d="M155.906-.018l-6 10.392 7.795 4.5 6-10.392z" opacity=".4"/>
        <path fill="#F77EBC" d="M370.687 248l11.314 11.314-8.486 8.485-11.313-11.314zM909.485 150l11.314 11.313-8.485 8.485L901 158.485zM1155.369 59.58l-5.734 14.938-11.203-4.3 5.734-14.938zM1183.273 373.273l-11.737 2.495-1.872-8.804 11.738-2.495z" opacity=".6"/>
        <path fill="#F77EBC" d="M284.364 185l8.485 8.486-6.364 6.364-8.485-8.486z" opacity=".75"/>
        <path fill="#F77EBC" d="M664.33 657.997l7.713 9.192-6.895 5.785-7.713-9.192z" opacity=".396"/>
        <path stroke="#FAC343" stroke-width="6" d="M744.243 749.33c5.182-8.975 14.322-4.065 19.306-12.697 4.984-8.632-.389-12.085 4.445-20.458 3.223-5.582 10.328-8.004 21.314-7.265" opacity=".75"/>
        <path stroke="#FAC343" stroke-width="6" d="M406.323 580.352c-9.064-5.024-4.314-14.249-13.032-19.08-8.717-4.833-12.076.599-20.532-4.088-5.638-3.125-8.183-10.186-7.636-21.184" opacity=".504"/>
        <path stroke="#F796C5" stroke-width="6" d="M705.498 558.077c-.438 8.371-14.042 8.885-14.464 16.936-.422 8.051 4.457 8.083 4.047 15.893-.272 5.206-4.66 9.552-13.164 13.038" opacity=".505"/>
        <path stroke="#F796C5" stroke-width="6" d="M131.958 284.84c-6.204-1.32-4.977-11.545-10.943-12.813-5.967-1.269-6.568 2.373-12.355 1.143-3.859-.82-6.587-4.613-8.185-11.38" opacity=".5"/>
        <path stroke="#FAC343" stroke-width="6" d="M513.159 694.284c-.801 8.724.175 14.913 2.929 18.567 4.13 5.48 6.804 3.228 10.81 8.544 2.67 3.545 2.635 8.442-.108 14.694M1052.277 49.891c-8.245 2.962-13.441 6.462-15.59 10.502-3.221 6.059-.05 7.53-3.174 13.408-2.084 3.919-6.538 5.956-13.363 6.112" opacity=".502"/>
        <path stroke="#90A4E0" stroke-width="6" d="M439.41 762.391c-10.288-1.814-8.786-12.182-18.68-13.926-9.895-1.745-11.316 4.545-20.914 2.853-6.398-1.129-11.14-7.032-14.226-17.71" opacity=".75"/>
        <path stroke="#90A4E0" stroke-width="6" d="M927.546 239.332c-4.265 7.694-12.109 3.655-16.21 11.055-4.103 7.4.516 10.256-3.463 17.434-2.652 4.786-8.653 6.943-18 6.472" opacity=".502"/>
        <path stroke="#90A4E0" stroke-width="6" d="M983.254 513.955c9.99-3.054 7.235-13.162 16.844-16.1 9.608-2.937 11.784 3.133 21.105.284 6.213-1.9 10.2-8.337 11.961-19.311" opacity=".75"/>
    </g>
</svg>
