<svg xmlns="http://www.w3.org/2000/svg" xmlns:xlink="http://www.w3.org/1999/xlink" width="104" height="113" viewBox="0 0 104 113">
    <defs>
        <path id="a" d="M5.23 38.15h48.438a2 2 0 0 1 1.966 1.636l2.422 13.067a2 2 0 0 1-1.966 2.365H2a2 2 0 0 1-1.941-2.48l3.23-13.067a2 2 0 0 1 1.94-1.52z"/>
        <rect id="b" width="58" height="60.237" y="52.206" rx="2"/>
    </defs>
    <g fill="none" fill-rule="evenodd" transform="translate(-5 -2)">
        <path d="M0 0h120v120H0z"/>
        <ellipse cx="103" cy="33.131" stroke="#F77EBC" stroke-width="2" opacity=".5" rx="5" ry="5.02"/>
        <ellipse cx="30" cy="14.055" fill="#F77EBC" opacity=".2" rx="3" ry="3.012"/>
        <ellipse cx="99" cy="76.301" fill="#F77EBC" opacity=".2" rx="3" ry="3.012"/>
        <ellipse cx="81" cy="5.02" fill="#F77EBC" opacity=".2" rx="3" ry="3.012"/>
        <ellipse cx="11" cy="59.234" stroke="#F77EBC" stroke-width="2" opacity=".5" rx="5" ry="5.02"/>
        <g transform="translate(31 2.008)">
            <use fill="#E4688A" xlink:href="#a"/>
            <path stroke="#E94875" stroke-width="3" d="M5.23 39.65a.5.5 0 0 0-.486.38L1.515 53.098a.5.5 0 0 0 .486.62H56.09a.5.5 0 0 0 .491-.591L54.16 40.059a.5.5 0 0 0-.491-.409H5.23z"/>
        </g>
        <g transform="translate(35 2.008)">
            <ellipse cx="25" cy="25.099" fill="#FAC343" rx="25" ry="25.099"/>
            <ellipse cx="25" cy="25.099" stroke="#FFF" stroke-width="2" rx="21" ry="21.083"/>
            <path fill="#FFF" d="M25.277 12.55c2.905 0 5.187.59 6.813 1.805 1.729 1.285 2.732 3.298 2.974 6.006h-4.012c-.346-1.527-1.003-2.638-1.902-3.298-.899-.694-2.282-1.007-4.08-1.007-1.557 0-2.733.209-3.563.66-1.037.52-1.521 1.389-1.521 2.57 0 1.04.553 1.909 1.729 2.534.519.277 1.936.798 4.219 1.527 3.355 1.042 5.499 1.875 6.467 2.43 2.144 1.285 3.216 3.056 3.216 5.348 0 2.222-.864 3.993-2.594 5.277-1.729 1.25-4.184 1.91-7.331 1.91-3.043 0-5.43-.59-7.124-1.771-2.075-1.458-3.217-3.75-3.39-6.91h4.012c.277 1.876.934 3.23 2.006 4.028.968.695 2.455 1.077 4.496 1.077 1.798 0 3.25-.313 4.288-.903 1.038-.625 1.591-1.424 1.591-2.465 0-1.32-.795-2.361-2.317-3.125-.484-.243-2.075-.799-4.807-1.632-3.043-.972-4.946-1.666-5.672-2.083-1.902-1.146-2.836-2.812-2.836-5 0-2.187.9-3.923 2.767-5.173 1.73-1.215 3.908-1.806 6.57-1.806z"/>
            <path fill="#FFF" d="M23.214 9.86h4.464v3.586h-4.464zM23.214 37.648h4.464v3.586h-4.464z"/>
        </g>
        <g transform="translate(31 2.008)">
            <use fill="#FB6D94" xlink:href="#b"/>
            <rect width="55" height="57.237" x="1.5" y="53.706" stroke="#E94875" stroke-width="3" rx="2"/>
        </g>
    </g>
</svg>
