<svg xmlns="http://www.w3.org/2000/svg" xmlns:xlink="http://www.w3.org/1999/xlink" width="110" height="107" viewBox="0 0 110 107">
    <defs>
        <path id="a" d="M50.995 31.123H68.21a4 4 0 0 1 3.828 5.16l-5.435 17.93h-14l-5.436-17.93a4 4 0 0 1 3.828-5.16z"/>
    </defs>
    <g fill="none" fill-rule="evenodd" transform="translate(-6 -5)">
        <use fill="#90A4E0" xlink:href="#a"/>
        <path stroke="#4668CB" stroke-width="3" d="M53.715 52.714H65.49l5.113-16.866a2.5 2.5 0 0 0-2.393-3.225H50.995a2.5 2.5 0 0 0-2.393 3.225l5.113 16.866z"/>
        <path fill="#90A4E0" stroke="#4668CB" stroke-width="2" d="M25 110.435h70a5 5 0 0 0 5-5V90.356c0-22.179-17.909-40.158-40-40.158s-40 17.98-40 40.158v15.08a5 5 0 0 0 5 5z"/>
        <path fill="#7387C2" d="M100 105.435V90.356c0-18.97-13.1-34.867-30.715-39.07-2.769-.661 19.254 12.771 21.72 32.807.772 6.263 0 24.776 0 26.342H95a5 5 0 0 0 5-5z"/>
        <path stroke="#4668CB" stroke-width="3" d="M25 110.435h70a5 5 0 0 0 5-5V90.356c0-22.179-17.909-40.158-40-40.158s-40 17.98-40 40.158v15.08a5 5 0 0 0 5 5z"/>
        <g transform="translate(44 66.261)">
            <path fill="#FFF" d="M17.683 23.851v2.252h-2.5v-2.28c-1.251-.143-2.274-.488-3.06-1.035-1.3-.913-2.015-2.35-2.123-4.329h2.513c.174 1.175.585 2.023 1.257 2.524.607.435 1.538.674 2.817.674 1.126 0 2.036-.196 2.686-.566.65-.391.997-.891.997-1.544 0-.827-.498-1.48-1.452-1.958-.303-.152-1.3-.5-3.011-1.022-1.907-.61-3.099-1.044-3.554-1.305-1.191-.718-1.776-1.762-1.776-3.133 0-1.37.563-2.458 1.733-3.24.825-.58 1.813-.933 2.973-1.068V6.024h2.5v1.81c1.188.145 2.162.494 2.912 1.054 1.083.805 1.712 2.067 1.863 3.764h-2.513c-.217-.958-.628-1.654-1.192-2.067-.563-.435-1.43-.63-2.556-.63-.975 0-1.712.13-2.232.413-.65.326-.953.87-.953 1.61 0 .652.346 1.196 1.083 1.587.325.174 1.213.5 2.643.957 2.102.653 3.445 1.175 4.052 1.523 1.343.805 2.015 1.914 2.015 3.35 0 1.392-.542 2.501-1.625 3.306-.874.632-2.043 1.023-3.497 1.15z"/>
            <ellipse cx="16" cy="16.063" stroke="#FFF" stroke-width="2" rx="16" ry="16.063"/>
        </g>
        <ellipse cx="19" cy="36.142" stroke="#4668CB" stroke-width="2" opacity=".5" rx="5" ry="5.02"/>
        <ellipse cx="75" cy="11.044" stroke="#4668CB" stroke-width="2" opacity=".5" rx="5" ry="5.02"/>
        <ellipse cx="91" cy="20.079" fill="#4668CB" opacity=".2" rx="3" ry="3.012"/>
        <ellipse cx="9" cy="72.285" fill="#4668CB" opacity=".2" rx="3" ry="3.012"/>
        <ellipse cx="110" cy="59.234" stroke="#4668CB" stroke-width="2" opacity=".5" rx="5" ry="5.02"/>
    </g>
</svg>
