<svg xmlns="http://www.w3.org/2000/svg" width="80" height="80" viewBox="0 0 80 80">
    <g fill="none" fill-rule="evenodd">
        <path fill="#C5C5C5" fill-rule="nonzero" d="M23 59v18h4V59zM43 59v18h4V59zM50.76 44.569c6.27 4.957 14.876 6.178 25.672 3.789l-.864-3.906c-9.718 2.15-17.113 1.102-22.328-3.02l-2.48 3.137z"/>
        <path fill="#E1E1E1" d="M5 3h56v64H5z"/>
        <path fill="#C5C5C5" d="M5 3h12v64H5z"/>
        <path fill="#F7F7F7" fill-rule="nonzero" d="M8.037 44.252c6.27 4.955 14.876 6.176 25.672 3.787l-.864-3.905c-9.718 2.15-17.113 1.1-22.328-3.02l-2.48 3.138z"/>
        <g transform="translate(30 18)">
            <path fill="#E82087" d="M12.5 2L15 9h-5z"/>
            <rect width="6" height="6" fill="#4668CB" rx="3"/>
            <rect width="6" height="6" x="17" fill="#4668CB" rx="3"/>
        </g>
    </g>
</svg>
