<svg xmlns="http://www.w3.org/2000/svg" width="99" height="75" viewBox="0 0 99 75">
    <g fill="none" fill-rule="evenodd">
        <path stroke="#C5C5C5" stroke-linejoin="round" stroke-width="4" d="M47.531 54.866v17.1L41.5 73.536M73 56.88l9.669 17.769M98.797 39.276c-5.98 3.091-10.195 3.091-12.648 0-2.452-3.09-4.002-8.632-4.649-16.625"/>
        <path fill="#E1E1E1" d="M31.5 0h56v64.43h-56z"/>
        <path fill="#C5C5C5" d="M31.5 0h12v64.43h-12z"/>
        <g fill="#4668CB">
            <path d="M31.5 6.04h56v5.034h-56z"/>
            <path d="M25.74 3.53l5.853 2.55-.008 4.961-7.59-1.42 2.688-2.524z"/>
        </g>
        <g transform="translate(56.5 16.107)">
            <path fill="#E82087" d="M11.5 1.007L14 8.054H9z"/>
            <rect width="6" height="6.04" fill="#4668CB" rx="3"/>
            <rect width="6" height="6.04" x="17" fill="#4668CB" rx="3"/>
        </g>
        <path stroke="#E1E1E1" stroke-linejoin="round" stroke-width="4" d="M37.02 25.376c-4.416 9.77-5.44 16.251-3.074 19.442 2.367 3.192 4.957 3.963 7.772 2.315"/>
        <g stroke="#9CF4F2" stroke-linecap="round" stroke-linejoin="round" stroke-width="2">
            <path d="M28.5 74l-20.241-.101C3.419 73.616 1 71.972 1 68.966M28.5 68.966l-16.241-.1C7.419 68.581 5 66.937 5 63.932M28.5 63.933l-11.741-.101"/>
        </g>
    </g>
</svg>
