<svg xmlns="http://www.w3.org/2000/svg" width="120" height="120" viewBox="0 0 120 120">
    <g fill="none" fill-rule="evenodd">
        <path stroke="#C5C5C5" stroke-linejoin="round" stroke-width="4" d="M35.097 93.915v17.07M60.752 93.915l6.452 17.006M83.265 74.831l-5.658 3.439-5.286-14.504"/>
        <path fill="#E1E1E1" d="M19 37.637h56.339v64.318H19z"/>
        <path fill="#C5C5C5" d="M19 37.637h12.073v64.318H19z"/>
        <g transform="translate(44.152 54.721)">
            <path fill="#E82087" d="M11.57 0l2.515 7.035h-5.03z"/>
            <rect width="6.036" height="6.03" y="1.005" fill="#4668CB" rx="3.015"/>
            <rect width="6.036" height="6.03" x="17.103" y="1.005" fill="#4668CB" rx="3.015"/>
        </g>
        <path fill="#FFF" d="M29.06 67.328c5.436-1.705 9.603-2.557 12.505-2.557 2.9 0 6.781.852 11.641 2.557V84.87c-4.647-1.084-8.235-1.625-10.761-1.625-2.527 0-5.551.541-9.073 1.625l-4.311-17.543zM78.86 67.328c-5.434-1.705-9.602-2.557-12.503-2.557s-6.782.852-11.642 2.557V84.87c4.648-1.084 8.235-1.625 10.762-1.625 2.527 0 5.55.541 9.072 1.625l4.312-17.543z"/>
        <path fill="#4668CB" d="M83.423 68.79l-3.05 1.76 6.784 11.75 2.53.86.52-2.62z"/>
        <path stroke="#E1E1E1" stroke-linejoin="round" stroke-width="4" d="M24.533 68.289l4.364 13.292 5.869-3.914"/>
        <g fill="#9CF4F2">
            <path d="M70.64 12.16a5.53 5.53 0 0 1 2.934 7.25c-.795 1.873-3.873 4.405-9.235 7.594-1.43-6.072-1.747-10.045-.952-11.918a5.53 5.53 0 0 1 7.254-2.926zM91.668 14.913a5.53 5.53 0 0 1 .004 7.822c-1.44 1.439-5.242 2.633-11.408 3.582.95-6.166 2.143-9.969 3.583-11.408a5.53 5.53 0 0 1 7.82.004zM99.226 33.975a5.53 5.53 0 0 1-2.282 7.48c-1.797.956-5.783.986-11.957.091 2.71-5.62 4.964-8.906 6.761-9.862a5.53 5.53 0 0 1 7.478 2.29z"/>
        </g>
    </g>
</svg>
