<svg xmlns="http://www.w3.org/2000/svg" width="196" height="200" viewBox="0 0 196 200">
    <g fill="none" fill-rule="evenodd">
        <path fill="#C5C5C5" fill-rule="nonzero" d="M119.439 163.453h-6.356v27.119h6.356zM89.248 163.453h-6.356v27.119h6.356z"/>
        <path stroke="#C5C5C5" stroke-width="7" d="M73.502 118.296c-8.419-17.089-10.805-31.34-7.159-42.757C69.99 64.123 77.484 56.51 88.827 52.7"/>
        <path fill="#E1E1E1" d="M147.2 81.154l-80.841-5.653-6.503 92.993 80.84 5.653z"/>
        <path fill="#C5C5C5" d="M147.2 81.154l-16.909-1.182-6.502 92.992 16.907 1.183z"/>
        <g transform="scale(-1 1) rotate(-4 1373.454 1614.319)">
            <path fill="#E82087" d="M18.31 3.445l3.707 10.064h-7.415z"/>
            <rect width="7.945" height="11.653" fill="#4668CB" rx="3.972"/>
            <rect width="7.415" height="11.653" x="25.883" fill="#4668CB" rx="3.708"/>
        </g>
        <g transform="rotate(16 -17.345 335.8)">
            <circle cx="23.729" cy="23.729" r="23.729" fill="#FAC343"/>
            <circle cx="23.729" cy="23.729" r="20.339" fill="#F5AC02" stroke="#FFF" stroke-width="2"/>
            <path fill="#FFF" d="M23.992 11.864c2.757 0 4.923.558 6.466 1.707 1.641 1.215 2.593 3.119 2.823 5.679h-3.808c-.328-1.444-.952-2.495-1.805-3.118-.853-.657-2.166-.952-3.873-.952-1.477 0-2.594.197-3.381.623-.985.493-1.445 1.313-1.445 2.43 0 .984.526 1.805 1.642 2.396.492.262 1.838.755 4.004 1.444 3.184.985 5.22 1.772 6.138 2.298 2.036 1.214 3.053 2.888 3.053 5.055 0 2.1-.82 3.774-2.462 4.989-1.64 1.182-3.971 1.805-6.959 1.805-2.888 0-5.153-.558-6.761-1.674-1.97-1.378-3.053-3.545-3.217-6.532h3.807c.263 1.773.887 3.053 1.904 3.808.92.656 2.33 1.017 4.267 1.017 1.707 0 3.086-.295 4.07-.853.985-.59 1.51-1.346 1.51-2.33 0-1.248-.754-2.233-2.199-2.955-.46-.23-1.969-.755-4.562-1.543-2.889-.919-4.694-1.575-5.383-1.97-1.806-1.082-2.692-2.658-2.692-4.726s.853-3.709 2.626-4.89c1.641-1.15 3.71-1.708 6.237-1.708z"/>
            <path fill="#FFF" d="M22.034 9.322h4.237v3.39h-4.237zM22.034 35.593h4.237v3.39h-4.237z"/>
        </g>
        <path stroke="#E1E1E1" stroke-width="7" d="M136.785 120.214c13.091-12.885 18.928-26.203 17.51-39.954-1.419-13.751-10.299-23.306-26.64-28.663"/>
        <path fill="#F8BE5F" d="M63.983 0c2.798 9.887 7.741 14.83 14.83 14.83-7.055 0-11.999 4.944-14.83 14.831-2.567-9.887-7.51-14.83-14.83-14.83 7.32 0 12.263-4.944 14.83-14.831zM150.424 18.644c1.998 7.062 5.53 10.593 10.593 10.593-5.04 0-8.571 3.531-10.593 10.594-1.834-7.063-5.365-10.594-10.593-10.594 5.228 0 8.76-3.53 10.593-10.593zM38.56 39.83c1.998 7.063 5.529 10.594 10.593 10.594-5.04 0-8.571 3.53-10.594 10.593-1.833-7.062-5.364-10.593-10.593-10.593 5.229 0 8.76-3.531 10.593-10.593z"/>
    </g>
</svg>
