<svg xmlns="http://www.w3.org/2000/svg" width="370" height="320" viewBox="0 0 370 320">
    <g fill="none" fill-rule="evenodd">
        <path fill="#C5C5C5" fill-rule="nonzero" d="M225.5 251h-12v49h12zM168.5 251h-12v49h12zM69.722 74.111l10.475-5.853 53.773 96.231-10.476 5.854z"/>
        <path fill="#E1E1E1" d="M277.912 95.62L125.284 84.945l-12.277 175.572 152.628 10.672z"/>
        <path fill="#C5C5C5" d="M277.912 95.62l-31.922-2.233-12.277 175.571 31.922 2.232z"/>
        <path fill="#E1E1E1" fill-rule="nonzero" d="M328.498 82.508l-9.967-6.682-63.426 94.607 9.968 6.682z"/>
        <g transform="scale(-1 1) rotate(-4 1768.356 3019.034)">
            <path fill="#E82087" d="M34.568 6.504l7 19h-14z"/>
            <rect width="15" height="22" fill="#4668CB" rx="7.5"/>
            <rect width="14" height="22" x="48.866" fill="#4668CB" rx="7"/>
        </g>
        <path fill="#F8BE5F" d="M115 18c5.282 18.667 14.615 28 28 28-13.321 0-22.655 9.333-28 28-4.846-18.667-14.18-28-28-28 13.82 0 23.154-9.333 28-28zM185 34c3.773 13.333 10.44 20 20 20-9.515 0-16.182 6.667-20 20-3.462-13.333-10.128-20-20-20 9.872 0 16.538-6.667 20-20zM51 104c3.773 13.333 10.44 20 20 20-9.515 0-16.182 6.667-20 20-3.462-13.333-10.128-20-20-20 9.872 0 16.538-6.667 20-20z"/>
    </g>
</svg>
