<svg xmlns="http://www.w3.org/2000/svg" width="120" height="120" viewBox="0 0 120 120">
    <g fill="none" fill-rule="evenodd">
        <path fill="#C5C5C5" fill-rule="nonzero" d="M45.188 97.5h4.5v18.375h-4.5zM66.563 97.5h4.5v18.375h-4.5zM76.366 73.714L74.9 69.46l1.41-.485a21 21 0 0 0 13.906-16.577l1.18-7.46 4.444.702-1.18 7.46a25.5 25.5 0 0 1-16.884 20.13l-1.41.485z"/>
        <path fill="#E1E1E1" d="M25.533 39.232l57.235-4.002 4.604 65.84-57.235 4.001z"/>
        <path fill="#C5C5C5" d="M25.533 39.232l11.97-.837 4.605 65.84-11.971.836z"/>
        <path fill="#E1E1E1" fill-rule="nonzero" d="M33.956 73.084l.314-4.49-1.488-.103A21 21 0 0 1 15.06 56.078l-3.07-6.901-4.112 1.829 3.07 6.9a25.5 25.5 0 0 0 21.52 15.074l1.488.104z"/>
        <path fill="#E82087" d="M65.493 53.92l3.116 6.924-5.237.366z"/>
        <path fill="#4668CB" fill-rule="nonzero" d="M75.394 53.775l2.398 1.05a1.5 1.5 0 1 1-1.203 2.749l-5.143-2.253c-1.131-.495-1.212-2.07-.138-2.679l5.143-2.914a1.5 1.5 0 1 1 1.48 2.61l-2.537 1.437zM55.327 55.178l-2.229 1.374a1.5 1.5 0 1 0 1.574 2.554l4.78-2.946c1.051-.648.912-2.218-.237-2.672l-5.498-2.17a1.5 1.5 0 0 0-1.102 2.79l2.712 1.07z"/>
        <path fill="#FFF" d="M90.233 8.152a4.875 4.875 0 0 0-5.782 3.755c-.373 1.755.503 5.449 2.629 11.08 4.232-4.28 6.535-7.297 6.908-9.053a4.875 4.875 0 0 0-3.755-5.782zM110.1 17.18a4.875 4.875 0 0 0-6.843-.84c-1.414 1.105-3.117 4.498-5.108 10.178 5.993-.558 9.697-1.39 11.111-2.495a4.875 4.875 0 0 0 .84-6.843zm4.232 20.545a4.875 4.875 0 0 0-4.959-4.79c-1.795.032-5.196 1.717-10.205 5.055 5.122 3.16 8.58 4.726 10.375 4.694a4.875 4.875 0 0 0 4.79-4.959z"/>
    </g>
</svg>
