<svg xmlns="http://www.w3.org/2000/svg" width="120" height="120" viewBox="0 0 120 120">
    <g fill="none" fill-rule="evenodd">
        <path fill="#C5C5C5" fill-rule="nonzero" d="M75.167 89.333h-4v16.334h4zM56.167 89.333h-4v16.334h4zM23.24 30.37l3.492-1.95 17.925 32.076-3.492 1.952z"/>
        <path fill="#E1E1E1" d="M92.637 37.54L41.76 33.982 37.67 92.507l50.875 3.557z"/>
        <path fill="#C5C5C5" d="M92.637 37.54l-10.641-.744-4.093 58.524 10.641.744z"/>
        <path fill="#E82087" d="M57.117 50.595l-2.77 6.155 4.656.326z"/>
        <path stroke="#E1E1E1" stroke-width="4" d="M87.42 62.162l11.788 11.451a1 1 0 0 1-.09 1.512l-11.697 8.93"/>
        <g stroke="#4668CB" stroke-width="2">
            <path d="M51.62 53.133l-2.379-3.564-3.165 3.176M68.204 54.178l-2.379-3.564-3.165 3.177"/>
        </g>
        <path fill="#FFF" d="M104 23h3a1 1 0 1 1 0 2h-3v3a1 1 0 1 1-2 0v-3h-3a1 1 0 0 1 0-2h3v-3a1 1 0 1 1 2 0v3zM16 52h3a1 1 0 0 1 0 2h-3v3a1 1 0 0 1-2 0v-3h-3a1 1 0 0 1 0-2h3v-3a1 1 0 0 1 2 0v3zM26 9h3a1 1 0 0 1 0 2h-3v3a1 1 0 0 1-2 0v-3h-3a1 1 0 0 1 0-2h3V6a1 1 0 0 1 2 0v3z"/>
    </g>
</svg>
