<?xml version="1.0" encoding="utf-8"?>
<!-- Generator: Adobe Illustrator 22.0.1, SVG Export Plug-In . SVG Version: 6.00 Build 0)  -->
<svg version="1.1" id="圖層_1" xmlns="http://www.w3.org/2000/svg" xmlns:xlink="http://www.w3.org/1999/xlink" x="0px" y="0px"
	 viewBox="0 0 40 62" style="enable-background:new 0 0 40 62;" xml:space="preserve">
<style type="text/css">
	.st0{clip-path:url(#SVGID_2_);}
	.st1{clip-path:url(#SVGID_4_);fill:#FFFFFF;}
	.st2{clip-path:url(#SVGID_6_);}
	.st3{clip-path:url(#SVGID_8_);fill:#F7F7F7;}
	.st4{clip-path:url(#SVGID_10_);}
	.st5{clip-path:url(#SVGID_12_);fill:#E82087;}
	.st6{clip-path:url(#SVGID_14_);}
	.st7{clip-path:url(#SVGID_16_);fill:#F77EBC;}
	.st8{clip-path:url(#SVGID_18_);}
	.st9{clip-path:url(#SVGID_20_);fill:#7E9AEC;}
	.st10{clip-path:url(#SVGID_22_);}
	.st11{clip-path:url(#SVGID_24_);fill:#7E9AEC;}
	.st12{clip-path:url(#SVGID_26_);}
	.st13{clip-path:url(#SVGID_28_);fill:#E1E1E1;}
	.st14{clip-path:url(#SVGID_30_);}
	.st15{clip-path:url(#SVGID_32_);fill:#E1E1E1;}
	.st16{clip-path:url(#SVGID_34_);}
	.st17{clip-path:url(#SVGID_36_);fill:#D0D0D0;}
	.st18{clip-path:url(#SVGID_38_);}
	.st19{clip-path:url(#SVGID_40_);fill:#E1E1E1;}
	.st20{clip-path:url(#SVGID_42_);}
	.st21{clip-path:url(#SVGID_44_);fill:#D0D0D0;}
</style>
<g>
	<defs>
		<polygon id="SVGID_1_" points="8.6,0 39.9,0 31.3,8.3 0,8.3 		"/>
	</defs>
	<clipPath id="SVGID_2_">
		<use xlink:href="#SVGID_1_"  style="overflow:visible;"/>
	</clipPath>
	<g class="st0">
		<defs>
			<rect id="SVGID_3_" x="-26" y="-467" width="320" height="3924"/>
		</defs>
		<clipPath id="SVGID_4_">
			<use xlink:href="#SVGID_3_"  style="overflow:visible;"/>
		</clipPath>
		<rect x="-5" y="-5" class="st1" width="49.9" height="18.3"/>
	</g>
</g>
<g>
	<defs>
		<rect id="SVGID_5_" y="8.3" width="31.3" height="43.5"/>
	</defs>
	<clipPath id="SVGID_6_">
		<use xlink:href="#SVGID_5_"  style="overflow:visible;"/>
	</clipPath>
	<g class="st2">
		<defs>
			<rect id="SVGID_7_" x="-26" y="-467" width="320" height="3924"/>
		</defs>
		<clipPath id="SVGID_8_">
			<use xlink:href="#SVGID_7_"  style="overflow:visible;"/>
		</clipPath>
		<rect x="-5" y="3.3" class="st3" width="41.3" height="53.5"/>
	</g>
</g>
<g>
	<defs>
		<polygon id="SVGID_9_" points="15.4,17.4 18,23.5 12.9,23.5 		"/>
	</defs>
	<clipPath id="SVGID_10_">
		<use xlink:href="#SVGID_9_"  style="overflow:visible;"/>
	</clipPath>
	<g class="st4">
		<defs>
			<rect id="SVGID_11_" x="-26" y="-467" width="320" height="3924"/>
		</defs>
		<clipPath id="SVGID_12_">
			<use xlink:href="#SVGID_11_"  style="overflow:visible;"/>
		</clipPath>
		<rect x="7.9" y="12.4" class="st5" width="15" height="16.2"/>
	</g>
</g>
<g>
	<defs>
		<polygon id="SVGID_13_" points="15.4,17.4 15.4,23.5 12.9,23.5 		"/>
	</defs>
	<clipPath id="SVGID_14_">
		<use xlink:href="#SVGID_13_"  style="overflow:visible;"/>
	</clipPath>
	<g class="st6">
		<defs>
			<rect id="SVGID_15_" x="-26" y="-467" width="320" height="3924"/>
		</defs>
		<clipPath id="SVGID_16_">
			<use xlink:href="#SVGID_15_"  style="overflow:visible;"/>
		</clipPath>
		<rect x="7.9" y="12.4" class="st7" width="12.5" height="16.2"/>
	</g>
</g>
<g>
	<defs>
		<path id="SVGID_17_" d="M20.8,15.2L20.8,15.2c0.8,0,1.4,0.6,1.4,1.4v0c0,0.8-0.6,1.4-1.4,1.4c-0.8,0-1.4-0.6-1.4-1.4v0
			C19.4,15.9,20,15.2,20.8,15.2z"/>
	</defs>
	<clipPath id="SVGID_18_">
		<use xlink:href="#SVGID_17_"  style="overflow:visible;"/>
	</clipPath>
	<g class="st8">
		<defs>
			<rect id="SVGID_19_" x="-26" y="-467" width="320" height="3924"/>
		</defs>
		<clipPath id="SVGID_20_">
			<use xlink:href="#SVGID_19_"  style="overflow:visible;"/>
		</clipPath>
		<rect x="14.4" y="10.2" class="st9" width="12.9" height="12.9"/>
	</g>
</g>
<g>
	<defs>
		<path id="SVGID_21_" d="M10.4,15.2L10.4,15.2c0.8,0,1.4,0.6,1.4,1.4v0c0,0.8-0.6,1.4-1.4,1.4c-0.8,0-1.4-0.6-1.4-1.4v0
			C9,15.9,9.6,15.2,10.4,15.2z"/>
	</defs>
	<clipPath id="SVGID_22_">
		<use xlink:href="#SVGID_21_"  style="overflow:visible;"/>
	</clipPath>
	<g class="st10">
		<defs>
			<rect id="SVGID_23_" x="-26" y="-467" width="320" height="3924"/>
		</defs>
		<clipPath id="SVGID_24_">
			<use xlink:href="#SVGID_23_"  style="overflow:visible;"/>
		</clipPath>
		<rect x="4" y="10.2" class="st11" width="12.9" height="12.9"/>
	</g>
</g>
<g>
	<defs>
		<polygon id="SVGID_25_" points="31.3,8.2 39.9,0 39.9,43.6 31.3,51.8 		"/>
	</defs>
	<clipPath id="SVGID_26_">
		<use xlink:href="#SVGID_25_"  style="overflow:visible;"/>
	</clipPath>
	<g class="st12">
		<defs>
			<rect id="SVGID_27_" x="-26" y="-467" width="320" height="3924"/>
		</defs>
		<clipPath id="SVGID_28_">
			<use xlink:href="#SVGID_27_"  style="overflow:visible;"/>
		</clipPath>
		<rect x="26.3" y="-5" class="st13" width="18.6" height="61.8"/>
	</g>
</g>
<g>
	<defs>
		<rect id="SVGID_29_" x="8.6" y="51.8" width="2.2" height="8.7"/>
	</defs>
	<clipPath id="SVGID_30_">
		<use xlink:href="#SVGID_29_"  style="overflow:visible;"/>
	</clipPath>
	<g class="st14">
		<defs>
			<rect id="SVGID_31_" x="-26" y="-467" width="320" height="3924"/>
		</defs>
		<clipPath id="SVGID_32_">
			<use xlink:href="#SVGID_31_"  style="overflow:visible;"/>
		</clipPath>
		<rect x="3.6" y="46.8" class="st15" width="12.2" height="18.7"/>
	</g>
</g>
<g>
	<defs>
		<polygon id="SVGID_33_" points="10.8,51.8 11.9,51.8 11.9,59.4 10.8,60.5 		"/>
	</defs>
	<clipPath id="SVGID_34_">
		<use xlink:href="#SVGID_33_"  style="overflow:visible;"/>
	</clipPath>
	<g class="st16">
		<defs>
			<rect id="SVGID_35_" x="-26" y="-467" width="320" height="3924"/>
		</defs>
		<clipPath id="SVGID_36_">
			<use xlink:href="#SVGID_35_"  style="overflow:visible;"/>
		</clipPath>
		<rect x="5.8" y="46.8" class="st17" width="11.1" height="18.7"/>
	</g>
</g>
<g>
	<defs>
		<rect id="SVGID_37_" x="21.6" y="51.8" width="2.2" height="8.7"/>
	</defs>
	<clipPath id="SVGID_38_">
		<use xlink:href="#SVGID_37_"  style="overflow:visible;"/>
	</clipPath>
	<g class="st18">
		<defs>
			<rect id="SVGID_39_" x="-26" y="-467" width="320" height="3924"/>
		</defs>
		<clipPath id="SVGID_40_">
			<use xlink:href="#SVGID_39_"  style="overflow:visible;"/>
		</clipPath>
		<rect x="16.6" y="46.8" class="st19" width="12.2" height="18.7"/>
	</g>
</g>
<g>
	<defs>
		<polygon id="SVGID_41_" points="23.7,51.8 24.8,51.8 24.8,59.4 23.7,60.5 		"/>
	</defs>
	<clipPath id="SVGID_42_">
		<use xlink:href="#SVGID_41_"  style="overflow:visible;"/>
	</clipPath>
	<g class="st20">
		<defs>
			<rect id="SVGID_43_" x="-26" y="-467" width="320" height="3924"/>
		</defs>
		<clipPath id="SVGID_44_">
			<use xlink:href="#SVGID_43_"  style="overflow:visible;"/>
		</clipPath>
		<rect x="18.7" y="46.8" class="st21" width="11.1" height="18.7"/>
	</g>
</g>
</svg>
