<?xml version="1.0" encoding="utf-8"?>
<!-- Generator: Adobe Illustrator 22.1.0, SVG Export Plug-In . SVG Version: 6.00 Build 0)  -->
<svg version="1.1" id="圖層_1" xmlns="http://www.w3.org/2000/svg" xmlns:xlink="http://www.w3.org/1999/xlink" x="0px" y="0px"
	 viewBox="0 0 80 80" style="enable-background:new 0 0 80 80;" xml:space="preserve">
<style type="text/css">
	.st0{filter:url(#b);}
	.st1{fill:#2AD3B8;}
	.st2{fill:#316FC9;}
	.st3{fill:#FFFFFF;}
</style>
<filter  filterUnits="objectBoundingBox" height="105.1%" id="b" width="105.4%" x="-2.7%" y="-2.1%">
	<feOffset  dy="1" in="SourceAlpha" result="shadowOffsetOuter1"></feOffset>
	<feGaussianBlur  in="shadowOffsetOuter1" result="shadowBlurOuter1" stdDeviation="2"></feGaussianBlur>
	<feColorMatrix  in="shadowBlurOuter1" result="shadowMatrixOuter1" values="0 0 0 0 0 0 0 0 0 0 0 0 0 0 0 0 0 0 0.2 0">
		</feColorMatrix>
	<feMerge>
		<feMergeNode  in="shadowMatrixOuter1"></feMergeNode>
		<feMergeNode  in="SourceGraphic"></feMergeNode>
	</feMerge>
</filter>
<g>
	<g transform="translate(-80 -32)" class="st0">
		<g transform="translate(80 32)">
			<path class="st1" d="M16.9,43v3.2c0,0.3-0.2,0.5-0.5,0.5c-0.1,0-0.2,0-0.2-0.1L6,41.4c-0.2-0.1-0.3-0.4-0.2-0.7
				c0-0.1,0.1-0.2,0.2-0.2l10.2-5.1c0.2-0.1,0.5,0,0.7,0.2c0,0.1,0.1,0.1,0.1,0.2V39h43.2v-3.2c0-0.3,0.2-0.5,0.5-0.5
				c0.1,0,0.2,0,0.2,0.1L71,40.6c0.2,0.1,0.3,0.4,0.2,0.7c0,0.1-0.1,0.2-0.2,0.2l-10.2,5.1c-0.2,0.1-0.5,0-0.7-0.2
				c0-0.1-0.1-0.1-0.1-0.2V43L16.9,43L16.9,43z"/>
			<path class="st1" d="M27.7,59.8l2.6,1.8c0.2,0.2,0.3,0.5,0.1,0.7c0,0.1-0.1,0.1-0.2,0.1l-10.1,5.4c-0.2,0.1-0.5,0-0.7-0.2
				c0-0.1-0.1-0.2-0.1-0.3l1.7-11.3c0-0.3,0.3-0.4,0.6-0.4c0.1,0,0.1,0,0.2,0.1l2.6,1.8l24.8-35.4l-2.6-1.8
				c-0.2-0.2-0.3-0.5-0.1-0.7c0-0.1,0.1-0.1,0.2-0.1l10.1-5.4c0.2-0.1,0.5,0,0.7,0.2c0,0.1,0.1,0.2,0.1,0.3l-1.7,11.3
				c0,0.3-0.3,0.4-0.6,0.4c-0.1,0-0.1,0-0.2-0.1l-2.6-1.8C52.5,24.4,27.7,59.8,27.7,59.8z"/>
			<path class="st1" d="M49.3,59.8l-2.6,1.8c-0.2,0.2-0.3,0.5-0.1,0.7c0,0.1,0.1,0.1,0.2,0.1l10.1,5.4c0.2,0.1,0.5,0,0.7-0.2
				c0-0.1,0.1-0.2,0.1-0.3l-1.7-11.3c0-0.3-0.3-0.4-0.6-0.4c-0.1,0-0.1,0-0.2,0.1l-2.6,1.8L27.7,22.2l2.6-1.8
				c0.2-0.2,0.3-0.5,0.1-0.7c0-0.1-0.1-0.1-0.2-0.1l-10.1-5.4c-0.2-0.1-0.5,0-0.7,0.2c0,0.1-0.1,0.2-0.1,0.3l1.7,11.3
				c0,0.3,0.3,0.4,0.6,0.4c0.1,0,0.1,0,0.2-0.1l2.6-1.8L49.3,59.8z"/>
			<ellipse class="st2" cx="38" cy="41" rx="9.6" ry="9.8"/>
			<path class="st3" d="M38.9,36.1c1.6,0.3,2.5,1.2,2.7,2.8h-1.8c-0.1-0.5-0.3-0.8-0.6-1c-0.3-0.2-0.7-0.3-1.3-0.3
				c-0.5,0-0.9,0.1-1.1,0.2c-0.3,0.2-0.4,0.4-0.4,0.8c0,0.3,0.2,0.5,0.7,0.8c0.3,0.1,0.8,0.3,1.7,0.5c1,0.2,1.7,0.5,2.2,0.9
				c0.7,0.5,1,1.1,1,1.9c0,1.7-1,2.6-2.9,2.8v1.3h-1.8v-1.3c-1.8-0.3-2.8-1.3-2.9-3.1H36c0.1,0.6,0.3,1,0.6,1.2
				c0.3,0.2,0.7,0.3,1.4,0.3c1.3,0,2-0.4,2-1.1c0-0.4-0.2-0.8-0.7-1c-0.3-0.1-0.8-0.3-1.7-0.5c-1-0.2-1.7-0.5-2.1-0.8
				c-0.7-0.4-1-1.1-1-1.8c0-0.8,0.3-1.5,1-1.9c0.5-0.4,1.1-0.6,1.8-0.7v-1h1.8C38.9,35.1,38.9,36.1,38.9,36.1z"/>
		</g>
	</g>
</g>
</svg>
