<?xml version="1.0" encoding="utf-8"?>
<!-- Generator: Adobe Illustrator 22.1.0, SVG Export Plug-In . SVG Version: 6.00 Build 0)  -->
<svg version="1.1" id="圖層_1" xmlns="http://www.w3.org/2000/svg" xmlns:xlink="http://www.w3.org/1999/xlink" x="0px" y="0px"
	 viewBox="0 0 80 80" style="enable-background:new 0 0 80 80;" xml:space="preserve">
<style type="text/css">
	.st0{filter:url(#b);}
	.st1{fill:#2AD3B8;}
	.st2{fill:#FFFFFF;}
	.st3{fill:#316FC9;}
</style>
<filter  filterUnits="objectBoundingBox" height="105.1%" id="b" width="105.4%" x="-2.7%" y="-2.1%">
	<feOffset  dy="1" in="SourceAlpha" result="shadowOffsetOuter1"></feOffset>
	<feGaussianBlur  in="shadowOffsetOuter1" result="shadowBlurOuter1" stdDeviation="2"></feGaussianBlur>
	<feColorMatrix  in="shadowBlurOuter1" result="shadowMatrixOuter1" values="0 0 0 0 0 0 0 0 0 0 0 0 0 0 0 0 0 0 0.2 0">
		</feColorMatrix>
	<feMerge>
		<feMergeNode  in="shadowMatrixOuter1"></feMergeNode>
		<feMergeNode  in="SourceGraphic"></feMergeNode>
	</feMerge>
</filter>
<g>
	<g transform="translate(-80 -32)" class="st0">
		<g transform="translate(80 32)">
			<path class="st1" d="M33,29h14c9.9,0,18,8.1,18,18s-8.1,18-18,18H33c-9.9,0-18-8.1-18-18S23.1,29,33,29z"/>
			<path class="st1" d="M49,41h18c1.1,0,2,0.9,2,2v8c0,1.1-0.9,2-2,2H49c-1.1,0-2-0.9-2-2v-8C47,41.9,47.9,41,49,41z"/>
			<g transform="translate(30 61)">
				<path class="st1" d="M14.5,0h5C19.8,0,20,0.2,20,0.5v7C20,7.8,19.8,8,19.5,8h-5C14.2,8,14,7.8,14,7.5v-7C14,0.2,14.2,0,14.5,0z"
					/>
				<path class="st1" d="M0.5,0h5C5.8,0,6,0.2,6,0.5v7C6,7.8,5.8,8,5.5,8h-5C0.2,8,0,7.8,0,7.5v-7C0,0.2,0.2,0,0.5,0z"/>
			</g>
			<path class="st2" d="M33,33h14c0.6,0,1,0.4,1,1l0,0c0,0.6-0.4,1-1,1H33c-0.6,0-1-0.4-1-1l0,0C32,33.4,32.4,33,33,33z"/>
			<path class="st1" d="M60,27v9h-6v-3C54,29.7,56.7,27,60,27z"/>
			<circle class="st2" cx="40" cy="21" r="10"/>
			<path class="st3" d="M41,16c1.7,0.3,2.7,1.2,2.9,2.9h-2c-0.1-0.5-0.4-0.8-0.6-1c-0.3-0.2-0.8-0.3-1.4-0.3c-0.5,0-1,0.1-1.2,0.2
				c-0.3,0.2-0.5,0.4-0.5,0.8c0,0.3,0.2,0.6,0.7,0.8c0.3,0.1,0.9,0.3,1.9,0.5c1,0.3,1.8,0.5,2.3,0.9c0.7,0.5,1.1,1.1,1.1,2
				c0,1.7-1.1,2.7-3.2,2.9V27h-2v-1.3c-2-0.3-3-1.3-3.2-3.2h2c0.1,0.6,0.3,1,0.6,1.3c0.3,0.2,0.8,0.3,1.5,0.3c1.4,0,2.2-0.4,2.2-1.2
				c0-0.4-0.3-0.8-0.8-1c-0.3-0.1-0.9-0.3-1.8-0.5c-1.1-0.3-1.9-0.5-2.3-0.8c-0.7-0.5-1.1-1.1-1.1-1.9c0-0.9,0.3-1.5,1.1-2
				c0.5-0.4,1.2-0.6,1.9-0.7v-1h2C41,15,41,16,41,16z"/>
		</g>
	</g>
</g>
</svg>
