<?xml version="1.0" encoding="utf-8"?>
<!-- Generator: Adobe Illustrator 22.1.0, SVG Export Plug-In . SVG Version: 6.00 Build 0)  -->
<svg version="1.1" id="圖層_1" xmlns="http://www.w3.org/2000/svg" xmlns:xlink="http://www.w3.org/1999/xlink" x="0px" y="0px"
	 viewBox="0 0 80 80" style="enable-background:new 0 0 80 80;" xml:space="preserve">
<style type="text/css">
	.st0{filter:url(#b);}
	.st1{fill:#FFFFFF;}
	.st2{fill:#316FC9;}
	.st3{fill:#2AD3B8;}
</style>
<filter  filterUnits="objectBoundingBox" height="105.1%" id="b" width="105.4%" x="-2.7%" y="-2.1%">
	<feOffset  dy="1" in="SourceAlpha" result="shadowOffsetOuter1"></feOffset>
	<feGaussianBlur  in="shadowOffsetOuter1" result="shadowBlurOuter1" stdDeviation="2"></feGaussianBlur>
	<feColorMatrix  in="shadowBlurOuter1" result="shadowMatrixOuter1" values="0 0 0 0 0 0 0 0 0 0 0 0 0 0 0 0 0 0 0.2 0">
		</feColorMatrix>
	<feMerge>
		<feMergeNode  in="shadowMatrixOuter1"></feMergeNode>
		<feMergeNode  in="SourceGraphic"></feMergeNode>
	</feMerge>
</filter>
<g>
	<g transform="translate(-80 -32)" class="st0">
		<g transform="translate(80 32)">
			<g transform="translate(28 9)">
				<circle class="st1" cx="12" cy="12" r="12"/>
				<path class="st2" d="M13.4,6c2.1,0.3,3.2,1.5,3.5,3.4h-2.4c-0.2-0.6-0.4-1-0.8-1.2C13.3,8,12.8,7.9,12,7.9
					c-0.6,0-1.1,0.1-1.5,0.3C10.2,8.4,10,8.7,10,9.1c0,0.3,0.3,0.7,0.9,0.9c0.4,0.1,1.1,0.4,2.2,0.6c1.3,0.3,2.2,0.6,2.8,1.1
					c0.9,0.6,1.3,1.4,1.3,2.4c0,2.1-1.3,3.2-3.8,3.5v1.6H11v-1.6c-2.3-0.3-3.6-1.6-3.8-3.9h2.4c0.1,0.7,0.4,1.2,0.8,1.5
					c0.4,0.3,0.9,0.4,1.8,0.4c1.7,0,2.6-0.5,2.6-1.4c0-0.5-0.3-0.9-1-1.2c-0.3-0.2-1.1-0.4-2.2-0.6c-1.3-0.3-2.2-0.6-2.8-1
					c-0.9-0.5-1.3-1.3-1.3-2.3c0-1,0.4-1.8,1.3-2.4C9.4,6.4,10.1,6.1,11,6V4.8h2.4C13.4,4.8,13.4,6,13.4,6z"/>
			</g>
			<path class="st3" d="M17.5,60h19c0.3,0,0.5,0.2,0.5,0.5v5c0,0.3-0.2,0.5-0.5,0.5h-19c-0.3,0-0.5-0.2-0.5-0.5v-5
				C17,60.2,17.2,60,17.5,60z"/>
			<path class="st3" d="M17.5,53h19c0.3,0,0.5,0.2,0.5,0.5v5c0,0.3-0.2,0.5-0.5,0.5h-19c-0.3,0-0.5-0.2-0.5-0.5v-5
				C17,53.2,17.2,53,17.5,53z"/>
			<path class="st3" d="M43.5,60h19c0.3,0,0.5,0.2,0.5,0.5v5c0,0.3-0.2,0.5-0.5,0.5h-19c-0.3,0-0.5-0.2-0.5-0.5v-5
				C43,60.2,43.2,60,43.5,60z"/>
			<path class="st3" d="M43.5,53h19c0.3,0,0.5,0.2,0.5,0.5v5c0,0.3-0.2,0.5-0.5,0.5h-19c-0.3,0-0.5-0.2-0.5-0.5v-5
				C43,53.2,43.2,53,43.5,53z"/>
			<path class="st3" d="M43.5,46h19c0.3,0,0.5,0.2,0.5,0.5v5c0,0.3-0.2,0.5-0.5,0.5h-19c-0.3,0-0.5-0.2-0.5-0.5v-5
				C43,46.2,43.2,46,43.5,46z"/>
			<path class="st3" d="M43.5,39h19c0.3,0,0.5,0.2,0.5,0.5v5c0,0.3-0.2,0.5-0.5,0.5h-19c-0.3,0-0.5-0.2-0.5-0.5v-5
				C43,39.2,43.2,39,43.5,39z"/>
		</g>
	</g>
</g>
</svg>
