<?xml version="1.0" encoding="utf-8"?>
<!-- Generator: Adobe Illustrator 22.1.0, SVG Export Plug-In . SVG Version: 6.00 Build 0)  -->
<svg version="1.1" id="圖層_1" xmlns="http://www.w3.org/2000/svg" xmlns:xlink="http://www.w3.org/1999/xlink" x="0px" y="0px"
	 viewBox="0 0 80 80" style="enable-background:new 0 0 80 80;" xml:space="preserve">
<style type="text/css">
	.st0{filter:url(#b);}
	.st1{fill:#2AD3B8;}
	.st2{fill:#FFFFFF;}
	.st3{fill:#316FC9;}
	.st4{fill:#316FC9;stroke:#2AD3B8;stroke-width:0.625;}
</style>
<filter  filterUnits="objectBoundingBox" height="105.1%" id="b" width="105.4%" x="-2.7%" y="-2.1%">
	<feOffset  dy="1" in="SourceAlpha" result="shadowOffsetOuter1"></feOffset>
	<feGaussianBlur  in="shadowOffsetOuter1" result="shadowBlurOuter1" stdDeviation="2"></feGaussianBlur>
	<feColorMatrix  in="shadowBlurOuter1" result="shadowMatrixOuter1" values="0 0 0 0 0 0 0 0 0 0 0 0 0 0 0 0 0 0 0.2 0">
		</feColorMatrix>
	<feMerge>
		<feMergeNode  in="shadowMatrixOuter1"></feMergeNode>
		<feMergeNode  in="SourceGraphic"></feMergeNode>
	</feMerge>
</filter>
<g>
	<g transform="translate(-80 -32)" class="st0">
		<g transform="translate(80 32)">
			<path class="st1" d="M40,68.7c15.9,0,28.8-12.9,28.8-28.8S55.9,11.2,40,11.2S11.2,24.1,11.2,40S24.1,68.7,40,68.7z M40,70
				c-16.6,0-30-13.4-30-30s13.4-30,30-30s30,13.4,30,30S56.6,70,40,70z"/>
			<path class="st1" d="M40,58.7c10.4,0,18.8-8.4,18.8-18.8S50.4,21.2,40,21.2S21.2,29.6,21.2,40S29.6,58.7,40,58.7z M40,60
				c-11,0-20-9-20-20s9-20,20-20s20,9,20,20S51,60,40,60z"/>
			<circle class="st2" cx="40" cy="40" r="10"/>
			<path class="st3" d="M41.2,35c1.7,0.3,2.7,1.2,2.9,2.9h-2c-0.1-0.5-0.4-0.8-0.6-1c-0.3-0.2-0.8-0.3-1.4-0.3c-0.5,0-1,0.1-1.2,0.2
				c-0.3,0.2-0.5,0.4-0.5,0.8c0,0.3,0.2,0.6,0.7,0.8c0.3,0.1,0.9,0.3,1.9,0.5c1,0.3,1.8,0.5,2.3,0.9c0.7,0.5,1.1,1.1,1.1,2
				c0,1.7-1.1,2.7-3.2,2.9V46h-2v-1.3c-2-0.3-3-1.3-3.2-3.2h2c0.1,0.6,0.3,1,0.6,1.3c0.3,0.2,0.8,0.3,1.5,0.3c1.4,0,2.2-0.4,2.2-1.2
				c0-0.4-0.3-0.8-0.8-1c-0.3-0.1-0.9-0.3-1.8-0.5c-1.1-0.3-1.9-0.5-2.3-0.8c-0.7-0.5-1.1-1.1-1.1-1.9c0-0.9,0.3-1.5,1.1-2
				c0.5-0.4,1.2-0.6,1.9-0.7v-1h2C41.2,34,41.2,35,41.2,35z"/>
			<path class="st4" d="M33.3,42L7.5,51.5l6.6,2.5l-1.2,7L34,43.4L33.3,42L33.3,42z"/>
		</g>
	</g>
</g>
</svg>
