<svg width="87" height="98" xmlns="http://www.w3.org/2000/svg">
    <g fill="none" fill-rule="evenodd">
        <text fill="#0087D5" fill-rule="nonzero" font-family="Rajdhani-Bold, Rajdhani" font-size="21.112" font-weight="bold" transform="translate(1 .114)">
                    <tspan x="33.658" y="39.185">$</tspan>
                </text>
        <path d="M23.768 43.198S6.806 51.908 13.56 73.02c0 0 3.048 8.71 11.384 12.542l2.112 10.55h8.222l2.315-6.466s8.07 1.45 14.293-.53l1.986 6.997h8.221l2.378-10.69a23.685 23.685 0 0 0 11.915-10.953L85 70.903V61.4l-6.931-3.164s-.279-3.68-4.428-7.991M9.766 60.227c-3.795-.39-7.805-1.172-7.59-4.853a2.52 2.52 0 0 1 1.086-1.64A2.537 2.537 0 0 1 5.2 53.37c2.821.53 3.049 3.618 2.454 5.899A7.732 7.732 0 0 1 1 65.105" stroke="#0087D5" stroke-width="2.75"/>
        <path d="M28.536 47.798s11.384-4.853 22.148.391" stroke="#64B5E4" stroke-width="2.75"/>
        <path d="M57.236 40.929a37.07 37.07 0 0 1 14.407-4.941s2.922 16.386-3.2 17.848c0-.025-13.888 2.71-11.207-12.907z" stroke="#0087D5" stroke-width="2.75"/>
        <path stroke="#64B5E4" stroke-width="2.75" d="M26.715 14.69V5.122M49.622 11.988V.114M54.264 17.076V8.442M55.3 31.601a15.465 15.465 0 0 1-6.956 12.945M31.028 44.47a15.504 15.504 0 0 1-6.465-16.37c1.453-6.264 6.63-10.988 13.02-11.88 6.39-.893 12.67 2.23 15.795 7.856"/>
        <path d="M65.736 59.382s.316 3.34 3.036 3.34c0 0 2.53.24 2.795-3.1" stroke="#0087D5" stroke-width="2.75"/>
    </g>
</svg>
