<svg width="104" height="107" xmlns="http://www.w3.org/2000/svg">
    <g stroke-width="2.75" fill="none" fill-rule="evenodd">
        <path stroke="#0087D5" d="m54.03 44.696 16.513-10.251L101 51.693l-15.507 9.732M67.337 72.822 52.015 82.43 21.063 65.168 37.33 55.069"/>
        <path stroke="#0087D5" d="m67.368 80.2-15.353 9.64-30.952-17.278M101 59.087l-15.368 9.64"/>
        <path stroke="#0087D5" d="m67.368 87.93-15.353 9.64-30.952-17.278M101 66.818l-15.368 9.64"/>
        <path stroke="#0087D5" d="m67.368 95.661-15.353 9.625-30.952-17.263M101 74.548l-15.368 9.64"/>
        <path stroke="#64B5E4" d="M40.614 53.114 71.1 70.072v22.93l10.457-6.675.077-22.229L50.87 46.651zM81.635 64.098l-5.964 3.636"/>
        <path stroke="#0087D5" d="M35.672 12.72 52.48 2.286l30.457 17.248-15.507 9.732M49.273 40.663l-15.32 9.624L3 33.01l16.235-10.083M29.01 54.9 3 40.419M82.937 26.944l-8.149 5.133M22.194 58.965 3 48.133M82.937 34.674l-2.851 1.787M16.927 63.533 3 55.863"/>
        <path stroke="#64B5E4" d="m63.557 35.606.015-3.651-30.766-17.462L22.55 20.97l30.488 16.943v4.247M63.572 31.955l-5.964 3.62"/>
    </g>
</svg>
