<svg width="583" height="348" xmlns="http://www.w3.org/2000/svg">
    <g fill="#CBEDFA" fill-rule="evenodd" opacity=".3">
        <path d="M577.127 78.207h.939V.114h-.939zM548.396 130.515h.937V.85h-.937zM519.662 124.621h.939v-76.62h-.939zM491.666 139.356h.94V3.797h-.94zM462.198 145.25h.937V29.582h-.937zM434.202 182.823h.938V23.689h-.938zM405.47 151.88h.938v-44.204h-.939zM377.473 198.294h.939V66.419h-.939zM348.003 207.872h.94V73.787h-.94zM320.008 204.925h.939v-98.722h-.939zM292.013 162.194h.938V93.678h-.938zM262.543 213.765h.94V71.576h-.94zM233.811 188.717h.939V149.67h-.939zM205.078 201.24h.94v-49.36h-.94zM177.083 322.065h.938V88.52h-.938zM148.35 263.863h.939v-66.306h-.939zM119.617 277.124h.94v-62.622h-.94zM91.621 301.436h.94v-110.51h-.94zM62.89 304.383h.937v-95.038h-.937zM34.156 347.114h.94V240.288h-.94zM5.425 342.693h.937v-89.88h-.937z"/>
        <path d="M570.966 50.948h11.788V26.636h-11.788zM542.97 84.1h11.788V45.055H542.97zM514.238 99.572h11.787V75.997h-11.787zM486.242 91.468h11.788V50.211h-11.788zM457.51 104.73h11.787V70.102H457.51zM428.777 127.568h11.788V78.944h-11.788zM400.781 135.672h11.788V122.41h-11.788zM372.049 152.617h11.788v-39.784h-11.788zM342.58 161.458h11.787V120.2H342.58zM314.584 172.508h11.788v-30.205h-11.788zM285.851 138.619h11.788V117.99h-11.788zM257.856 164.404h11.787v-43.467h-11.787zM228.386 174.719h11.788v-12.525h-11.788zM200.39 183.56h11.788v-14.735h-11.787zM172.395 240.288h11.788v-70.726h-11.788zM142.926 241.024h11.787v-19.891h-11.787zM114.193 255.022h11.788v-19.155h-11.788zM85.46 263.126h11.788v-33.89H85.461zM57.465 272.704h11.788v-29.47H57.465zM27.996 318.381h11.787v-37.573H27.996zM0 311.014h11.788v-27.26H0z"/>
    </g>
</svg>
