<svg xmlns="http://www.w3.org/2000/svg" xmlns:xlink="http://www.w3.org/1999/xlink" width="190" height="190" viewBox="0 0 190 190">
    <defs>
        <circle id="a" cx="95" cy="95" r="95"/>
        <path id="c" d="M85 0h31.137l-32.21 266.025H.877v-6.009l54.435-14.826z"/>
        <path id="e" d="M85 0h31.137l-32.21 266.025H.877v-6.009l54.435-14.826z"/>
        <path id="g" d="M37.865 8.577L4.26 52.803c-6.526 8.588-4.853 20.84 3.736 27.365 8.59 6.525 20.843 4.852 27.37-3.737L68.97 32.206c6.526-8.589 4.853-20.84-3.736-27.365-8.59-6.525-20.843-4.853-27.37 3.736z"/>
        <path id="i" d="M40.12 87.309V20.057C40.12 8.98 31.14 0 20.06 0 8.981 0 0 8.98 0 20.057v99.981c0 14.977 15.82 24.67 29.167 17.872l87.898-44.777c9.871-5.029 13.796-17.107 8.767-26.977-5.03-9.87-17.109-13.795-26.98-8.766L40.12 87.309z"/>
        <path id="k" d="M53.869 125.326l63.196-32.193c9.871-5.029 13.796-17.107 8.767-26.977-5.03-9.87-17.109-13.795-26.98-8.766L35.656 89.583c-9.872 5.028-13.797 17.106-8.768 26.977 5.03 9.87 17.11 13.795 26.98 8.766z"/>
        <linearGradient id="m" x1="50%" x2="50%" y1="5.621%" y2="99.529%">
            <stop offset="0%" stop-color="#5C5854"/>
            <stop offset="100%" stop-color="#46342B"/>
        </linearGradient>
    </defs>
    <g fill="none" fill-rule="evenodd">
        <mask id="b" fill="#fff">
            <use xlink:href="#a"/>
        </mask>
        <use fill="#91E3E1" xlink:href="#a"/>
        <g mask="url(#b)">
            <g transform="matrix(-1 0 0 1 216.444 346.253)">
                <mask id="d" fill="#fff">
                    <use xlink:href="#c"/>
                </mask>
                <use fill="#43585F" xlink:href="#c"/>
                <path fill="#316D81" d="M-14.781 262.858h115.082v52.783H-14.781z" mask="url(#d)"/>
                <path fill="#39B4DD" d="M-9.502 211.131H105.58v51.727H-9.502z" mask="url(#d)"/>
                <path fill="#76D2F1" d="M42.232 217.465H72.85l-2.771 24.28H42.232z" mask="url(#d)"/>
                <path fill="#39B4DD" d="M42.232 226.966H72.85v6.334H42.232z" mask="url(#d)"/>
                <path fill="#39B4DD" fill-rule="nonzero" d="M74.385 33.949l43.486 33.78 5.182-6.669-43.486-33.78zM74.385 57.173l43.486 33.78 5.182-6.668-43.486-33.781z" mask="url(#d)"/>
            </g>
            <g transform="translate(-29.556 346.253)">
                <mask id="f" fill="#fff">
                    <use xlink:href="#e"/>
                </mask>
                <use fill="#43585F" xlink:href="#e"/>
                <path fill="#39B4DD" d="M-9.502 211.131H105.58v51.727H-9.502z" mask="url(#f)"/>
                <path fill="#316D81" d="M-14.781 262.858h115.082v52.783H-14.781z" mask="url(#f)"/>
                <path fill="#76D2F1" d="M42.232 217.465H72.85l-2.771 24.28H42.232z" mask="url(#f)"/>
                <path fill="#39B4DD" d="M42.232 226.966H72.85v6.334H42.232z" mask="url(#f)"/>
                <path fill="#39B4DD" fill-rule="nonzero" d="M69.203 33.949l43.486 33.78 5.182-6.669-43.486-33.78zM69.203 57.173l43.486 33.78 5.182-6.668-43.486-33.781z" mask="url(#f)"/>
            </g>
            <path fill="#4E656C" fill-rule="nonzero" d="M158.512 256.673l-35.996 47.373c-6.526 8.589-4.853 20.84 3.737 27.365 8.59 6.525 20.843 4.853 27.369-3.736l46.545-61.256c6.01-7.91 5.124-19.069-2.057-25.932l-61.685-58.957c-7.798-7.453-20.161-7.174-27.615.622-7.454 7.797-7.176 20.16.622 27.612l49.08 46.91z"/>
            <g transform="translate(118.256 251.244)">
                <mask id="h" fill="#fff">
                    <use xlink:href="#g"/>
                </mask>
                <use fill="#76D2F1" fill-rule="nonzero" xlink:href="#g"/>
                <path fill="#39B4DD" fill-rule="nonzero" d="M21.258-28.682L-14.74 18.695c-6.991 9.2-5.199 22.325 4.003 29.315 9.201 6.99 22.328 5.198 29.319-4.003L54.58-3.369c6.991-9.2 5.199-22.326-4.003-29.315-9.201-6.99-22.328-5.198-29.319 4.002z" mask="url(#h)"/>
            </g>
            <path fill="#D89C77" d="M64.41 158.346h45.4v19.002h-45.4z"/>
            <path fill="#43585F" d="M64.41 171.014h45.4v6.334h-45.4z"/>
            <path fill="#319CC0" d="M64.41 158.346h12.67v19.002H64.41zM105.586 158.346h4.223v19.002h-4.223z"/>
            <path fill="#43585F" d="M32.736 217.463h114.026v111.9c0 15.158-12.29 27.446-27.45 27.446H60.186c-15.16 0-27.45-12.288-27.45-27.447v-111.9z"/>
            <path fill="#008FC7" d="M32.736 316.694h114.026v12.668H32.736z"/>
            <path fill="#39B4DD" d="M50.685 175.236h68.626c15.161 0 27.451 12.289 27.451 27.448v53.838H32.736v-63.34c0-9.91 8.036-17.946 17.949-17.946z"/>
            <g fill="#76D2F1">
                <path d="M73.912 200.572h25.34v3.167h-25.34zM73.912 206.906h25.34v3.167h-25.34z"/>
            </g>
            <path fill="#D89C77" fill-rule="nonzero" d="M153.928 317.194l.842-.99a7.389 7.389 0 0 0-1.493-10.912l1.493-1.756a7.391 7.391 0 0 0-11.26-9.575l-4.49 5.278a7.389 7.389 0 0 0 1.494 10.912l-1.493 1.756a7.389 7.389 0 0 0 2.954 11.678l-.842.99a7.391 7.391 0 0 0 11.26 9.575l4.489-5.278a7.389 7.389 0 0 0-2.954-11.678z"/>
            <g transform="translate(29.569 175.236)">
                <mask id="j" fill="#fff">
                    <use xlink:href="#i"/>
                </mask>
                <use fill="#5A7A84" fill-rule="nonzero" xlink:href="#i"/>
                <path fill="#4E656C" d="M1.996 0h6.566c11.598 0 21 9.402 21 21v85.096h29.112v34.306h-77.678V21c0-11.598 9.402-21 21-21z" mask="url(#j)"/>
                <ellipse cx="5.279" cy="39.059" stroke="#39B4DD" stroke-width="4" mask="url(#j)" rx="14.781" ry="14.779"/>
                <ellipse cx="5.279" cy="39.059" fill="#39B4DD" mask="url(#j)" rx="7.391" ry="7.39"/>
                <mask id="l" fill="#fff">
                    <use xlink:href="#k"/>
                </mask>
                <use fill="#76D2F1" fill-rule="nonzero" xlink:href="#k"/>
                <path fill="#39B4DD" fill-rule="nonzero" d="M26.53 106.454l71.198-36.27c11.122-5.665 15.544-19.273 9.878-30.393-5.666-11.12-19.275-15.542-30.397-9.877L6.011 66.184C-5.111 71.85-9.533 85.457-3.867 96.577c5.666 11.12 19.276 15.542 30.397 9.877z" mask="url(#l)"/>
            </g>
            <g fill="#E6AA86" transform="translate(101.363 230.13)">
                <g fill-rule="nonzero">
                    <path d="M8.81 35.155l11.115-7.847A7.389 7.389 0 0 0 21.7 17.01a7.391 7.391 0 0 0-10.3-1.775l-13.624 9.618a7.39 7.39 0 0 0-3.024 4.799l-2.038 11.996a7.39 7.39 0 1 0 14.572 2.476l1.524-8.97zM55.532 44.512L50.07 31.9a7.39 7.39 0 0 0-13.563 5.873l6.098 14.08a7.39 7.39 0 0 0 1.82 2.54l8.702 7.88a7.391 7.391 0 0 0 9.923-10.954l-7.517-6.807zM59.118 15.185a7.391 7.391 0 0 0-12.657 7.633l11.085 18.377a7.39 7.39 0 0 0 3.186 2.872l9.196 4.318a7.391 7.391 0 0 0 6.284-13.377l-7.166-3.366-9.928-16.457z"/>
                    <path d="M31.615 29.683a7.39 7.39 0 0 0-14.663 1.862L19.385 50.7a7.389 7.389 0 0 0 1.394 3.47l7.128 9.615a7.391 7.391 0 0 0 11.875-8.8l-5.978-8.064-2.19-17.238z"/>
                </g>
                <rect width="52.79" height="40.115" x="7.391" rx="20.057"/>
            </g>
            <g>
                <path fill="#C5C5C5" fill-rule="nonzero" d="M127.922 229.089v14.175h3.15v-14.175zM143.672 229.089v14.175h3.15v-14.175zM149.782 217.724c4.939 3.904 11.715 4.865 20.218 2.984l-.681-3.076c-7.653 1.694-13.476.868-17.583-2.379l-1.954 2.471z"/>
                <path fill="#E1E1E1" d="M113.747 184.989h44.1v50.4h-44.1z"/>
                <path fill="#C5C5C5" d="M113.747 184.989h9.45v50.4h-9.45z"/>
                <path fill="#F7F7F7" fill-rule="nonzero" d="M116.139 217.475c4.938 3.902 11.714 4.863 20.216 2.982l-.68-3.075c-7.653 1.692-13.477.867-17.583-2.379l-1.953 2.472z"/>
                <g transform="translate(133.434 196.801)">
                    <path fill="#E82087" d="M9.844 1.575l1.969 5.513H7.874z"/>
                    <rect width="4.725" height="4.725" fill="#4668CB" rx="2.362"/>
                    <rect width="4.725" height="4.725" x="13.387" fill="#4668CB" rx="2.362"/>
                </g>
            </g>
            <g fill="#39B4DD">
                <path d="M125.646 81.283c6.997 0 12.67 5.672 12.67 12.668v12.668c0 6.996-5.673 12.668-12.67 12.668h-9.502c-5.831 0-10.558-4.727-10.558-10.557V91.84c0-5.83 4.727-10.557 10.558-10.557h9.502z"/>
                <path fill-rule="nonzero" d="M122.43 114.008v23.819l-3.221 8.627-10.456 3.298v7.752l11.41-2.176 7.57-8.874 2.357-11.849h2.947v-20.597z"/>
            </g>
            <g>
                <path fill="#E6AA86" d="M47.517 52.78h80.24v81.286c0 13.992-11.344 25.336-25.338 25.336H72.856c-13.994 0-25.339-11.344-25.339-25.336V52.78z"/>
                <path fill="#D89C77" d="M47.517 52.78h21.116v106.622c-11.662 0-21.116-9.453-21.116-21.113V52.78z"/>
            </g>
            <g>
                <path fill="url(#m)" d="M11.614 32.725V46.45H6.863v13.413H2.112V32.725C-1.692 22.02.456 15.282 8.557 12.513c4.146-2.13 14.978-2.448 21.713 6.043C52.06 5.89 71.563-4.344 91.034 1.868c19.295 6.156 13.152 30.413-8.682 30.851v13.73h-4.223V32.725H11.614z" transform="translate(45.406 24.278)"/>
                <path fill="#FFF" fill-rule="nonzero" d="M118.262 50.896a2.112 2.112 0 0 0 3.528.537l5.32-6.125 3.945 3.286c.38.316.858.489 1.352.489h5.242a2.111 2.111 0 1 0 0-4.223h-4.478l-4.947-4.12a2.112 2.112 0 0 0-2.945.238l-4.49 5.166-3.94-8.99c-.678-1.546-2.807-1.711-3.715-.288l-5.1 7.994h-7.727a2.111 2.111 0 1 0 0 4.223h8.884c.721 0 1.393-.368 1.78-.976l3.597-5.637 3.694 8.426z"/>
            </g>
            <g>
                <path fill="#39B4DD" fill-rule="nonzero" d="M90.055 154.123H72.856c-11.078 0-15.836-8.98-15.836-20.057v-20.058H42.238v20.058c0 16.908 13.709 30.614 30.618 30.614h29.563c21.816 0 30.281-11.918 30.618-29.548v-1.066h-5.28c0 10.086-5.94 17.217-17.439 19.374a7.392 7.392 0 0 0-6.843-4.595H97.14a7.393 7.393 0 0 0-7.084 5.278z"/>
                <path fill="#39B4DD" d="M42.238 81.283h9.503c5.83 0 10.558 4.726 10.558 10.557v16.89c0 5.83-4.727 10.557-10.558 10.557h-9.503c-6.997 0-12.67-5.672-12.67-12.668V93.95c0-6.996 5.673-12.668 12.67-12.668z"/>
                <path fill="#76D2F1" d="M42.238 81.283c6.998 0 12.67 5.672 12.67 12.668v12.668c0 6.996-5.672 12.668-12.67 12.668-6.997 0-12.67-5.672-12.67-12.668V93.95c0-6.996 5.673-12.668 12.67-12.668z"/>
                <g fill="#39B4DD">
                    <path d="M34.848 92.895h12.67v3.167h-12.67zM34.848 99.23h12.67v3.166h-12.67zM34.848 105.563h12.67v3.167h-12.67z"/>
                </g>
            </g>
            <g transform="translate(59.131 81.283)">
                <path fill="#4A4A4A" fill-rule="nonzero" d="M20.632 52.098c1.113 4.622 3.058 7.046 6.998 8.29 3.357 1.06 7.695 1.29 18.446 1.217a1.584 1.584 0 1 0-.02-3.166c-18.396.123-20.792-.633-22.345-7.083a1.584 1.584 0 0 0-3.079.742z"/>
                <rect width="77.073" height="38.004" fill="#FFECE2" opacity=".899" rx="19.002"/>
                <path fill="#FA7560" d="M46.455 30.614l5.279 14.76H41.176z"/>
                <path fill="#4A4A4A" d="M27.45 16.89a3.167 3.167 0 0 1 3.168 3.167v3.167a3.167 3.167 0 0 1-6.335 0v-3.167a3.167 3.167 0 0 1 3.168-3.167zM21.116 6.334l16.893 2.111v4.223l-16.893-2.111zM64.403 6.334l-14.78 2.111v4.223l14.78-2.111zM53.845 16.89a3.167 3.167 0 0 1 3.168 3.167v3.167a3.167 3.167 0 0 1-6.335 0v-3.167a3.167 3.167 0 0 1 3.167-3.167z"/>
            </g>
        </g>
    </g>
</svg>
