<svg xmlns="http://www.w3.org/2000/svg" width="80" height="80" viewBox="0 0 80 80">
    <g fill="none" fill-rule="evenodd">
        <path fill="#FFF" d="M20.444 33.334h39.111V64.89H20.444z"/>
        <path fill="#D7DEF2" d="M50.667 33.334h8.889V64.89h-8.889z"/>
        <path fill="#91A5DE" d="M37.333 38.667h5.333v7.11h-5.333zM37.333 49.334h5.333v7.11h-5.333zM28.444 38.667h5.333v7.11h-5.333zM28.444 49.334h5.333v7.11h-5.333z"/>
        <path fill="#91E3E1" d="M24.889 17.333H55.11l4.445 16H20.444z"/>
        <path fill="#6EC4C2" d="M55.111 17.333l4.445 16h-8.89z"/>
        <path fill="#FFF" fill-rule="nonzero" d="M14.528 51.111a.59.59 0 0 0-.59.59v1.18h-1.181a.59.59 0 1 0 0 1.18h1.18v1.181a.59.59 0 1 0 1.18 0v-1.18H16.3a.59.59 0 1 0 0-1.18h-1.181v-1.18a.59.59 0 0 0-.59-.59zM47.695 9.778a.59.59 0 0 0-.59.59v1.18h-1.182a.59.59 0 1 0 0 1.18h1.181v1.18a.59.59 0 1 0 1.18 0v-1.18h1.182a.59.59 0 1 0 0-1.18h-1.181v-1.18a.59.59 0 0 0-.59-.59zM64.139 27.556a.59.59 0 0 0-.59.59v1.18h-1.181a.59.59 0 1 0 0 1.18h1.18v1.18a.59.59 0 1 0 1.181 0v-1.18h1.181a.59.59 0 1 0 0-1.18h-1.18v-1.18a.59.59 0 0 0-.591-.59z"/>
    </g>
</svg>
