<svg xmlns="http://www.w3.org/2000/svg" width="80" height="80" viewBox="0 0 80 80">
    <g fill="none" fill-rule="evenodd">
        <g transform="translate(-8 5)">
            <path fill="#D7DEF2" d="M49.96 15.33h3.355a1.489 1.489 0 0 1 0 2.977H29.451a1.489 1.489 0 0 1-1.404-1.985h-2.679a1.985 1.985 0 1 1 0-3.97H48.24a1.985 1.985 0 0 1 1.72 2.978z" opacity=".305"/>
            <ellipse cx="55.459" cy="42.35" fill="#D7DEF2" rx="12.219" ry="12.352"/>
            <path fill="#6EC4C2" d="M10.649 30.651c18.035-10.913 37.429 7.976 43.5 17.836 8.813-10.761 18.459-18.392 40.427-12.542v43.02H.472V38.495l10.177-7.845z"/>
            <path fill="#FFF" fill-rule="nonzero" d="M71.306 22.498c.32 0 .58.262.58.586v1.172h1.16c.32 0 .579.261.579.585a.582.582 0 0 1-.58.586h-1.16V26.6a.582.582 0 0 1-.579.585.582.582 0 0 1-.58-.585v-1.172h-1.159a.582.582 0 0 1-.58-.586c0-.324.26-.585.58-.585h1.16v-1.172c0-.324.259-.586.579-.586zM49.922 5.294c.32 0 .58.262.58.585v1.172h1.16c.32 0 .579.262.579.586a.582.582 0 0 1-.58.586h-1.16v1.171a.582.582 0 0 1-.579.586.582.582 0 0 1-.58-.586V8.223h-1.159a.582.582 0 0 1-.58-.586c0-.324.26-.586.58-.586h1.16V5.879c0-.323.259-.585.58-.585zM27.23 19.41c.32 0 .579.262.579.586v1.172h1.16c.32 0 .579.261.579.585a.582.582 0 0 1-.58.586h-1.16v1.172a.582.582 0 0 1-.579.585.582.582 0 0 1-.58-.585v-1.172H25.49a.582.582 0 0 1-.58-.586c0-.324.26-.585.58-.585h1.16v-1.172c0-.324.259-.586.58-.586z"/>
            <path fill="#91E3E1" fill-rule="nonzero" d="M43.003 64.33c-.448.139-.396.796.068.86l21.177 3.675c.24.033 1.366-.782 1.398-1.023a.44.44 0 0 0-.374-.497L45.17 64.587l3.961-1.217c.455-.14.393-.81-.08-.86l-11.248-1.225a.438.438 0 0 0-.481.391.44.44 0 0 0 .387.486l9.121.993-3.826 1.176z"/>
        </g>
        <path fill="#D7DEF2" d="M26.714 56h6L34 60.77V66h-9v-5.23z"/>
        <path fill="#FFF" d="M28 61h1v2h-1z"/>
        <path fill="#D7DEF2" d="M28 54h1v3h-1z"/>
        <path fill="#FFF" d="M31 61h1v2h-1zM27.083 51.739a1.875 1.875 0 1 1 1.353-2.902 1.458 1.458 0 0 1 1.088 2.532 1.25 1.25 0 1 1-2.44.37z"/>
    </g>
</svg>
