<svg xmlns="http://www.w3.org/2000/svg" width="80" height="80" viewBox="0 0 80 80">
    <g fill="none" fill-rule="evenodd">
        <path fill="#D5D5D5" d="M53.333 36.444l13.334 24.89H40z"/>
        <path fill="#EFEFEF" d="M53.364 36.444l5.636 10-2.818-1.737-2.818 1.737-2.787-1.737-2.787 1.627z"/>
        <path fill="#D5D5D5" d="M26.667 36.444L40 61.334H13.333z"/>
        <path fill="#EFEFEF" d="M26.667 36.444l5.605 10.51-2.803-1.826-2.802 1.826-2.772-1.826-2.772 1.71z"/>
        <path fill="#FFF" d="M39.555 19.555h1v9.333h-1z"/>
        <path fill="#FFF" d="M39.556 19.556h9.777l-2.666 3.333 2.666 3.333h-9.777z"/>
        <path fill="#E5E5E5" d="M40 28l17.778 33.333H22.222z"/>
        <path fill="#FFF" d="M40 28l7.473 14.012-3.736-2.434L40 42.012l-3.695-2.434-3.696 2.28z"/>
        <path fill="#FFF" fill-rule="nonzero" d="M28.139 15.111a.59.59 0 0 0-.59.59v1.18h-1.181a.59.59 0 1 0 0 1.18h1.18v1.181a.59.59 0 1 0 1.181 0v-1.18h1.181a.59.59 0 1 0 0-1.18h-1.18v-1.18a.59.59 0 0 0-.591-.59zM63.695 37.333a.59.59 0 0 0-.59.59v1.18h-1.182a.59.59 0 1 0 0 1.181h1.181v1.18a.59.59 0 1 0 1.18 0v-1.18h1.182a.59.59 0 1 0 0-1.18h-1.181v-1.18a.59.59 0 0 0-.59-.59zM19.25 31.556a.59.59 0 0 0-.59.59v1.18h-1.18a.59.59 0 1 0 0 1.18h1.18v1.18a.59.59 0 1 0 1.18 0v-1.18h1.181a.59.59 0 1 0 0-1.18h-1.18v-1.18a.59.59 0 0 0-.59-.59z"/>
    </g>
</svg>
