<svg xmlns="http://www.w3.org/2000/svg" width="80" height="80" viewBox="0 0 80 80">
    <g fill="none" fill-rule="evenodd">
        <path fill="#6EC4C2" d="M20.444 27.555h39.111v35.556h-39.11z"/>
        <path fill="#91E3E1" d="M20.444 41.778h39.111v1.778h-39.11zM20.444 45.333h39.111v1.778h-39.11zM20.444 48.89h39.111v1.777h-39.11z"/>
        <g transform="translate(20.444 20.444)">
            <path fill="#91E3E1" d="M0 0h39.111v19.556H0z"/>
            <circle cx="19.556" cy="9.778" r="6.667" stroke="#FFF" stroke-width="3"/>
            <path fill="#FFF" fill-rule="nonzero" d="M20.394 8.97h-.013l-1.215.007h-.005a.597.597 0 0 1-.608-.58l-.004-.583a.596.596 0 0 1 .604-.587l2.432-.015a.596.596 0 0 0 .605-.587.596.596 0 0 0-.608-.58h-.004l-1.19.008-.002-.585a.596.596 0 0 0-.609-.58h-.004a.595.595 0 0 0-.604.588l.004.584h-.027c-1.006.007-1.819.797-1.813 1.762l.005.583c.006.965.823 1.727 1.836 1.739l1.216-.008h.004c.161 0 .313.06.428.168.115.11.179.255.18.412l.005.583a.596.596 0 0 1-.604.587l-.62.003h-.006-.004l-.005.001-1.799.011a.596.596 0 0 0-.604.587c.002.321.274.58.608.58h.004l1.197-.008.003.583c.002.32.274.58.608.58h.004a.595.595 0 0 0 .605-.588l-.004-.582h.02c1.005-.007 1.818-.796 1.812-1.762l-.004-.583c-.006-.961-.824-1.739-1.824-1.739z"/>
        </g>
        <path fill="#FFF" fill-rule="nonzero" d="M54.444 11.111a.61.61 0 0 0-.61.611v1.222H52.61a.61.61 0 1 0 0 1.223h1.222v1.222a.61.61 0 1 0 1.222 0v-1.222h1.223a.61.61 0 1 0 0-1.223h-1.223v-1.222a.61.61 0 0 0-.61-.61zM13.556 30.222a.61.61 0 0 0-.611.611v1.223h-1.223a.61.61 0 1 0 0 1.222h1.223V34.5a.61.61 0 1 0 1.222 0v-1.222h1.222a.61.61 0 1 0 0-1.222h-1.222v-1.223a.61.61 0 0 0-.611-.61zM64.667 48.444a.61.61 0 0 0-.611.612v1.222h-1.223a.61.61 0 1 0 0 1.222h1.223v1.222a.61.61 0 1 0 1.222 0V51.5H66.5a.61.61 0 1 0 0-1.222h-1.222v-1.222a.61.61 0 0 0-.611-.612z"/>
    </g>
</svg>
