<?xml version="1.0" encoding="utf-8"?>
<!-- Generator: Adobe Illustrator 24.3.0, SVG Export Plug-In . SVG Version: 6.00 Build 0)  -->
<svg version="1.1" id="圖層_1" xmlns="http://www.w3.org/2000/svg" xmlns:xlink="http://www.w3.org/1999/xlink" x="0px" y="0px"
	 viewBox="0 0 80 80" style="enable-background:new 0 0 80 80;" xml:space="preserve">
<style type="text/css">
	.st0{display:none;}
	.st1{display:inline;}
	.st2{fill-rule:evenodd;clip-rule:evenodd;fill:#6EC4C2;}
	.st3{fill-rule:evenodd;clip-rule:evenodd;fill:#D7DEF2;}
	.st4{fill-rule:evenodd;clip-rule:evenodd;fill:#FFFFFF;}
	.st5{fill-rule:evenodd;clip-rule:evenodd;fill:#91E3E1;}
	.st6{fill:#FFFFFF;}
	.st7{fill:#D5D5D5;}
	.st8{fill:#EFEFEF;}
	.st9{fill:#E5E5E5;}
</style>
<g id="圖層_1_1_" class="st0">
	<g class="st1">
		<path class="st2" d="M53.3,36.4l13.3,24.9H40L53.3,36.4z"/>
		<path class="st3" d="M53.3,36.4L58.9,47l-2.8-1.8L53.3,47l-2.8-1.8l-2.8,1.7L53.3,36.4z"/>
		<path class="st2" d="M26.7,36.4L40,61.3H13.3L26.7,36.4z"/>
		<path class="st3" d="M26.7,36.4L32.3,47l-2.8-1.8L26.7,47l-2.8-1.8l-2.8,1.7L26.7,36.4z"/>
		<path class="st4" d="M39.6,19.6h1v9.3h-1V19.6z"/>
		<path class="st4" d="M39.6,19.6h9.8l-2.7,3.3l2.7,3.3h-9.8V19.6z"/>
		<path class="st5" d="M40,28l17.8,33.3H22.2L40,28z"/>
		<path class="st4" d="M40,28l7.5,14l-3.7-2.4L40,42l-3.7-2.4l-3.7,2.3L40,28z"/>
		<path class="st6" d="M28.1,15.1c-0.3,0-0.6,0.3-0.6,0.6l0,0v1.2h-1.2c-0.3,0-0.6,0.3-0.6,0.6s0.3,0.6,0.6,0.6h1.2v1.2
			c0,0.3,0.3,0.6,0.6,0.6s0.6-0.3,0.6-0.6v-1.2h1.2c0.3,0,0.6-0.3,0.6-0.6s-0.3-0.6-0.6-0.6h-1.2v-1.2
			C28.7,15.4,28.5,15.1,28.1,15.1L28.1,15.1L28.1,15.1z M63.7,37.3c-0.3,0-0.6,0.3-0.6,0.6l0,0v1.2h-1.2c-0.3,0-0.6,0.3-0.6,0.6
			s0.3,0.6,0.6,0.6h1.2v1.2c0,0.3,0.3,0.6,0.6,0.6s0.6-0.3,0.6-0.6l0,0v-1.2h1.2c0.3,0,0.6-0.3,0.6-0.6s-0.3-0.6-0.6-0.6h-1.2v-1.2
			C64.3,37.6,64,37.3,63.7,37.3L63.7,37.3L63.7,37.3z M19.3,31.6c-0.3,0-0.6,0.3-0.6,0.6l0,0v1.2h-1.2c-0.3,0-0.6,0.3-0.6,0.6
			s0.3,0.6,0.6,0.6h1.2v1.2c0,0.3,0.3,0.6,0.6,0.6s0.6-0.3,0.6-0.6v-1.2H21c0.3,0,0.6-0.3,0.6-0.6s-0.3-0.6-0.6-0.6h-1.2v-1.2
			C19.8,31.8,19.6,31.6,19.3,31.6L19.3,31.6L19.3,31.6z"/>
	</g>
</g>
<g id="圖層_3">
	<path class="st7" d="M28.9,44.2l10-3.3L49.3,44l0.6,16.4c0,0-3.8,4.4-10.6,4.3c-6.8-0.1-10.4-3.2-10.4-3.2L28.9,44.2"/>
</g>
<g id="圖層_4">
	<path class="st8" d="M39.4,13.6l-4,8.2c0,0,0.5,5.1,4,5.1s4.3-5.1,4.3-5.1L39.4,13.6z"/>
	<path class="st8" d="M57.8,25.8l-9.1,0.6c0,0-4.1,2.9-2.4,6c1.7,3.1,6.5,1.3,6.5,1.3L57.8,25.8z"/>
	<path class="st8" d="M21.2,25.6l4.6,7.9c0,0,4.5,2.4,6.4-0.5c1.9-2.9-1.8-6.4-1.8-6.4L21.2,25.6z"/>
</g>
<g id="圖層_2_1_">
	<g>
		<path class="st9" d="M39.4,65.4L39.4,65.4c-5.6,0-11.5-1.8-11.5-5.1v-5.1c0-0.6,0.4-1,1-1l0,0c0.6,0,1,0.4,1,1v5.1
			c0,1.3,3.7,3.1,9.5,3.1h0.1c4.6,0,7.9-1.2,9-2.3c0.3-0.3,0.4-0.5,0.4-0.8v-5.1c0-0.6,0.4-1,1-1l0,0c0.6,0,1,0.4,1,1v5.1
			c0,0.5-0.2,1.4-1,2.2C48.1,64.3,44,65.4,39.4,65.4z"/>
	</g>
	<g>
		<g>
			<path class="st9" d="M39.4,60.4L39.4,60.4c-5.6,0-11.5-1.8-11.5-5.1v-5.1c0-0.6,0.4-1,1-1l0,0c0.6,0,1,0.4,1,1v5.1
				c0,1.3,3.7,3.1,9.5,3.1h0.1c2.6,0,5.1-0.4,7-1.1c1.5-0.6,2.4-1.3,2.4-2v-5.1c0-0.6,0.4-1,1-1l0,0c0.6,0,1,0.4,1,1v5.1
				c0,1.5-1.3,2.9-3.7,3.8C45.1,59.9,42.3,60.4,39.4,60.4z"/>
		</g>
		<g>
			<path class="st9" d="M39.5,50.3C39.4,50.3,39.4,50.3,39.5,50.3c-5.8,0-11.5-1.8-11.5-5.1c0-1.5,1.3-2.9,3.7-3.8
				c2.1-0.8,4.9-1.3,7.8-1.2c0.6,0,1,1,1,1s-0.4,1-1,1h-0.1c-2.6,0-5.1,0.4-7,1.1c-1.5,0.6-2.4,1.3-2.4,2c0,1.3,3.7,3.1,9.5,3.1h0.1
				c4.6,0,7.9-1.2,9-2.3c0.3-0.3,0.4-0.5,0.4-0.8c0-0.8-3-2.3-7.3-2.9c0,0-1.5,0-1.4-0.3c-0.2-0.2,0.2-0.6,0.2-0.9
				c0-0.3-0.6-0.6-0.4-0.8c0.2-0.2,1.5,0,1.8,0c5,0.7,9,2.5,9,4.9c0,0.5-0.2,1.4-1,2.2C48.1,49.2,44,50.3,39.5,50.3z"/>
			<path class="st9" d="M39.5,55.4C39.4,55.4,39.4,55.4,39.5,55.4c-5.6,0-11.5-1.8-11.5-5.1v-5.1c0-0.6,0.4-1,1-1l0,0
				c0.6,0,1,0.4,1,1v5.1c0,1.3,3.7,3.1,9.5,3.1c4.6,0,7.9-1.2,9-2.3c0.3-0.3,0.4-0.5,0.4-0.8v-5.1c0-0.6,0.4-1,1-1l0,0
				c0.6,0,1,0.4,1,1v5.1c0,0.5-0.2,1.4-1,2.2C48.1,54.3,44,55.4,39.5,55.4z"/>
		</g>
	</g>
	<g>
		<path class="st7" d="M39.4,44.4c-0.6,0-1-0.4-1-1v-17c0-0.6,2-0.6,2,0v17C40.4,44,39.9,44.4,39.4,44.4z"/>
		<g>
			<path class="st7" d="M39.4,37.6c-0.2,0-0.3,0-0.5-0.1l-6.7-3.9c-0.5-0.3-0.6-0.9-0.4-1.4c0.3-0.5,0.9-0.6,1.4-0.4l6.7,3.9
				c0.5,0.3,0.6,0.9,0.4,1.4C40.1,37.5,39.7,37.6,39.4,37.6z"/>
			<path class="st7" d="M29.6,36c-0.1,0-0.1,0-0.2,0c-4.7-0.2-9.3-9.2-9.8-10.2c-0.1-0.3-0.1-0.7,0-1c0.2-0.3,0.5-0.5,0.8-0.5
				c1.1,0,11.2-0.2,13.6,4c0.8,1.4,0.7,3.1-0.5,5l0,0C32.5,35.1,31.1,36,29.6,36z M22.2,26.4c1.9,3.4,5,7.6,7.3,7.7
				c0.3,0,1.3,0.1,2.4-1.8c1.1-1.8,0.6-2.7,0.4-2.9C31.2,27.3,26,26.5,22.2,26.4z M32.7,32.8L32.7,32.8L32.7,32.8z"/>
			<path class="st7" d="M49.6,35.8c-1.6,0-2.9-0.9-4-2.7l0,0c-1.1-1.9-1.3-3.5-0.5-5c2.4-4.1,12.4-4,13.6-4c0.3,0,0.7,0.2,0.8,0.5
				c0.2,0.3,0.2,0.7,0,1C59,26.6,54.5,35.6,49.6,35.8C49.7,35.8,49.6,35.8,49.6,35.8z M47.2,32c1.1,1.8,2.1,1.8,2.4,1.8
				c2.3-0.1,5.4-4.3,7.3-7.7c-3.8,0.1-9,0.9-10.2,3C46.6,29.3,46.1,30.2,47.2,32L47.2,32z"/>
			<path class="st7" d="M39.4,37.6c-0.3,0-0.7-0.2-0.9-0.5c-0.3-0.5-0.1-1.1,0.4-1.4l7-4.1c0.5-0.3,1.1-0.1,1.4,0.4
				c0.3,0.5,0.1,1.1-0.4,1.4l-7,4.1C39.8,37.6,39.6,37.6,39.4,37.6z"/>
		</g>
	</g>
	<path class="st7" d="M43.8,25.7c-0.8,1.3-2.3,2-4.4,2l0,0c-2.2,0-3.7-0.8-4.5-2.2c-2.3-4.2,3.1-12.7,3.7-13.6
		c0.2-0.3,0.5-0.5,0.8-0.5s0.7,0.2,0.8,0.5c0.6,1,5.9,9.5,3.6,13.7C43.8,25.5,43.8,25.6,43.8,25.7z M39.3,25.7
		c2.1,0,2.6-0.9,2.8-1.1c1.1-2.1-0.8-6.9-2.7-10.2c-1.9,3.3-3.9,8.1-2.8,10.2C36.8,24.8,37.2,25.6,39.3,25.7L39.3,25.7z"/>
</g>
</svg>
