<svg width="244" height="92" xmlns="http://www.w3.org/2000/svg">
    <g fill-rule="nonzero" fill="none">
        <ellipse fill="#008FC7" cx="43.673" cy="48.81" rx="43.673" ry="43.19"/>
        <ellipse fill="#008FC7" cx="118.384" cy="47.967" rx="43.673" ry="43.19"/>
        <ellipse fill="#008FC7" cx="191.897" cy="48.81" rx="43.673" ry="43.19"/>
        <ellipse fill="#008FC7" cx="236.358" cy="7.558" rx="7.642" ry="7.558"/>
        <path fill="#008FC7" d="m234.575 6.334 3.015 2.981-14.183 14.026-3.015-2.982z"/>
        <path d="M56.884 46.872H31.98v-2.903a73.267 73.267 0 0 1-9.545 5.417l-4.485-7.177a50.448 50.448 0 0 0 13.735-8.045h-11.85v-7.557h18.04a20.82 20.82 0 0 0 1.64-4.055h9.005c-.401 1.377-.88 2.73-1.435 4.055h21.984v7.557H57.105a55.487 55.487 0 0 0 13.85 7.826l-4.272 7.12a65.97 65.97 0 0 1-9.8-5.75v3.512zm-36.9 3.065H68.88v7.72H58.105a133.676 133.676 0 0 1 12.678 8.84l-6.003 6.487a130.532 130.532 0 0 0-12.956-9.91l5.15-5.425h-7.511v9.155c0 4.747-2.529 7.12-7.585 7.12h-7.922l-1.64-7.395a49.087 49.087 0 0 1-9.47 6.487l-4.806-6.925a35.607 35.607 0 0 0 11.931-8.434H20l-.017-7.72zm20.73 7.72h-9.915l6.257 3.974a44.065 44.065 0 0 1-4.207 4.435h5.593c1.517 0 2.271-.616 2.271-1.857v-6.552zm-3.322-17.921h15.006a52.983 52.983 0 0 1-5.486-5.588H42.64a42.2 42.2 0 0 1-5.248 5.588zM93.989 40.895h20.213V22.933h9.143v17.962h20.049v7.89h-16.121a89.364 89.364 0 0 0 18.499 14.468l-6.56 7.557a102.408 102.408 0 0 1-15.892-14.677v17.84h-9.118V56.676a89.752 89.752 0 0 1-16.228 14.183l-6.093-7.298a79.389 79.389 0 0 0 18.614-14.792H93.99v-7.874zm1.886-12.512 7.527-3.56c2.829 3.714 5.4 7.613 7.7 11.669l-7.782 3.803a113.05 113.05 0 0 0-7.445-11.912zm38.097-3.836 7.888 3.698c-2.352 4.2-4.979 8.245-7.863 12.107l-7.717-3.78a94.734 94.734 0 0 0 7.692-12.05v.025zM180.663 54.649v12.658c0 4.493-2.307 6.739-6.92 6.739h-4.708l-1.754-8.23h2.82c1.517 0 2.272-.617 2.272-1.858v-8.004l-4.543.543-.992-8.539 5.535-.656v-8.377h-5.092V30.71h5.092v-7.882h8.306v7.882h4.642v8.215h-4.65V46.1c1.514-.254 2.99-.524 4.428-.81l.615 8.328c-1.64.373-3.313.713-5.051 1.03zm10.963-9.805h24.65v7.72a50.298 50.298 0 0 1-7.864 10.786 49.66 49.66 0 0 0 11.48 2.684l-3.542 8.11a42.565 42.565 0 0 1-15.786-4.988 54.317 54.317 0 0 1-13.899 5.044l-3.804-7.947a71.843 71.843 0 0 0 10.25-2.952 37.137 37.137 0 0 1-5.822-8.385l5.1-2.352h-5.871v-7.72h4.592l-7.807-3.892c3.915-2.406 5.872-5.544 5.872-9.415V24.24h23.484V34.65c0 .738.386 1.103 1.165 1.103h4.207v7.606h-8.734c-3.28 0-4.92-1.621-4.92-4.865v-6.869h-6.871a17.163 17.163 0 0 1-5.88 13.218zm15.457 7.72h-12.136a24.043 24.043 0 0 0 5.822 6.626 35.351 35.351 0 0 0 6.314-6.626z" fill="#FFF"/>
    </g>
</svg>
