<svg width="202" height="26" xmlns="http://www.w3.org/2000/svg">
    <g fill="none" fill-rule="evenodd">
        <g fill="#FFF" fill-rule="nonzero">
            <path d="M15.307 11.624s0 .062.18.193c1.127.936 1.722 1.841 1.714 3.687 0 2.314-1.943 3.975-4.14 3.975v3.184c3.824 0 7.303-2.829 7.303-6.832a7.26 7.26 0 0 0-1.329-4.225c.154-.193.293-.398.416-.614.234-.427.276-.944.276-2.675V.807h-9.81v5.98H6.79v3.276h6.323V4.15h3.532v5.092s.142 1.421-1.337 2.363"/>
            <path d="M6.819.807h-.911c-1.665.049-3.42.591-4.567 1.957C.117 4.204 0 5.479 0 7.587v15.076h9.954v-5.914h3.166v-3.33H6.79v5.965h-3.62V6.893S2.938 4.178 6.1 4.103l.719-.036V.807zM76.032 13.218v2.559h-9.743v-3.513h8.566c1.244 0 1.177.954 1.177.954m-1.897 1.358v-1.072h-6.082v1.072h6.082zM64.47 22.663v-6.171h12.08c.206.015.408.074.592.174.45.217.747.673.771 1.186v4.81h-2.028v-.437h-9.397v.438H64.47m11.415-3.93v-.848h-3.763v.836h3.763m-5.622 0v-.833H66.5v.838h3.763m5.622 2.137v-.828h-3.763v.828h3.763m-5.622 0v-.823H66.5v.838l3.763-.015zM66.279 10.287h9.753v1.31h-9.753z"/>
            <path d="M63.728 11.928V7.89h6.45V6.847h1.95v.977h5.096s1.304.103 1.304 1.226v2.878H76.75V9.613H65.599v2.315h-1.871zM95.697 12.773 96.94 8.56c.182-.707-.44-1.365-1.083-1.365h-5.171V22.7h1.889v-2.803s.565.864.866 1.286c.605.023.97-.157 1.493-.386 1.218-.638 2.055-1.854 2.24-3.252a6.835 6.835 0 0 0-1.466-4.783m-.428 4.942a2.745 2.745 0 0 1-1.633 1.628 2.01 2.01 0 0 1-1.1.046V9.094h2.404c-.363 1.34-.816 2.733-1.219 4.052.127.242.403.466.555.736.68 1.134 1.359 2.401.98 3.833l.013-.01zM90.04 14.07V12.06h-2.69v-1.52h2.63V8.619h-2.63v-1.8h-2.04v1.813h-3.072v1.947h3.071v1.488h-3.07v1.965h3.073v1.465h-3.029v2.024h2.942c-.107 2.245-1.84 3.656-1.84 3.656L84.5 22.72c2.738-1.6 2.867-5.199 2.867-5.199h2.673v-2.018h-2.69v-1.433h2.69zM27.492 22.634v-7.392H39.17c.206.015.407.075.59.177.448.218.743.676.763 1.188v6.027h-2.2v-.421H29.74v.424h-2.24m2.24-2.37h8.585V17.18H29.74v3.085M30.152 14.028h-3.293v-2.075l3.796-4.885h2.456l-3.957 5.022h8.959c.326 0 .445-.211.313-.638l-1.799-2.913h2.337l2.02 3.306c.583 1.459.21 2.188-1.117 2.188l-9.715-.005zM49.025 7.31h2.046v13.396c0 1.06-.51 1.597-1.528 1.607h-4.878v-2.057h3.982a.34.34 0 0 0 .295-.105.365.365 0 0 0 .093-.307v-5.87h-4.362v-2.041h4.352V7.31zM55.426 19.855V15.74a32.87 32.87 0 0 0 4.629-4.135L58.76 10.08a28.738 28.738 0 0 1-3.335 3.1V7.31h-2.053v13.397c0 1.06.51 1.597 1.53 1.607h4.798v-2.057h-3.89c-.258.01-.385-.126-.385-.401zM116.218 21.094a11.337 11.337 0 0 1-2.606-2.437 17.128 17.128 0 0 0 2.324-2.165l.105-.121-1.068-1.224-.13.149a19.064 19.064 0 0 1-2.02 1.895 9.165 9.165 0 0 1-.428-2.13h2.33c.155.01.306-.049.416-.162a.571.571 0 0 0 .158-.431V7.646a.542.542 0 0 0-.157-.424.505.505 0 0 0-.418-.144h-6.1a.489.489 0 0 0-.4.152.525.525 0 0 0-.14.416v12.921l-1.074.273.05.177.398 1.473.156-.033a22.164 22.164 0 0 0 4.622-1.486l.147-.067-.525-1.618-.175.078c-.562.257-1.244.49-1.99.74v-5.042h1.065c.131 2.026.766 3.767 1.908 5.166.311.457 1.028 1.146 2.188 2.095l.12.082 1.428-1.185-.184-.126zm-2.715-7.67h-3.796v-1.543h3.957v1.355c0 .15-.035.188-.161.188zm-3.796-3.173V8.86l.018-.108.12-.036h3.687c.102 0 .127.028.132.136v1.399h-3.957z"/>
            <path d="m107.077 21.377-6.11 1.185-.537-1.787 2.543-.427v-.753s-1.162.21-1.306-.141c-.42-.92-.797-1.908-1.157-2.903h1.717c.134.29.667 1.527.746 1.8v-2.687h-2.53V14.03h2.57v-1.013h-1.695v-1.376l-.298.257-1.175-1.321a14.65 14.65 0 0 0 3.584-3.536h.995c.854 1.268 2.24 2.726 3.623 3.515l-1.259 1.342-.271-.257v1.386h-1.7v1.008h2.432v1.64h-2.432v2.127c.327-.402.628-.824.904-1.265l1.662-.016c-.373.74-.908 1.795-1.369 2.284-.303.324-1.207.493-1.207.493v.723l2.078-.383s.234 1.208.23 1.165M103.9 9.114s-1.154 1.543-2.24 2.335h4.602c-.682-.43-2.369-2.332-2.369-2.332M125.843 7.387h7.849v1.882h-7.849zM134.3 13.54v-1.918h-9.288v1.951h5.43v6.014a1.558 1.558 0 0 1-.186.671c-.115.15-.212.64-1.874.59l.821 1.588c1.707.5 2.695-1.074 2.596-.923.278-.446.44-.96.468-1.491V13.54h2.033zM121.506 16.263a9.313 9.313 0 0 1-1.132.933l-1.494-1.175a13.218 13.218 0 0 0 4.107-4.793l1.692.8c-.436.771-.869 1.46-1.282 2.057v8.444h-1.884v-6.266m.841-9.586 1.742.679c-.995 2.132-2.136 3.736-3.421 4.81l-1.583-1.074a11.186 11.186 0 0 0 3.255-4.415h.007z"/>
        </g>
        <text font-family="NotoSansTC-Bold, Noto Sans TC" font-size="16.5" font-weight="bold" letter-spacing="1.65" fill="#FFF" transform="translate(0 .807)">
                    <tspan x="146.959" y="20.048">奈米投</tspan>
                </text>
        <path stroke="#FFF" stroke-width=".55" d="M141.455 22.719V6.677"/>
    </g>
</svg>
