<svg xmlns="http://www.w3.org/2000/svg" xmlns:xlink="http://www.w3.org/1999/xlink" width="370" height="320" viewBox="0 0 370 320">
    <defs>
        <path id="a" d="M0 0h370v320H0z"/>
        <path id="c" d="M121.558 2.126L9.856 53.915c-8.268 3.833-11.862 13.642-8.03 21.91 3.834 8.267 13.643 11.862 21.91 8.029l111.702-51.789c8.268-3.833 11.862-13.642 8.03-21.91-3.834-8.267-13.643-11.862-21.91-8.029z"/>
        <path id="e" d="M33.078 93.614l13.344-73.24c1.633-8.965-4.31-17.557-13.276-19.19-8.965-1.634-17.557 4.31-19.19 13.275L.613 87.699c-1.634 8.965 4.31 17.557 13.275 19.19 8.965 1.634 17.557-4.31 19.19-13.275z"/>
        <path id="g" d="M19.871 0h87.655c10.668 0 19.317 8.664 19.317 19.352 0 .616-.03 1.231-.088 1.845l-12.462 130.395H14.488L.663 21.399C-.466 10.771 7.219 1.24 17.828.11 18.507.036 19.188 0 19.87 0z"/>
        <path id="i" d="M23.772 94.9c-7.81-4.236-17.575-1.337-21.81 6.477-4.235 7.815-1.337 17.584 6.473 21.822l76.712 41.62c11.652 6.32 25.516-3.377 23.584-16.496L88.999 14.358C87.703 5.564 79.528-.514 70.739.782c-8.79 1.295-14.866 9.475-13.57 18.27l15.043 102.13L23.772 94.9z"/>
        <linearGradient id="k" x1="50%" x2="50%" y1="1.81%" y2="43.427%">
            <stop offset="0%" stop-color="#C0874F"/>
            <stop offset="100%" stop-color="#6F4D2A"/>
        </linearGradient>
        <path id="l" d="M0 0h104.69v88.8c0 28.719-23.435 52-52.345 52H48.32C21.633 140.8 0 119.31 0 92.8V0z"/>
        <linearGradient id="o" x1="43.403%" x2="50%" y1="-6%" y2="54.705%">
            <stop offset="0%" stop-color="#C79754"/>
            <stop offset="100%" stop-color="#9E6B38"/>
        </linearGradient>
        <path id="n" d="M35.936 30.25c5.945 10.838 55.011 53.07 77.228 44.402l6.897 14.93c2.7-4.05 4.052-30.55 3.957-39.182 0-27.98-27.402-50.4-61.204-50.4S1.611 22.565 1.611 50.4C.53 63.81 5.998 72.699 9.664 72.178v-8.416c8.114-7.913 18.6-18.266 26.272-33.512z"/>
    </defs>
    <g fill="none" fill-rule="evenodd">
        <mask id="b" fill="#fff">
            <use xlink:href="#a"/>
        </mask>
        <g mask="url(#b)">
            <path fill="#71545E" fill-rule="nonzero" d="M116.27 212.91c1.633-8.966-4.311-17.557-13.276-19.19-8.965-1.634-17.557 4.31-19.19 13.275L66.41 302.463c-2.398 13.16 11.037 23.553 23.173 17.926l111.702-51.788c8.267-3.833 11.862-13.643 8.029-21.91s-13.642-11.862-21.91-8.029l-82.824 38.4 11.688-64.153z"/>
            <g transform="translate(65.847 236.536)">
                <mask id="d" fill="#fff">
                    <use xlink:href="#c"/>
                </mask>
                <use fill="#8A6874" fill-rule="nonzero" xlink:href="#c"/>
                <path fill="#71545E" fill-rule="nonzero" d="M131.266 9.535L26.992 57.879c-1.65.765-8.467-6.055-20.45-20.46l-19.41 34.306c17.62 20.963 29.185 30.166 34.697 27.61l123.317-59.862c8.268-3.833 11.862-13.642 8.03-21.91-3.834-8.267-13.643-11.861-21.91-8.028z" mask="url(#d)"/>
            </g>
            <g transform="translate(69.847 192.536)">
                <mask id="f" fill="#fff">
                    <use xlink:href="#e"/>
                </mask>
                <use fill="#EE5585" fill-rule="nonzero" xlink:href="#e"/>
                <path fill="#DC386B" fill-rule="nonzero" d="M52.293 109.259L70.754 7.925c2.26-12.404-5.963-24.291-18.367-26.551-12.404-2.26-24.292 5.963-26.552 18.367L7.374 101.075c-2.26 12.404 5.963 24.291 18.367 26.551 12.404 2.26 24.292-5.963 26.552-18.367z" mask="url(#f)"/>
            </g>
        </g>
        <g fill="#FACEB8" mask="url(#b)">
            <g fill-rule="nonzero">
                <path d="M118.006 196.923c14.148-2.122 22.996-5.383 27.12-11.12 4.536-6.312 3.49-15.092-1.635-26.642a7 7 0 0 0-12.796 5.678c1.84 4.15 2.89 7.524 3.187 10.024.118.988.109 1.76.01 2.31-.054.291-.106.419-.134.46-.357.495-1.78 1.399-4.334 2.34-3.24 1.194-7.756 2.244-13.494 3.104a7 7 0 0 0 2.076 13.846zM91.52 115.502c-1.467 4.647-1.467 12.5.239 23.292 1.704 10.784 4.118 18.218 6.923 22.119a7 7 0 1 1-11.365 8.174c-4.349-6.045-7.371-15.353-9.387-28.107-2.014-12.745-2.014-22.554.239-29.692a7 7 0 1 1 13.35 4.214zM71.83 135.695c-1.015 4.229-.368 9.934 2.18 17.094 2.546 7.15 5.634 11.948 9.057 14.53a7 7 0 1 1-8.43 11.178c-5.89-4.442-10.426-11.492-13.815-21.013-3.386-9.513-4.334-17.859-2.605-25.058a7 7 0 0 1 13.613 3.269z"/>
                <path d="M111.688 141.526c-.105.147-.234.432-.357.892-.407 1.518-.461 3.929-.044 7.15.959 7.388 4.25 18.04 9.893 31.771a7 7 0 0 1-12.95 5.322c-6.065-14.761-9.68-26.463-10.826-35.292-1.387-10.688.712-18.526 7.734-22.216 6.413-3.37 13.178-2.303 18.863 2.66 4.554 3.975 8.573 10.49 12.368 19.625a7 7 0 1 1-12.928 5.372c-3.043-7.324-6.03-12.167-8.646-14.45-1.468-1.281-2.043-1.384-3.107-.834z"/>
            </g>
            <path d="M86.399 153.904c10.761-5.018 23.554-.362 28.572 10.4l8.03 17.22c5.018 10.761.362 23.553-10.4 28.572-10.761 5.018-23.554.362-28.572-10.4L76 182.476c-5.018-10.761-.362-23.553 10.4-28.572z"/>
            <path d="M91.929 217.128c-7.874-5.113-10.112-15.642-4.999-23.516l7.625-11.742c5.114-7.874 15.642-10.112 23.516-4.998 7.874 5.113 10.112 15.642 4.999 23.516l-7.625 11.742c-5.114 7.874-15.642 10.112-23.516 4.998z"/>
        </g>
        <g mask="url(#b)">
            <path fill="#EEC3AD" d="M213.966 209.237h48v35h-48z"/>
            <path fill="#43585F" d="M261.966 229.919h-48v9.545h48z"/>
            <path fill="#C32F5D" d="M242.766 209.237h19.2v35h-19.2zM213.966 209.237h6.4v35h-6.4z"/>
        </g>
        <g mask="url(#b)">
            <g transform="translate(168.338 236.662)">
                <g transform="translate(4.83)">
                    <mask id="h" fill="#fff">
                        <use xlink:href="#g"/>
                    </mask>
                    <use fill="#DC386B" xlink:href="#g"/>
                    <path fill="#4F4045" d="M-14.488 75.796h160.976v112.887H-14.488z" mask="url(#h)"/>
                    <path fill="#EB6F96" d="M11.268 20.965h27.366v3.225H11.268zM11.268 27.415h27.366v3.225H11.268z" mask="url(#h)"/>
                </g>
                <rect width="41.854" height="40.317" y="30.641" fill="#DC386B" rx="20.158"/>
            </g>
        </g>
        <g mask="url(#b)">
            <g transform="translate(212.173 234.362)">
                <mask id="j" fill="#fff">
                    <use xlink:href="#i"/>
                </mask>
                <use fill="#8A6874" fill-rule="nonzero" xlink:href="#i"/>
                <path fill="#6E565E" d="M64.41-6.669l21.219 135.645-21.22-11.983-15.017 28.756 39.916 35.385 58.469-31.725L101.645-6.67z" mask="url(#j)"/>
                <ellipse cx="93.913" cy="52.114" stroke="#DC386B" stroke-width="3" mask="url(#j)" rx="16.087" ry="16.095"/>
                <ellipse cx="93.913" cy="52.114" fill="#DC386B" mask="url(#j)" rx="8.043" ry="8.048"/>
            </g>
        </g>
        <g mask="url(#b)">
            <g transform="rotate(8 -77.755 1447.186)">
                <path fill="url(#k)" d="M114.195 193.86c4.87-.07 37.045-100.515 37.045-152.105 0-20.324-16.586-36.8-37.045-36.8-20.459 0-37.044 16.476-37.044 36.8 0 51.28 32.497 152.119 37.044 152.105z" transform="rotate(-10 114.195 99.407)"/>
                <ellipse cx="88.584" cy="41.6" fill="#DC386B" rx="17.717" ry="17.6"/>
                <path fill="#FCB75C" d="M0 86.4h4.832V96H.778L0 95.15z"/>
            </g>
            <path fill="#DC386B" d="M192.077 120.643l14.354 2.018c8.81 1.238 14.953 9.335 13.723 18.086l-3.563 25.35c-1.23 8.751-9.367 14.841-18.176 13.603l-14.354-2.017c-10.57-1.486-17.943-11.202-16.468-21.703l2.672-19.013c1.476-10.5 11.242-17.81 21.812-16.324z"/>
            <g transform="rotate(8 -456.098 1432.303)">
                <mask id="m" fill="#fff">
                    <use xlink:href="#l"/>
                </mask>
                <use fill="#FFD5BF" xlink:href="#l"/>
                <path fill="#F0C3AB" d="M82.142 0h22.548v145.338H68.175c9.311-3.28 13.967-12.502 13.967-27.663V0z" mask="url(#m)"/>
            </g>
            <g transform="rotate(8 -245.336 1377.604)">
                <mask id="p" fill="#fff">
                    <use xlink:href="#n"/>
                </mask>
                <use fill="url(#o)" xlink:href="#n"/>
                <path fill="#FFF" fill-rule="nonzero" d="M93.222 33.982c.988.89 1.983 2.03 3.86 4.352l.217.268c4.387 5.43 5.926 6.984 8.546 7.346 4.825.667 7.295-3.77 8.2-11.935a2.404 2.404 0 0 0-2.136-2.648 2.412 2.412 0 0 0-2.666 2.122c-.354 3.185-.93 5.46-1.658 6.766-.462.83-.722.99-1.074.941-.717-.099-2.266-1.662-5.444-5.596l-.218-.27c-5.003-6.188-7.026-8.008-10.39-6.904-2.093.686-2.933 2.562-3.3 5.433-.213 1.675-.25 3.205-.241 6.927l.001.912c.002 3.45-.085 5.38-.378 6.93-.253 1.34-.506 1.735-.486 1.732-.654.09-2.353-2.011-6.4-8.421-5.34-8.459-8.247-11.544-12.873-10.53-6.117 1.34-10.052 9.59-12.683 24.621a2.402 2.402 0 0 0 1.967 2.776 2.414 2.414 0 0 0 2.794-1.953c2.3-13.14 5.579-20.016 8.962-20.757 1.475-.323 3.785 2.129 7.74 8.393 3.035 4.808 3.437 5.42 4.702 6.985 2.108 2.604 4.074 3.966 6.45 3.641 2.638-.36 3.982-2.455 4.576-5.601.368-1.944.464-4.067.461-7.82l-.002-.92c-.007-3.489.027-4.923.204-6.312.067-.522.15-.946.243-1.264.282.167.629.43 1.026.786z" mask="url(#p)"/>
            </g>
            <path fill="#DC386B" d="M305.318 136.558c10.57 1.486 17.943 11.203 16.467 21.703l-2.672 19.014c-1.476 10.5-11.241 17.808-21.811 16.323l-14.355-2.017c-8.808-1.238-14.952-9.336-13.723-18.086l3.563-25.351c1.23-8.75 9.368-14.84 18.177-13.603l14.354 2.017z"/>
            <path fill="#DC386B" d="M279.98 189.548l17.544 2.465-.111.793c-.676 4.813-5.152 8.162-9.997 7.481-4.845-.68-8.224-5.134-7.547-9.947l.11-.792z"/>
            <path fill="#EE5585" d="M305.318 136.558c-10.57-1.485-20.336 5.823-21.811 16.324l-2.673 19.013c-1.475 10.5 5.897 20.217 16.468 21.703 10.57 1.485 20.335-5.823 21.811-16.323l2.672-19.014c1.476-10.5-5.897-20.217-16.467-21.703z"/>
            <g fill="#DC386B">
                <path d="M314.033 155.556l-19.139-2.69-.668 4.754 19.14 2.69zM312.697 165.063l-19.139-2.69-.668 4.753 19.14 2.69zM311.361 174.57l-19.139-2.69-.668 4.753 19.139 2.69z"/>
            </g>
            <g>
                <path fill="#FFF4ED" d="M255.875 129.61c13.213 1.857 22.428 14.003 20.584 27.128-1.845 13.126-14.052 22.261-27.265 20.405l-55.823-7.846c-13.213-1.857-22.428-14.003-20.584-27.129 1.845-13.125 14.052-22.26 27.265-20.404l55.823 7.846z" opacity=".899"/>
                <path fill="#FA7560" d="M220.227 163.377l-9.052 18.117 12.76 1.793z"/>
                <path fill="#4A4A4A" d="M246.155 152.48c-2.643-.372-5.084 1.455-5.453 4.08l-.668 4.754c-.37 2.625 1.474 5.054 4.117 5.425 2.642.372 5.084-1.455 5.453-4.08l.668-4.754c.369-2.625-1.475-5.054-4.117-5.426zM209.471 147.324c-2.643-.371-5.084 1.456-5.453 4.08l-.668 4.754c-.369 2.625 1.474 5.054 4.117 5.426 2.643.371 5.084-1.456 5.453-4.081l.668-4.753c.369-2.625-1.474-5.055-4.117-5.426z"/>
                <path fill="#4A4A4A" fill-rule="nonzero" d="M202.7 193.667c1.955 12.172 24.949 15.856 31.03 4.439.416-.78.115-1.75-.671-2.164a1.614 1.614 0 0 0-2.176.663c-4.642 8.714-23.537 5.687-25.001-3.436a1.613 1.613 0 0 0-1.845-1.332 1.598 1.598 0 0 0-1.336 1.83zM237.024 144.514c4.571-3.303 9.804-3.29 15.982.145a1.614 1.614 0 0 0 2.19-.615 1.597 1.597 0 0 0-.621-2.178c-7.216-4.011-13.794-4.028-19.448.058a1.593 1.593 0 0 0-.353 2.235 1.618 1.618 0 0 0 2.25.355zM201.854 139.638c5.598-3.544 10.317-2.88 14.722 2.069.59.662 1.607.725 2.273.14a1.593 1.593 0 0 0 .138-2.258c-5.456-6.13-11.933-7.04-18.867-2.652a1.593 1.593 0 0 0-.49 2.21 1.618 1.618 0 0 0 2.224.49z"/>
            </g>
        </g>
        <path fill="#F8BE5F" d="M122.235 63.47L116 86.59a1 1 0 0 1-1.931 0l-6.237-23.12-20.44-6.245a1 1 0 0 1 0-1.913l20.44-6.246 6.234-24.014a1 1 0 0 1 1.936 0l6.234 24.014 20.44 6.246a1 1 0 0 1 0 1.913l-20.44 6.246zM143.228 115.314l-3.836 14.22a1 1 0 0 1-1.93 0l-3.837-14.22-12.583-3.845a1 1 0 0 1 0-1.913l12.583-3.845 3.834-14.767a1 1 0 0 1 1.935 0l3.834 14.767 12.583 3.845a1 1 0 0 1 0 1.913l-12.583 3.845zM43.015 94.314l-3.836 14.22a1 1 0 0 1-1.931 0l-3.836-14.22-12.584-3.845a1 1 0 0 1 0-1.913l12.584-3.845 3.833-14.767a1 1 0 0 1 1.936 0l3.834 14.767 12.583 3.845a1 1 0 0 1 0 1.913l-12.583 3.845z"/>
    </g>
</svg>
