<svg xmlns="http://www.w3.org/2000/svg" xmlns:xlink="http://www.w3.org/1999/xlink" width="190" height="190" viewBox="0 0 190 190">
    <defs>
        <circle id="a" cx="95" cy="95" r="95"/>
        <path id="c" d="M5.28 0h23.23l5.078 289.194 2.314 14.776v6.333H0v-6.333l9.989-14.776z"/>
        <path id="e" d="M51.278 0h22.638l-15.84 310.303H.957v-5.044l35.525-15.373z"/>
        <path id="g" d="M13.035 0h57.498c6.998 0 12.671 5.67 12.671 12.665 0 .403-.019.806-.057 1.208l-8.175 85.34H9.503L.435 14.005C-.305 7.05 4.735.811 11.695.071 12.14.024 12.586 0 13.034 0z"/>
        <path id="i" d="M16.26 62.887c-5.126-2.778-11.536-.877-14.316 4.247-2.78 5.125-.877 11.531 4.25 14.31l50.353 27.292c7.648 4.145 16.748-2.214 15.48-10.817L59.075 10.071c-.85-5.767-6.217-9.753-11.986-8.903-5.77.85-9.757 6.214-8.907 11.98l9.874 66.973L16.26 62.887z"/>
        <path id="k" d="M51.71 20.885L16.26 1.671C11.134-1.107 4.724.794 1.944 5.918c-2.78 5.124-.877 11.53 4.25 14.31L41.641 39.44c5.127 2.78 11.537.878 14.317-4.246 2.78-5.125.877-11.531-4.25-14.31z"/>
        <linearGradient id="m" x1="50%" x2="50%" y1="1.81%" y2="43.427%">
            <stop offset="0%" stop-color="#C0874F"/>
            <stop offset="100%" stop-color="#6F4D2A"/>
        </linearGradient>
        <path id="n" d="M0 0h68.636v58.578c0 18.944-15.364 34.302-34.318 34.302h-2.64C14.183 92.88 0 78.704 0 61.216V0z"/>
        <linearGradient id="q" x1="43.403%" x2="50%" y1="-6%" y2="54.705%">
            <stop offset="0%" stop-color="#C79754"/>
            <stop offset="100%" stop-color="#9E6B38"/>
        </linearGradient>
        <path id="p" d="M23.56 19.955c3.898 7.15 36.066 35.008 50.632 29.29l4.522 9.848c1.77-2.67 2.656-20.153 2.594-25.846C81.308 14.79 63.343 0 41.182 0 19.02 0 1.056 14.885 1.056 33.247c-.708 8.845 2.877 14.71 5.28 14.366v-5.552c5.32-5.22 12.195-12.05 17.224-22.106z"/>
    </defs>
    <g fill="none" fill-rule="evenodd">
        <mask id="b" fill="#fff">
            <use xlink:href="#a"/>
        </mask>
        <use fill="#91E3E1" xlink:href="#a"/>
        <g mask="url(#b)">
            <g transform="translate(92.918 276.53)">
                <mask id="d" fill="#fff">
                    <use xlink:href="#c"/>
                </mask>
                <use fill="#4F4045" xlink:href="#c"/>
                <path fill="#DC386B" d="M-3.168 224.811h66.524v82.325H-3.168z" mask="url(#d)"/>
                <path fill="#EE5585" d="M4.224 236.421H39.07v29.553H4.224z" mask="url(#d)"/>
                <path fill="#DC386B" d="M4.224 246.976H39.07v8.444H4.224z" mask="url(#d)"/>
                <path fill="#804F5E" d="M-3.168 307.137h43.294v8.444H-3.168z" mask="url(#d)"/>
                <path fill="#DC386B" fill-rule="nonzero" d="M-3 48.94l43.493 33.775 3.887-5.001L.888 43.94zM-3 65.828l43.493 33.774 3.887-5L.888 60.826z" mask="url(#d)" transform="matrix(-1 0 0 1 41.38 0)"/>
            </g>
            <g transform="translate(13.722 276.53)">
                <mask id="f" fill="#fff">
                    <use xlink:href="#e"/>
                </mask>
                <use fill="#4F4045" xlink:href="#e"/>
                <path fill="#DC386B" d="M-11.615 224.811h85.531v82.325h-85.531z" mask="url(#f)"/>
                <path fill="#EE5585" d="M10.559 236.421h42.59v29.553h-42.59z" mask="url(#f)"/>
                <path fill="#DC386B" d="M10.559 246.976h42.59v8.444h-42.59z" mask="url(#f)"/>
                <path fill="#804F5E" d="M41.064 307.137h52.915v8.444H41.064z" mask="url(#f)"/>
                <path fill="#DC386B" fill-rule="nonzero" d="M33.959 48.94L77.45 82.715l3.887-5.001L37.846 43.94zM33.959 65.828L77.45 99.602l3.887-5-43.492-33.775z" mask="url(#f)"/>
            </g>
            <path fill="#71545E" fill-rule="nonzero" d="M54.462 220.786l-5.547-4.874c-4.38-3.849-11.051-3.42-14.902.958-3.85 4.378-3.422 11.047.958 14.896l25.878 22.74c7.225 6.349 18.488.52 17.473-9.042l-8.79-82.746c-.617-5.797-5.817-9.997-11.616-9.382-5.8.616-10.001 5.814-9.386 11.61l5.932 55.84z"/>
            <path fill="#EEC3AD" d="M77.079 136.155h31.678v23.22H77.079z"/>
            <path fill="#43585F" d="M108.757 149.876H77.08v6.333h31.678z"/>
            <path fill="#C32F5D" d="M96.086 136.155h12.67v23.22h-12.67zM77.079 136.155h4.224v23.22h-4.224z"/>
            <g transform="translate(46.456 153.042)">
                <path fill="#DC386B" d="M12.671 111.878v-5.159H78.14v5.159l6.336 37.996H6.336z"/>
                <g transform="translate(3.168)">
                    <mask id="h" fill="#fff">
                        <use xlink:href="#g"/>
                    </mask>
                    <use fill="#DC386B" xlink:href="#g"/>
                    <path fill="#4F4045" d="M-9.503 49.606H96.091v73.882H-9.503z" mask="url(#h)"/>
                    <path fill="#EB6F96" d="M7.392 13.721h17.951v2.111H7.392zM7.392 17.943h17.951v2.111H7.392z" mask="url(#h)"/>
                </g>
                <path fill="#EE5585" d="M12.671 99.213H78.14v12.665H12.671z"/>
                <rect width="27.455" height="26.386" y="20.054" fill="#DC386B" rx="13.193"/>
            </g>
            <g transform="translate(74.967 151.987)">
                <mask id="j" fill="#fff">
                    <use xlink:href="#i"/>
                </mask>
                <use fill="#8A6874" fill-rule="nonzero" xlink:href="#i"/>
                <path fill="#6E565E" d="M42.935-3.717l13.928 88.95-13.928-7.858-9.858 18.856 26.201 23.204 38.379-20.804L67.376-3.717z" mask="url(#j)"/>
                <ellipse cx="62.301" cy="34.83" stroke="#DC386B" stroke-width="3" mask="url(#j)" rx="10.559" ry="10.555"/>
                <ellipse cx="62.301" cy="34.83" fill="#DC386B" mask="url(#j)" rx="5.28" ry="5.277"/>
            </g>
            <g transform="translate(74.967 213.203)">
                <mask id="l" fill="#fff">
                    <use xlink:href="#k"/>
                </mask>
                <use fill="#EE5585" fill-rule="nonzero" xlink:href="#k"/>
                <path fill="#DC386B" fill-rule="nonzero" d="M69.798 7.535L25.725-16.353c-6.374-3.455-14.343-1.091-17.8 5.28-3.456 6.37-1.09 14.336 5.283 17.79l44.074 23.889c6.374 3.454 14.342 1.09 17.799-5.28 3.456-6.371 1.09-14.336-5.283-17.791z" mask="url(#l)"/>
            </g>
            <g fill="#F0C3AB" transform="matrix(-1 0 0 1 64.408 212.148)">
                <g fill-rule="nonzero">
                    <path d="M28.743 15.458a4.22 4.22 0 0 1-1.638-5.741 4.225 4.225 0 0 1 5.744-1.638l7.837 4.356a4.223 4.223 0 0 1 1.758 1.869l3.886 8.126a4.225 4.225 0 0 1-7.622 3.642l-3.305-6.912-6.66-3.702zM20.219 32.257L17.67 18.243a4.224 4.224 0 0 0-8.311 1.51l2.679 14.73c.086.473.252.928.492 1.346l5.261 9.166a4.225 4.225 0 0 0 5.766 1.56 4.22 4.22 0 0 0 1.561-5.762l-4.9-8.536z"/>
                    <path d="M9.026 29.23V16.43a4.223 4.223 0 0 0-4.224-4.222 4.223 4.223 0 0 0-4.224 4.222v13.554c0 .497.088.99.26 1.458l3.486 9.468a4.224 4.224 0 0 0 7.928-2.916L9.026 29.23zM30.297 28.514l-2.734-11.209a4.224 4.224 0 0 0-8.207 2l3.072 12.596c.22.9.729 1.702 1.45 2.284l8.199 6.621a4.225 4.225 0 0 0 5.94-.63 4.22 4.22 0 0 0-.631-5.937l-7.089-5.725z"/>
                </g>
                <rect width="33.79" height="23.22" rx="11.61" transform="matrix(-1 0 0 1 33.79 0)"/>
            </g>
            <g fill="#FFD5BF" transform="translate(55.96 212.148)">
                <g fill-rule="nonzero">
                    <path d="M35.01 15.419a4.22 4.22 0 0 1-1.53-5.771 4.225 4.225 0 0 1 5.774-1.53l8.535 4.957a4.222 4.222 0 0 1 1.872 2.276l3.462 10.047a4.224 4.224 0 0 1-7.987 2.75l-2.95-8.562-7.176-4.167zM16.243 18.243a4.224 4.224 0 0 1 8.311 1.51l-2.679 14.73a4.22 4.22 0 0 1-.492 1.346l-5.261 9.166a4.225 4.225 0 0 1-5.766 1.56 4.22 4.22 0 0 1-1.561-5.762l4.9-8.536 2.548-14.014zM8.82 10.28a4.224 4.224 0 0 1 8.018 2.66L10.87 30.913a4.222 4.222 0 0 1-1.253 1.87l-5.967 5.135a4.225 4.225 0 0 1-5.957-.445 4.22 4.22 0 0 1 .445-5.954l5.082-4.373L8.82 10.28z"/>
                    <path d="M25.288 16.334a4.223 4.223 0 0 1 4.224-4.221 4.223 4.223 0 0 1 4.223 4.221v18.449c0 .67-.16 1.33-.465 1.927l-5.203 10.135a4.225 4.225 0 0 1-5.686 1.83 4.22 4.22 0 0 1-1.83-5.684l4.737-9.228V16.334z"/>
                </g>
                <rect width="33.79" height="23.22" x="6.336" rx="11.61" transform="matrix(-1 0 0 1 46.462 0)"/>
            </g>
            <path fill="#C5C5C5" fill-rule="nonzero" d="M69.526 210.06v14.174h-3.15V210.06zM53.776 210.06v14.174h-3.15V210.06zM47.665 198.695c-4.938 3.904-11.715 4.865-20.217 2.983l.68-3.075c7.653 1.694 13.477.867 17.584-2.38l1.953 2.472z"/>
            <path fill="#E1E1E1" d="M83.7 165.96H39.6v50.4h44.1z"/>
            <path fill="#C5C5C5" d="M83.7 165.96h-9.45v50.4h9.45z"/>
            <path fill="#F7F7F7" fill-rule="nonzero" d="M81.309 198.445c-4.938 3.903-11.715 4.864-20.217 2.983l.68-3.076c7.654 1.693 13.477.867 17.584-2.378l1.953 2.471z"/>
            <g transform="matrix(-1 0 0 1 64.013 177.772)">
                <path fill="#E82087" d="M9.844 1.575l1.969 5.513H7.874z"/>
                <rect width="4.725" height="4.725" fill="#4668CB" rx="2.362"/>
                <rect width="4.725" height="4.725" x="13.387" fill="#4668CB" rx="2.362"/>
            </g>
            <g transform="translate(54.904 15.833)">
                <path fill="url(#m)" d="M74.868 127.881c3.193-.046 24.287-66.305 24.287-100.337 0-13.407-10.874-24.275-24.287-24.275-13.413 0-24.287 10.868-24.287 24.275 0 33.827 21.306 100.346 24.287 100.337z" transform="rotate(-10 74.868 65.575)"/>
                <ellipse cx="58.077" cy="27.442" fill="#DC386B" rx="11.615" ry="11.61"/>
                <path fill="#FCB75C" d="M0 56.994h3.168v6.333H.51l-.51-.56z"/>
            </g>
            <path fill="#DC386B" d="M58.072 79.16h9.503c5.832 0 10.56 4.726 10.56 10.555v16.887c0 5.83-4.728 10.555-10.56 10.555h-9.503c-6.998 0-12.671-5.67-12.671-12.666V91.826c0-6.995 5.673-12.665 12.67-12.665z"/>
            <g transform="translate(55.96 50.663)">
                <mask id="o" fill="#fff">
                    <use xlink:href="#n"/>
                </mask>
                <use fill="#FFD5BF" xlink:href="#n"/>
                <path fill="#F0C3AB" d="M53.853 0h14.783v95.873h-23.94c6.105-2.164 9.157-8.246 9.157-18.248V0z" mask="url(#o)"/>
            </g>
            <g transform="translate(49.624 31.665)">
                <mask id="r" fill="#fff">
                    <use xlink:href="#p"/>
                </mask>
                <use fill="url(#q)" xlink:href="#p"/>
                <path fill="#FFF" fill-rule="nonzero" d="M61.118 22.417c.647.586 1.3 1.339 2.53 2.87l.142.177c2.876 3.583 3.886 4.607 5.603 4.846 3.164.44 4.783-2.487 5.377-7.873a1.583 1.583 0 0 0-3.15-.347c-.23 2.101-.609 3.602-1.085 4.463-.303.548-.474.653-.705.621-.47-.065-1.485-1.096-3.569-3.691-.071-.09-.071-.09-.143-.178-3.28-4.082-4.606-5.283-6.812-4.555-1.372.453-1.923 1.69-2.163 3.584-.14 1.105-.164 2.115-.159 4.57l.001.601c.002 2.276-.055 3.549-.247 4.572-.166.883-.333 1.144-.32 1.142-.428.059-1.542-1.327-4.195-5.555-3.5-5.58-5.407-7.615-8.44-6.946-4.01.884-6.59 6.326-8.315 16.242a1.583 1.583 0 0 0 3.121.542c1.508-8.667 3.658-13.203 5.876-13.692.967-.213 2.482 1.404 5.074 5.536 1.99 3.172 2.254 3.576 3.083 4.608 1.382 1.718 2.671 2.616 4.228 2.402 1.73-.238 2.611-1.62 3.001-3.695.241-1.283.304-2.683.302-5.158v-.607c-.006-2.302.017-3.248.133-4.164.044-.344.098-.624.159-.834.185.11.412.283.673.519z" mask="url(#r)"/>
            </g>
            <g>
                <path fill="#DC386B" d="M133.044 79.16c6.998 0 12.671 5.671 12.671 12.666v12.665c0 6.995-5.673 12.666-12.671 12.666h-9.504c-5.831 0-10.559-4.726-10.559-10.555V89.715c0-5.83 4.728-10.554 10.56-10.554h9.503z"/>
                <path fill="#DC386B" d="M121.429 116.101h11.615v.528c0 3.206-2.6 5.805-5.808 5.805a5.806 5.806 0 0 1-5.807-5.805v-.528z"/>
                <path fill="#EE5585" d="M133.044 79.16c-6.998 0-12.671 5.671-12.671 12.666v12.665c0 6.995 5.673 12.666 12.67 12.666 7 0 12.672-5.67 12.672-12.666V91.826c0-6.995-5.673-12.665-12.671-12.665z"/>
                <g fill="#DC386B">
                    <path d="M140.436 90.77h-12.671v3.166h12.67zM140.436 97.103h-12.671v3.166h12.67zM140.436 103.435h-12.671v3.166h12.67z"/>
                </g>
            </g>
            <g>
                <path fill="#FFF4ED" d="M100.31 79.16c8.747 0 15.839 7.089 15.839 15.832 0 8.744-7.092 15.832-15.84 15.832H63.353c-8.748 0-15.84-7.088-15.84-15.832 0-8.743 7.092-15.831 15.84-15.831h36.958z" opacity=".899"/>
                <path fill="#FA7560" d="M80.247 104.491l-4.224 12.666h8.447z"/>
                <path fill="#4A4A4A" d="M96.086 94.992a3.167 3.167 0 0 0-3.168 3.167v3.166a3.167 3.167 0 0 0 6.336 0v-3.166a3.167 3.167 0 0 0-3.168-3.167zM71.8 94.992a3.167 3.167 0 0 0-3.169 3.167v3.166a3.167 3.167 0 0 0 6.336 0v-3.166a3.167 3.167 0 0 0-3.168-3.167z"/>
                <path fill="#4A4A4A" fill-rule="nonzero" d="M71.632 125.887c2.38 7.772 17.644 8.068 20.55.05a1.055 1.055 0 1 0-1.985-.718c-2.219 6.118-14.762 5.875-16.545.05a1.056 1.056 0 0 0-2.02.618zM89.431 90.627c2.667-2.577 6.065-3.05 10.39-1.373a1.056 1.056 0 0 0 .763-1.968c-5.05-1.958-9.323-1.365-12.621 1.824a1.055 1.055 0 1 0 1.468 1.517zM66.152 90.67c3.312-2.828 6.436-2.828 9.747 0a1.056 1.056 0 0 0 1.372-1.604c-4.101-3.504-8.39-3.504-12.49 0a1.055 1.055 0 1 0 1.371 1.605z"/>
            </g>
        </g>
    </g>
</svg>
