<?xml version="1.0" encoding="utf-8"?>
<!-- Generator: Adobe Illustrator 22.1.0, SVG Export Plug-In . SVG Version: 6.00 Build 0)  -->
<svg version="1.1" id="圖層_1" xmlns="http://www.w3.org/2000/svg" xmlns:xlink="http://www.w3.org/1999/xlink" x="0px" y="0px"
	 viewBox="0 0 80 80" style="enable-background:new 0 0 80 80;" xml:space="preserve">
<style type="text/css">
	.st0{fill:#FFFFFF;fill-opacity:0.2;}
	.st1{fill:#DEDEDE;}
	.st2{fill:#AAAAAA;}
	.st3{fill:#CACACA;}
	.st4{fill:#E2E2E2;}
	.st5{fill:#FFFFFF;}
</style>
<g>
	<circle class="st0" cx="40" cy="40" r="40"/>
	<path class="st1" d="M31.1,17.3h1v17.8h-1V17.3z M40,17.3h1v17.8h-1V17.3z"/>
	<path class="st2" d="M32.4,15.6h7.1c0.7,0,1.3,0.6,1.3,1.3v1.3h-9.8v-1.3C31.1,16.2,31.7,15.6,32.4,15.6L32.4,15.6z"/>
	<path class="st3" d="M27.1,24.9h17.3c1.5,0,2.7,1.2,2.7,2.7v33.8c0,1.5-1.2,2.7-2.7,2.7H27.1c-1.5,0-2.7-1.2-2.7-2.7V27.6
		C24.4,26.1,25.6,24.9,27.1,24.9z"/>
	<path class="st2" d="M35.6,24.9h17.3c1.5,0,2.7,1.2,2.7,2.7v33.8c0,1.5-1.2,2.7-2.7,2.7H35.6c-1.5,0-2.7-1.2-2.7-2.7V27.6
		C32.9,26.1,34.1,24.9,35.6,24.9z"/>
	<g transform="translate(39.556 47.111)">
		<path class="st3" d="M0,0h24.9v17.8c0,0.5-0.4,0.9-0.9,0.9H0.9c-0.5,0-0.9-0.4-0.9-0.9c0,0,0,0,0,0V0z"/>
		<path class="st4" d="M0,0h24.9v0.9H0V0z"/>
		<circle class="st5" cx="8.9" cy="3.6" r="1"/>
		<circle class="st5" cx="16" cy="3.6" r="1"/>
		<path class="st5" d="M8.4,3.6c0,3.2,1.7,5.8,4,5.8c2.3,0,4-2.6,4-5.8h-0.9c0,2.7-1.4,4.9-3.1,4.9c-1.7,0-3.1-2.2-3.1-4.9
			C9.3,3.6,8.4,3.6,8.4,3.6z"/>
	</g>
	<g transform="translate(16.444 39.111)">
		<path class="st3" d="M0,0h20.4v25.8c0,0.5-0.4,0.9-0.9,0.9H0.9c-0.5,0-0.9-0.4-0.9-0.9c0,0,0,0,0,0V0z"/>
		<path class="st4" d="M0,0h20.4c0,0.5-0.4,0.9-0.9,0.9H0.9C0.4,0.9,0,0.5,0,0C0,0,0,0,0,0z"/>
		<circle class="st5" cx="6.7" cy="3.6" r="1"/>
		<circle class="st5" cx="13.8" cy="3.6" r="1"/>
		<path class="st5" d="M6.2,3.6c0,3.2,1.7,5.8,4,5.8s4-2.6,4-5.8h-0.9c0,2.7-1.4,4.9-3.1,4.9c-1.7,0-3.1-2.2-3.1-4.9
			C7.1,3.6,6.2,3.6,6.2,3.6z"/>
	</g>
	<path class="st5" d="M51.2,9.8c-0.3,0-0.6,0.3-0.6,0.6l0,0v1.2h-1.2c-0.3,0-0.6,0.3-0.6,0.6c0,0.3,0.3,0.6,0.6,0.6h1.2v1.2
		c0,0.3,0.3,0.6,0.6,0.6s0.6-0.3,0.6-0.6v-1.2H53c0.3,0,0.6-0.3,0.6-0.6s-0.3-0.6-0.6-0.6l0,0h-1.2v-1.2C51.8,10,51.6,9.8,51.2,9.8
		L51.2,9.8L51.2,9.8z M10.8,35.1c-0.3,0-0.6,0.3-0.6,0.6l0,0v1.2H9c-0.3,0-0.6,0.3-0.6,0.6s0.3,0.6,0.6,0.6h1.2v1.2
		c0,0.3,0.3,0.6,0.6,0.6s0.6-0.3,0.6-0.6v-1.2h1.2c0.3,0,0.6-0.3,0.6-0.6s-0.3-0.6-0.6-0.6h-1.2v-1.2C11.4,35.4,11.1,35.1,10.8,35.1
		L10.8,35.1L10.8,35.1z M65.9,26.2c-0.3,0-0.6,0.3-0.6,0.6V28h-1.2c-0.3,0-0.6,0.3-0.6,0.6s0.3,0.6,0.6,0.6h1.2v1.2
		c0,0.3,0.3,0.6,0.6,0.6s0.6-0.3,0.6-0.6v-1.2h1.2c0.3,0,0.6-0.3,0.6-0.6S68,28,67.7,28l0,0h-1.2v-1.2
		C66.5,26.5,66.2,26.2,65.9,26.2L65.9,26.2z"/>
</g>
</svg>
