<svg xmlns="http://www.w3.org/2000/svg" width="80" height="80" viewBox="0 0 80 80">
    <g fill="none" fill-rule="evenodd">
        <circle cx="40" cy="40" r="40" fill="#FFF" fill-opacity=".2"/>
        <path fill="#D7DEF2" d="M31.111 17.334h1v17.778h-1zM40 17.334h1v17.778h-1z"/>
        <path fill="#6EC4C2" d="M32.444 15.556h7.112c.736 0 1.333.597 1.333 1.333v1.333H31.11V16.89c0-.736.597-1.333 1.333-1.333z"/>
        <path fill="#91E3E1" d="M27.111 24.889h17.333a2.667 2.667 0 0 1 2.667 2.667v33.777A2.667 2.667 0 0 1 44.444 64H27.111a2.667 2.667 0 0 1-2.667-2.667V27.556a2.667 2.667 0 0 1 2.667-2.667z"/>
        <path fill="#6EC4C2" d="M35.556 24.889h17.333a2.667 2.667 0 0 1 2.667 2.667v33.777A2.667 2.667 0 0 1 52.889 64H35.556a2.667 2.667 0 0 1-2.667-2.667V27.556a2.667 2.667 0 0 1 2.667-2.667z"/>
        <g transform="translate(39.556 47.111)">
            <path fill="#91E3E1" d="M0 0h24.889v17.778c0 .49-.398.889-.889.889H.889a.889.889 0 0 1-.889-.89V0z"/>
            <path fill="#C5EFEE" d="M0 0h24.889v.889H0z"/>
            <circle cx="8.889" cy="3.556" r="1" fill="#FFF"/>
            <circle cx="16" cy="3.556" r="1" fill="#FFF"/>
            <path fill="#FFF" fill-rule="nonzero" d="M8.444 3.556c0 3.162 1.744 5.777 4 5.777 2.257 0 4-2.615 4-5.777h-.888c0 2.729-1.44 4.888-3.112 4.888-1.67 0-3.11-2.16-3.11-4.888h-.89z"/>
        </g>
        <g transform="translate(16.444 39.111)">
            <path fill="#91E3E1" d="M0 0h20.444v25.778c0 .49-.398.889-.888.889H.889a.889.889 0 0 1-.889-.89V0z"/>
            <path fill="#C5EFEE" d="M0 0h20.444c0 .49-.398.889-.888.889H.889A.889.889 0 0 1 0 0z"/>
            <circle cx="6.667" cy="3.556" r="1" fill="#FFF"/>
            <circle cx="13.778" cy="3.556" r="1" fill="#FFF"/>
            <path fill="#FFF" fill-rule="nonzero" d="M6.222 3.556c0 3.162 1.744 5.777 4 5.777 2.256 0 4-2.615 4-5.777h-.889c0 2.729-1.44 4.888-3.11 4.888-1.672 0-3.112-2.16-3.112-4.888h-.889z"/>
        </g>
        <path fill="#FFF" fill-rule="nonzero" d="M51.25 9.778a.59.59 0 0 0-.59.59v1.18h-1.18a.59.59 0 1 0 0 1.18h1.18v1.18a.59.59 0 1 0 1.18 0v-1.18h1.181a.59.59 0 1 0 0-1.18h-1.18v-1.18a.59.59 0 0 0-.59-.59zM10.806 35.111a.59.59 0 0 0-.59.59v1.18H9.035a.59.59 0 1 0 0 1.18h1.18v1.181a.59.59 0 1 0 1.18 0v-1.18h1.182a.59.59 0 1 0 0-1.18h-1.181v-1.18a.59.59 0 0 0-.59-.59zM65.917 26.222a.59.59 0 0 0-.59.59v1.18h-1.181a.59.59 0 1 0 0 1.181h1.18v1.18a.59.59 0 1 0 1.181 0v-1.18h1.18a.59.59 0 1 0 0-1.18h-1.18v-1.18a.59.59 0 0 0-.59-.59z"/>
    </g>
</svg>
