<?xml version="1.0" encoding="utf-8"?>
<!-- Generator: Adobe Illustrator 22.1.0, SVG Export Plug-In . SVG Version: 6.00 Build 0)  -->
<svg version="1.1" id="圖層_1" xmlns="http://www.w3.org/2000/svg" xmlns:xlink="http://www.w3.org/1999/xlink" x="0px" y="0px"
	 viewBox="0 0 80 80" style="enable-background:new 0 0 80 80;" xml:space="preserve">
<style type="text/css">
	.st0{fill:#FFFFFF;fill-opacity:0.2;}
	.st1{fill:#FFFFFF;}
	.st2{fill:#CACACA;}
	.st3{fill:#DEDEDE;}
</style>
<g>
	<circle class="st0" cx="40" cy="40" r="40"/>
	<path class="st1" d="M42.4,9.8c-0.3,0-0.6,0.3-0.6,0.6l0,0v1.2h-1.2c-0.3,0-0.6,0.3-0.6,0.6s0.3,0.6,0.6,0.6h1.2v1.2
		c0,0.3,0.3,0.6,0.6,0.6s0.6-0.3,0.6-0.6v-1.2h1.2c0.3,0,0.6-0.3,0.6-0.6s-0.3-0.6-0.6-0.6H43v-1.2C43,10,42.7,9.8,42.4,9.8
		L42.4,9.8L42.4,9.8z M58.8,60.9c-0.3,0-0.6,0.3-0.6,0.6l0,0v1.2H57c-0.3,0-0.6,0.3-0.6,0.6s0.3,0.6,0.6,0.6h1.2V65
		c0,0.3,0.3,0.6,0.6,0.6s0.6-0.3,0.6-0.6v-1.2h1.2c0.3,0,0.6-0.3,0.6-0.6s-0.3-0.6-0.6-0.6l0,0h-1.2v-1.2
		C59.4,61.2,59.1,60.9,58.8,60.9C58.8,60.9,58.8,60.9,58.8,60.9z M14.8,24c-0.3,0-0.6,0.3-0.6,0.6l0,0v1.2H13
		c-0.3,0-0.6,0.3-0.6,0.6S12.7,27,13,27h1.2v1.2c0,0.3,0.3,0.6,0.6,0.6s0.6-0.3,0.6-0.6V27h1.2c0.3,0,0.6-0.3,0.6-0.6
		s-0.3-0.6-0.6-0.6l0,0h-1.2v-1.2C15.4,24.3,15.1,24,14.8,24C14.8,24,14.8,24,14.8,24z"/>
	<g>
		<path class="st2" d="M47.6,34.7c0.5,0,0.9,0.3,0.9,0.8v13.2L46.7,49V35.4C46.7,35,47.1,34.7,47.6,34.7z"/>
		<path class="st2" d="M47.7,35.3c0.5-3.6-0.1-6.4-2-8.3c-1.9-1.9-4.7-2.6-8.3-2c-0.5,3.6,0.1,6.4,2,8.3
			C41.3,35.2,44.1,35.8,47.7,35.3z"/>
		<path class="st2" d="M47.7,35.4c-0.5-3.3,0.1-5.8,1.8-7.5c1.7-1.7,4.2-2.3,7.5-1.8c0.5,3.3-0.1,5.8-1.8,7.5
			C53.5,35.2,51,35.9,47.7,35.4z"/>
	</g>
	<path class="st1" d="M23.6,40.8c4.2-0.1,6.9-0.1,8.1,0c1.2,0.1,2.2,0.6,3.1,1.3h8.6c1.2,0,2.1,1,2.1,2.1c0,1.2-0.9,2.3-2.1,2.4
		l-5.9,0.8l7.8,2.8c0.1,0,0.2,0,0.3,0l10.4-2.4c1.1-0.3,2.2,0.4,2.5,1.5c0.3,1.1-0.2,2.2-1.3,2.6l-9.7,3.7c-1.4,0.5-2.9,0.7-4.3,0.5
		l-19.7-2.5C23.6,53.7,23.6,40.8,23.6,40.8z"/>
	<path class="st3" d="M17.3,39.6h5.3v15.1h-5.3V39.6z"/>
</g>
</svg>
