<svg xmlns="http://www.w3.org/2000/svg" width="80" height="80" viewBox="0 0 80 80">
    <g fill="none" fill-rule="evenodd">
        <circle cx="40" cy="40" r="40" fill="#FFF" fill-opacity=".2"/>
        <path fill="#FFF" fill-rule="nonzero" d="M42.361 9.778a.59.59 0 0 0-.59.59v1.18h-1.18a.59.59 0 1 0 0 1.18h1.18v1.18a.59.59 0 1 0 1.18 0v-1.18h1.181a.59.59 0 1 0 0-1.18h-1.18v-1.18a.59.59 0 0 0-.59-.59zM58.806 60.889a.59.59 0 0 0-.59.59v1.18h-1.181a.59.59 0 1 0 0 1.18h1.18v1.181a.59.59 0 1 0 1.18 0v-1.18h1.182a.59.59 0 1 0 0-1.18h-1.181v-1.18a.59.59 0 0 0-.59-.591zM14.806 24a.59.59 0 0 0-.59.59v1.18h-1.181a.59.59 0 1 0 0 1.18h1.18v1.181a.59.59 0 1 0 1.18 0v-1.18h1.182a.59.59 0 1 0 0-1.18h-1.181v-1.18a.59.59 0 0 0-.59-.591z"/>
        <g fill="#91E3E1">
            <path d="M47.556 34.667c.49 0 .888.338.888.755v13.156l-1.777.444v-13.6c0-.417.398-.755.889-.755z"/>
            <path d="M47.736 35.291c.547-3.642-.134-6.419-2.043-8.328-1.91-1.909-4.685-2.59-8.328-2.043-.547 3.643.133 6.42 2.043 8.329 1.909 1.909 4.685 2.59 8.328 2.042z"/>
            <path d="M47.717 35.362c-.492-3.278.12-5.777 1.839-7.495 1.718-1.718 4.217-2.331 7.495-1.839.493 3.279-.12 5.777-1.838 7.496-1.719 1.718-4.217 2.33-7.496 1.838z"/>
        </g>
        <path fill="#FFF" d="M23.556 40.783c4.208-.14 6.921-.14 8.139 0 1.218.14 2.244.563 3.079 1.269h8.598c1.175 0 2.128.952 2.128 2.127 0 1.22-.9 2.252-2.108 2.418l-5.866.808 7.85 2.845c.081.029.168.034.252.015l10.433-2.41a2.126 2.126 0 0 1 2.516 1.466 2.166 2.166 0 0 1-1.295 2.636l-9.69 3.747a8.889 8.889 0 0 1-4.319.529l-19.717-2.489V40.783z"/>
        <path fill="#D7DEF2" d="M17.333 39.556h5.333v15.11h-5.333z"/>
    </g>
</svg>
