<?xml version="1.0" encoding="utf-8"?>
<!-- Generator: Adobe Illustrator 22.1.0, SVG Export Plug-In . SVG Version: 6.00 Build 0)  -->
<svg version="1.1" id="圖層_1" xmlns="http://www.w3.org/2000/svg" xmlns:xlink="http://www.w3.org/1999/xlink" x="0px" y="0px"
	 viewBox="0 0 80 80" style="enable-background:new 0 0 80 80;" xml:space="preserve">
<style type="text/css">
	.st0{opacity:0.2;fill:#FFFFFF;enable-background:new    ;}
	.st1{fill:#FFFFFF;}
	.st2{fill:#DEDEDE;}
	.st3{fill:#A5A5A5;}
	.st4{fill:#CACACA;}
	.st5{fill:#AAAAAA;}
</style>
<g>
	<circle class="st0" cx="40" cy="40" r="40"/>
	<path class="st1" d="M20.4,33.3h39.1v31.6H20.4V33.3z"/>
	<path class="st2" d="M50.7,33.3h8.9v31.6h-8.9V33.3z"/>
	<path class="st3" d="M37.3,38.7h5.3v7.1h-5.3V38.7z M37.3,49.3h5.3v7.1h-5.3V49.3z M28.4,38.7h5.3v7.1h-5.3V38.7z M28.4,49.3h5.3
		v7.1h-5.3V49.3z"/>
	<path class="st4" d="M24.9,17.3h30.2l4.4,16H20.4L24.9,17.3z"/>
	<path class="st5" d="M55.1,17.3l4.4,16h-8.9L55.1,17.3z"/>
	<path class="st1" d="M14.5,51.1c-0.3,0-0.6,0.3-0.6,0.6l0,0v1.2h-1.2c-0.3,0-0.6,0.3-0.6,0.6s0.3,0.6,0.6,0.6h1.2v1.2
		c0,0.3,0.3,0.6,0.6,0.6s0.6-0.3,0.6-0.6l0,0v-1.2h1.2c0.3,0,0.6-0.3,0.6-0.6s-0.3-0.6-0.6-0.6h-1.2v-1.2
		C15.1,51.4,14.9,51.1,14.5,51.1L14.5,51.1L14.5,51.1z M47.7,9.8c-0.3,0-0.6,0.3-0.6,0.6l0,0v1.2h-1.2c-0.3,0-0.6,0.3-0.6,0.6
		s0.3,0.6,0.6,0.6h1.2v1.2c0,0.3,0.3,0.6,0.6,0.6s0.6-0.3,0.6-0.6v-1.2h1.2c0.3,0,0.6-0.3,0.6-0.6s-0.3-0.6-0.6-0.6h-1.2v-1.2
		C48.3,10,48,9.8,47.7,9.8L47.7,9.8z M64.1,27.6c-0.3,0-0.6,0.3-0.6,0.6l0,0v1.2h-1.2c-0.3,0-0.6,0.3-0.6,0.6s0.3,0.6,0.6,0.6h1.2
		v1.2c0,0.3,0.3,0.6,0.6,0.6s0.6-0.3,0.6-0.6v-1.2h1.2c0.3,0,0.6-0.3,0.6-0.6s-0.3-0.6-0.6-0.6h-1.2v-1.2
		C64.7,27.8,64.5,27.6,64.1,27.6C64.1,27.6,64.1,27.6,64.1,27.6z"/>
</g>
</svg>
