<?xml version="1.0" encoding="utf-8"?>
<!-- Generator: Adobe Illustrator 22.1.0, SVG Export Plug-In . SVG Version: 6.00 Build 0)  -->
<svg version="1.1" id="圖層_1" xmlns="http://www.w3.org/2000/svg" xmlns:xlink="http://www.w3.org/1999/xlink" x="0px" y="0px"
	 viewBox="0 0 80 80" style="enable-background:new 0 0 80 80;" xml:space="preserve">
<style type="text/css">
	.st0{opacity:0.2;fill:#FFFFFF;enable-background:new    ;}
	.st1{fill:#AAAAAA;}
	.st2{fill:#CACACA;}
	.st3{fill:#FFFFFF;}
</style>
<g>
	<circle class="st0" cx="40" cy="40" r="40"/>
	<path class="st1" d="M28,28.9h22.2v13.8H28V28.9z"/>
	<path class="st2" d="M39.6,16.4l21.8,10.7L39.6,37.8L17.8,27.1L39.6,16.4z"/>
	<path class="st3" d="M47.7,10.2c-0.3,0-0.6,0.3-0.6,0.6l0,0V12h-1.2c-0.3,0-0.6,0.3-0.6,0.6s0.3,0.6,0.6,0.6h1.2v1.2
		c0,0.3,0.3,0.6,0.6,0.6s0.6-0.3,0.6-0.6v-1.2h1.2c0.3,0,0.6-0.3,0.6-0.6S49.8,12,49.5,12h-1.2v-1.2C48.3,10.5,48,10.2,47.7,10.2
		L47.7,10.2L47.7,10.2z M11.7,39.6c-0.3,0-0.6,0.3-0.6,0.6l0,0v1.2H9.9c-0.3,0-0.6,0.3-0.6,0.6s0.3,0.6,0.6,0.6h1.2v1.2
		c0,0.3,0.3,0.6,0.6,0.6s0.6-0.3,0.6-0.6v-1.2h1.2c0.3,0,0.6-0.3,0.6-0.6s-0.3-0.6-0.6-0.6l0,0h-1.2v-1.2
		C12.3,39.8,12,39.6,11.7,39.6L11.7,39.6L11.7,39.6z M56.1,61.8c-0.3,0-0.6,0.3-0.6,0.6l0,0v1.2h-1.2c-0.3,0-0.6,0.3-0.6,0.6
		c0,0.3,0.3,0.6,0.6,0.6c0,0,0,0,0,0h1.2v1.2c0,0.3,0.3,0.6,0.6,0.6s0.6-0.3,0.6-0.6v-1.2h1.2c0.3,0,0.6-0.3,0.6-0.6
		c0-0.3-0.3-0.6-0.6-0.6h-1.2v-1.2C56.7,62,56.5,61.8,56.1,61.8C56.1,61.8,56.1,61.8,56.1,61.8z"/>
	<path class="st2" d="M60.7,36l2.1,2.5l-2.1,2.5l-2.1-2.5L60.7,36z"/>
	<path class="st2" d="M60,27.1h1.3v10.7H60V27.1z"/>
	<g>
		<path class="st3" d="M30,62.9l-0.2-3.2l-3.2-0.2l0.2,3.2L30,62.9z"/>
		<path class="st3" d="M26.7,60.5l0.9-0.9l-7.5-7.5L19.2,53L26.7,60.5z"/>
	</g>
	<path class="st2" d="M17.8,47.1h43.6v6.2H17.8V47.1z"/>
	<path class="st3" d="M24,47.1h2.7v6.2H24V47.1z"/>
</g>
</svg>
