<svg xmlns="http://www.w3.org/2000/svg" width="80" height="80" viewBox="0 0 80 80">
    <g fill="none" fill-rule="evenodd">
        <circle cx="40" cy="40" r="40" fill="#FFF" opacity=".2"/>
        <path fill="#6EC4C2" d="M28 28.89h22.222v13.777H28z"/>
        <path fill="#91E3E1" d="M39.556 16.444l21.777 10.667-21.777 10.667L17.778 27.11z"/>
        <path fill="#FFF" fill-rule="nonzero" d="M47.695 10.222a.59.59 0 0 0-.59.59v1.18h-1.182a.59.59 0 1 0 0 1.181h1.181v1.18a.59.59 0 1 0 1.18 0v-1.18h1.182a.59.59 0 1 0 0-1.18h-1.181v-1.18a.59.59 0 0 0-.59-.59zM11.695 39.556a.59.59 0 0 0-.59.59v1.18H9.922a.59.59 0 1 0 0 1.18h1.181v1.18a.59.59 0 1 0 1.18 0v-1.18h1.182a.59.59 0 1 0 0-1.18h-1.181v-1.18a.59.59 0 0 0-.59-.59zM56.139 61.778a.59.59 0 0 0-.59.59v1.18h-1.181a.59.59 0 1 0 0 1.18h1.18v1.18a.59.59 0 1 0 1.181 0v-1.18h1.181a.59.59 0 1 0 0-1.18h-1.18v-1.18a.59.59 0 0 0-.591-.59z"/>
        <path fill="#91E3E1" d="M60.667 36l2.103 2.457-2.103 2.457-2.103-2.457z"/>
        <path fill="#91E3E1" d="M60 27.111h1.333v10.667H60z"/>
        <g fill="#FFF">
            <path d="M30.007 62.896l-.25-3.224-3.224-.25.25 3.224z"/>
            <path d="M26.707 60.54l.943-.943-7.543-7.543-.942.943z"/>
        </g>
        <path fill="#91E3E1" d="M17.777 47.111h43.556v6.222H17.777z"/>
        <path fill="#FFF" d="M24 47.111h2.667v6.222H24z"/>
    </g>
</svg>
