<?xml version="1.0" encoding="utf-8"?>
<!-- Generator: Adobe Illustrator 22.1.0, SVG Export Plug-In . SVG Version: 6.00 Build 0)  -->
<svg version="1.1" id="圖層_1" xmlns="http://www.w3.org/2000/svg" xmlns:xlink="http://www.w3.org/1999/xlink" x="0px" y="0px"
	 viewBox="0 0 80 80" style="enable-background:new 0 0 80 80;" xml:space="preserve">
<style type="text/css">
	.st0{fill:#FFFFFF;}
	.st1{filter:url(#Adobe_OpacityMaskFilter);}
	.st2{mask:url(#mask-2_1_);}
	.st3{opacity:0.3046;fill:#DEDEDE;enable-background:new    ;}
	.st4{fill:#DEDEDE;}
	.st5{fill:#AAAAAA;}
	.st6{fill:#CACACA;}
	.st7{filter:url(#Adobe_OpacityMaskFilter_1_);}
	.st8{mask:url(#mask-2_2_);fill:#DEDEDE;}
	.st9{filter:url(#Adobe_OpacityMaskFilter_2_);}
	.st10{mask:url(#mask-2_3_);fill:#FFFFFF;}
	.st11{filter:url(#Adobe_OpacityMaskFilter_3_);}
	.st12{mask:url(#mask-2_4_);fill:#DEDEDE;}
	.st13{filter:url(#Adobe_OpacityMaskFilter_4_);}
	.st14{mask:url(#mask-2_5_);fill:#FFFFFF;}
	.st15{filter:url(#Adobe_OpacityMaskFilter_5_);}
	.st16{mask:url(#mask-2_6_);fill:#FFFFFF;}
	.st17{filter:url(#Adobe_OpacityMaskFilter_6_);}
	.st18{mask:url(#mask-2_7_);}
</style>
<title>icon_5</title>
<desc>Created with Sketch.</desc>
<g id="_x32_.Diagnose_x5F_line-chat_x5F_1027">
	<g id="_x32_.1_x5F_education_x5F_2" transform="translate(-317.000000, -446.000000)">
		<g id="Group_1_" transform="translate(317.000000, 446.000000)">
			<g id="component_x2F_vectorC_x2F_03">
				<g id="Group">
					<g id="Group-2">
						<g id="Mask">
							<circle id="path-1_1_" class="st0" cx="40" cy="40" r="40"/>
						</g>
						<defs>
							<filter id="Adobe_OpacityMaskFilter" filterUnits="userSpaceOnUse" x="-7.5" y="10.3" width="94.1" height="73.7">
								<feColorMatrix  type="matrix" values="1 0 0 0 0  0 1 0 0 0  0 0 1 0 0  0 0 0 1 0"/>
							</filter>
						</defs>
						<mask maskUnits="userSpaceOnUse" x="-7.5" y="10.3" width="94.1" height="73.7" id="mask-2_1_">
							<g class="st1">
								<circle id="path-1_2_" class="st0" cx="40" cy="40" r="40"/>
							</g>
						</mask>
						<g id="Oval-3-_x2B_-Oval-3-Copy-Mask" class="st2">
							<g transform="translate(-8.000000, 5.000000)">
								<path id="Combined-Shape" class="st3" d="M50,15.3c0.2-0.3,0.3-0.6,0.3-1l0,0c0-1.1-0.9-2-2-2l0,0H25.4l0,0
									c-1.1,0-2,0.9-2,2s0.9,2,2,2l0,0H28C28,16.5,28,16.6,28,16.8c0,0.8,0.7,1.5,1.5,1.5h23.9c0.8,0,1.5-0.7,1.5-1.5l0,0
									c0-0.8-0.7-1.5-1.5-1.5l0,0H50z"/>
								<ellipse id="Oval-4" class="st4" cx="55.5" cy="42.3" rx="12.2" ry="12.4"/>
								<path id="Rectangle-7" class="st5" d="M10.6,30.7c18-10.9,37.4,8,43.5,17.8C63,37.7,72.6,30.1,94.6,35.9v43H0.5V38.5
									L10.6,30.7z"/>
								<path id="Shape" class="st0" d="M71.3,22.5c0.3,0,0.6,0.3,0.6,0.6v1.2H73c0.3,0,0.6,0.3,0.6,0.6c0,0.3-0.3,0.6-0.6,0.6h-1.2
									v1.2c0,0.3-0.3,0.6-0.6,0.6s-0.6-0.3-0.6-0.6v-1.2h-1.2c-0.3,0-0.6-0.3-0.6-0.6c0-0.3,0.3-0.6,0.6-0.6h1.2v-1.2
									C70.7,22.8,71,22.5,71.3,22.5z"/>
								<path id="Shape-Copy-5" class="st0" d="M49.9,5.3c0.3,0,0.6,0.3,0.6,0.6v1.2h1.2c0.3,0,0.6,0.3,0.6,0.6
									c0,0.3-0.3,0.6-0.6,0.6h-1.2v1.2c0,0.3-0.3,0.6-0.6,0.6s-0.6-0.3-0.6-0.6V8.2h-1.2c-0.3,0-0.6-0.3-0.6-0.6
									c0-0.3,0.3-0.6,0.6-0.6h1.2V5.9C49.3,5.6,49.6,5.3,49.9,5.3z"/>
								<path id="Shape-Copy-6" class="st0" d="M27.2,19.4c0.3,0,0.6,0.3,0.6,0.6v1.2H29c0.3,0,0.6,0.3,0.6,0.6
									c0,0.3-0.3,0.6-0.6,0.6h-1.2v1.2c0,0.3-0.3,0.6-0.6,0.6s-0.6-0.3-0.6-0.6v-1.2h-1.2c-0.3,0-0.6-0.3-0.6-0.6
									c0-0.3,0.3-0.6,0.6-0.6h1.2V20C26.6,19.7,26.9,19.4,27.2,19.4z"/>
								<path id="Path-11" class="st6" d="M43,64.3c-0.4,0.1-0.4,0.8,0.1,0.9l21.2,3.7c0.2,0,1.4-0.8,1.4-1c0-0.2-0.1-0.5-0.4-0.5
									l-20.1-2.8l4-1.2c0.5-0.1,0.4-0.8-0.1-0.9l-11.2-1.2c-0.2,0-0.5,0.1-0.5,0.4c0,0.2,0.1,0.5,0.4,0.5l9.1,1L43,64.3z"/>
							</g>
						</g>
						<defs>
							<filter id="Adobe_OpacityMaskFilter_1_" filterUnits="userSpaceOnUse" x="25" y="56" width="9" height="10">
								<feColorMatrix  type="matrix" values="1 0 0 0 0  0 1 0 0 0  0 0 1 0 0  0 0 0 1 0"/>
							</filter>
						</defs>
						<mask maskUnits="userSpaceOnUse" x="25" y="56" width="9" height="10" id="mask-2_2_">
							<g class="st7">
								<circle id="path-1_3_" class="st0" cx="40" cy="40" r="40"/>
							</g>
						</mask>
						<polygon id="Rectangle-30" class="st8" points="26.7,56 32.7,56 34,60.8 34,66 25,66 25,60.8 						"/>
						<defs>
							<filter id="Adobe_OpacityMaskFilter_2_" filterUnits="userSpaceOnUse" x="28" y="61" width="1" height="2">
								<feColorMatrix  type="matrix" values="1 0 0 0 0  0 1 0 0 0  0 0 1 0 0  0 0 0 1 0"/>
							</filter>
						</defs>
						<mask maskUnits="userSpaceOnUse" x="28" y="61" width="1" height="2" id="mask-2_3_">
							<g class="st9">
								<circle id="path-1_4_" class="st0" cx="40" cy="40" r="40"/>
							</g>
						</mask>
						<rect id="Rectangle-8" x="28" y="61" class="st10" width="1" height="2"/>
						<defs>
							<filter id="Adobe_OpacityMaskFilter_3_" filterUnits="userSpaceOnUse" x="28" y="54" width="1" height="3">
								<feColorMatrix  type="matrix" values="1 0 0 0 0  0 1 0 0 0  0 0 1 0 0  0 0 0 1 0"/>
							</filter>
						</defs>
						<mask maskUnits="userSpaceOnUse" x="28" y="54" width="1" height="3" id="mask-2_4_">
							<g class="st11">
								<circle id="path-1_5_" class="st0" cx="40" cy="40" r="40"/>
							</g>
						</mask>
						<rect id="Rectangle-8-Copy-2" x="28" y="54" class="st12" width="1" height="3"/>
						<defs>
							<filter id="Adobe_OpacityMaskFilter_4_" filterUnits="userSpaceOnUse" x="31" y="61" width="1" height="2">
								<feColorMatrix  type="matrix" values="1 0 0 0 0  0 1 0 0 0  0 0 1 0 0  0 0 0 1 0"/>
							</filter>
						</defs>
						<mask maskUnits="userSpaceOnUse" x="31" y="61" width="1" height="2" id="mask-2_5_">
							<g class="st13">
								<circle id="path-1_6_" class="st0" cx="40" cy="40" r="40"/>
							</g>
						</mask>
						<rect id="Rectangle-8-Copy" x="31" y="61" class="st14" width="1" height="2"/>
						<defs>
							<filter id="Adobe_OpacityMaskFilter_5_" filterUnits="userSpaceOnUse" x="25" y="48" width="5" height="5">
								<feColorMatrix  type="matrix" values="1 0 0 0 0  0 1 0 0 0  0 0 1 0 0  0 0 0 1 0"/>
							</filter>
						</defs>
						<mask maskUnits="userSpaceOnUse" x="25" y="48" width="5" height="5" id="mask-2_6_">
							<g class="st15">
								<circle id="path-1_7_" class="st0" cx="40" cy="40" r="40"/>
							</g>
						</mask>
						<path id="Combined-Shape_1_" class="st16" d="M27.1,51.7c-0.1,0-0.1,0-0.2,0c-1,0-1.9-0.8-1.9-1.9s0.8-1.9,1.9-1.9
							c0.7,0,1.2,0.3,1.6,0.8c0,0,0.1,0,0.1,0c0.8,0,1.5,0.7,1.5,1.5c0,0.4-0.2,0.8-0.5,1.1c0,0.1,0.1,0.2,0.1,0.4
							c0,0.7-0.6,1.2-1.2,1.2C27.6,53,27.1,52.4,27.1,51.7C27.1,51.7,27.1,51.7,27.1,51.7z"/>
						<defs>
							<filter id="Adobe_OpacityMaskFilter_6_" filterUnits="userSpaceOnUse">
								<feColorMatrix  type="matrix" values="1 0 0 0 0  0 1 0 0 0  0 0 1 0 0  0 0 0 1 0"/>
							</filter>
						</defs>
						<mask maskUnits="userSpaceOnUse" id="mask-2_7_">
							<g class="st17">
								<circle id="path-1_8_" class="st0" cx="40" cy="40" r="40"/>
							</g>
						</mask>
						<g class="st18">
							<g transform="translate(25.000000, 48.000000)">
							</g>
						</g>
					</g>
				</g>
			</g>
		</g>
	</g>
</g>
</svg>
