<?xml version="1.0" encoding="UTF-8"?>
<svg width="80px" height="80px" viewBox="0 0 80 80" version="1.1" xmlns="http://www.w3.org/2000/svg" xmlns:xlink="http://www.w3.org/1999/xlink">
    <!-- Generator: Sketch 47.1 (45422) - http://www.bohemiancoding.com/sketch -->
    <title>icon_5</title>
    <desc>Created with Sketch.</desc>
    <defs>
        <circle id="path-1" cx="40" cy="40" r="40"></circle>
    </defs>
    <g id="2.Diagnose_line-chat_1027" stroke="none" stroke-width="1" fill="none" fill-rule="evenodd">
        <g id="2.1_education_2" transform="translate(-317.000000, -446.000000)">
            <g id="Group" transform="translate(317.000000, 446.000000)">
                <g id="component/vectorC/03">
                    <g id="Group">
                        <g id="Group-2">
                            <mask id="mask-2" fill="white">
                                <use xlink:href="#path-1"></use>
                            </mask>
                            <use id="Mask" fill="#FFFFFF" opacity="0.2" xlink:href="#path-1"></use>
                            <g id="Oval-3-+-Oval-3-Copy-Mask" mask="url(#mask-2)">
                                <g transform="translate(-8.000000, 5.000000)">
                                    <path d="M49.9597917,15.3296956 C50.1286975,15.0377079 50.2253682,14.698706 50.2253682,14.3371254 L50.2253682,14.3371254 C50.2253682,13.2407626 49.3365905,12.351985 48.2402277,12.351985 L48.2402277,12.351985 L25.3682872,12.351985 L25.3682872,12.351985 C24.2719244,12.351985 23.3831467,13.2407626 23.3831467,14.3371254 C23.3831467,15.4334882 24.2719244,16.3222658 25.3682872,16.3222658 L25.3682872,16.3222658 L28.0468326,16.3222658 C27.9919675,16.4774934 27.9621139,16.6445358 27.9621139,16.818551 C27.9621139,17.6408231 28.6286971,18.3074063 29.4509692,18.3074063 L53.31548,18.3074063 C54.1377521,18.3074063 54.8043353,17.6408231 54.8043353,16.818551 L54.8043353,16.818551 C54.8043353,15.9962789 54.1377521,15.3296956 53.31548,15.3296956 L53.31548,15.3296956 L49.9597917,15.3296956 Z" id="Combined-Shape" fill="#D7DEF2" fill-rule="evenodd" opacity="0.304574275"></path>
                                    <ellipse id="Oval-4" fill="#D7DEF2" fill-rule="evenodd" cx="55.4589434" cy="42.3496627" rx="12.2193511" ry="12.351985"></ellipse>
                                    <path d="M10.6487735,30.6513059 C28.6842456,19.7380685 48.0775028,38.6273954 54.1497272,48.4867582 C62.9616341,37.7258786 72.6077924,30.0948864 94.5756376,35.9449798 L94.5756376,78.9644753 L0.471863336,78.9644753 L0.471863336,38.4961741 L10.6487735,30.6513059 Z" id="Rectangle-7" fill="#6EC4C2" fill-rule="evenodd"></path>
                                    <path d="M71.3060468,22.4982583 C70.9855893,22.4982583 70.7265577,22.7601016 70.7265577,23.0840375 L70.7265577,24.2555958 L69.5669999,24.2555958 C69.2465424,24.2555958 68.9875108,24.517439 68.9875108,24.8413749 C68.9875108,25.1653108 69.2465424,25.4271541 69.5669999,25.4271541 L70.7265577,25.4271541 L70.7265577,26.5987124 C70.7265577,26.9226482 70.9855893,27.1844915 71.3060468,27.1844915 C71.6265043,27.1844915 71.8855359,26.9226482 71.8855359,26.5987124 L71.8855359,25.4271541 L73.0450937,25.4271541 C73.3655512,25.4271541 73.6245828,25.1653108 73.6245828,24.8413749 C73.6245828,24.517439 73.3655512,24.2555958 73.0450937,24.2555958 L71.8855359,24.2555958 L71.8855359,23.0840375 C71.8855359,22.7601016 71.6265043,22.4982583 71.3060468,22.4982583 Z" id="Shape" fill="#FFFFFF" fill-rule="nonzero" transform="translate(71.306047, 24.841375) scale(-1, 1) translate(-71.306047, -24.841375) "></path>
                                    <path d="M49.9221823,5.29370784 C49.6017248,5.29370784 49.3426932,5.55555112 49.3426932,5.87948699 L49.3426932,7.05104528 L48.1831354,7.05104528 C47.8626779,7.05104528 47.6036463,7.31288856 47.6036463,7.63682443 C47.6036463,7.9607603 47.8626779,8.22260358 48.1831354,8.22260358 L49.3426932,8.22260358 L49.3426932,9.39416187 C49.3426932,9.71809774 49.6017248,9.97994101 49.9221823,9.97994101 C50.2426398,9.97994101 50.5016714,9.71809774 50.5016714,9.39416187 L50.5016714,8.22260358 L51.6612292,8.22260358 C51.9816867,8.22260358 52.2407183,7.9607603 52.2407183,7.63682443 C52.2407183,7.31288856 51.9816867,7.05104528 51.6612292,7.05104528 L50.5016714,7.05104528 L50.5016714,5.87948699 C50.5016714,5.55555112 50.2426398,5.29370784 49.9221823,5.29370784 Z" id="Shape-Copy-5" fill="#FFFFFF" fill-rule="nonzero" transform="translate(49.922182, 7.636824) scale(-1, 1) translate(-49.922182, -7.636824) "></path>
                                    <path d="M27.2291016,19.4102621 C26.9086441,19.4102621 26.6496125,19.6721054 26.6496125,19.9960412 L26.6496125,21.1675995 L25.4900547,21.1675995 C25.1695972,21.1675995 24.9105656,21.4294428 24.9105656,21.7533787 C24.9105656,22.0773145 25.1695972,22.3391578 25.4900547,22.3391578 L26.6496125,22.3391578 L26.6496125,23.5107161 C26.6496125,23.834652 26.9086441,24.0964953 27.2291016,24.0964953 C27.5495591,24.0964953 27.8085908,23.834652 27.8085908,23.5107161 L27.8085908,22.3391578 L28.9681485,22.3391578 C29.288606,22.3391578 29.5476377,22.0773145 29.5476377,21.7533787 C29.5476377,21.4294428 29.288606,21.1675995 28.9681485,21.1675995 L27.8085908,21.1675995 L27.8085908,19.9960412 C27.8085908,19.6721054 27.5495591,19.4102621 27.2291016,19.4102621 Z" id="Shape-Copy-6" fill="#FFFFFF" fill-rule="nonzero" transform="translate(27.229102, 21.753379) scale(-1, 1) translate(-27.229102, -21.753379) "></path>
                                    <path d="M43.0031305,64.3308725 C42.5548758,64.4686304 42.6071259,65.1263867 43.0713829,65.1900755 L64.2484952,68.8654583 C64.4873259,68.8982221 65.6137326,68.0832143 65.6461446,67.8417912 C65.6785566,67.6003681 65.5112211,67.3780956 65.2723904,67.3453318 L45.1688892,64.587448 L49.13042,63.3699879 C49.5850445,63.2302724 49.5226454,62.5607425 49.0502065,62.5093137 L37.8015659,61.2848071 C37.5619314,61.2587209 37.3467493,61.4339447 37.3209432,61.6761803 C37.2951371,61.9184159 37.4684794,62.1359337 37.7081139,62.1620199 L46.8294827,63.1549556 L43.0031305,64.3308725 Z" id="Path-11" fill="#91E3E1" fill-rule="nonzero"></path>
                                </g>
                            </g>
                            <polygon id="Rectangle-30" fill="#D7DEF2" mask="url(#mask-2)" points="26.7142857 56 32.7142857 56 34 60.7694609 34 66 25 66 25 60.7694609"></polygon>
                            <rect id="Rectangle-8" fill="#FFFFFF" mask="url(#mask-2)" x="28" y="61" width="1" height="2"></rect>
                            <rect id="Rectangle-8-Copy-2" fill="#D7DEF2" mask="url(#mask-2)" x="28" y="54" width="1" height="3"></rect>
                            <rect id="Rectangle-8-Copy" fill="#FFFFFF" mask="url(#mask-2)" x="31" y="61" width="1" height="2"></rect>
                            <path d="M27.0833847,51.7385508 C27.0149652,51.7461161 26.9454362,51.75 26.875,51.75 C25.8394661,51.75 25,50.9105339 25,49.875 C25,48.8394661 25.8394661,48 26.875,48 C27.5266881,48 28.1007234,48.3324712 28.436742,48.8370499 C28.4713962,48.8345862 28.5063851,48.8333333 28.5416667,48.8333333 C29.3470819,48.8333333 30,49.4862514 30,50.2916667 C30,50.7185349 29.8165969,51.1025671 29.5242908,51.369263 C29.5626356,51.4893073 29.5833333,51.6172365 29.5833333,51.75 C29.5833333,52.4403559 29.0236893,53 28.3333333,53 C27.6429774,53 27.0833333,52.4403559 27.0833333,51.75 C27.0833333,51.7461796 27.0833505,51.7423632 27.0833847,51.7385508 Z" id="Combined-Shape" fill="#FFFFFF" mask="url(#mask-2)"></path>
                            <g mask="url(#mask-2)">
                                <g transform="translate(25.000000, 48.000000)"></g>
                            </g>
                        </g>
                    </g>
                </g>
            </g>
        </g>
    </g>
</svg>