<?xml version="1.0" encoding="utf-8"?>
<!-- Generator: Adobe Illustrator 22.1.0, SVG Export Plug-In . SVG Version: 6.00 Build 0)  -->
<svg version="1.1" id="圖層_1" xmlns="http://www.w3.org/2000/svg" xmlns:xlink="http://www.w3.org/1999/xlink" x="0px" y="0px"
	 viewBox="0 0 80 80" style="enable-background:new 0 0 80 80;" xml:space="preserve">
<style type="text/css">
	.st0{opacity:0.2;fill:#FFFFFF;enable-background:new    ;}
	.st1{fill:#AAAAAA;}
	.st2{fill:#DEDEDE;}
	.st3{fill:#FFFFFF;}
	.st4{fill:#CACACA;}
</style>
<g>
	<circle class="st0" cx="40" cy="40" r="40"/>
	<path class="st1" d="M53.3,36.4l13.3,24.9H40L53.3,36.4z"/>
	<path class="st2" d="M53.3,36.4L58.9,47l-2.8-1.8L53.3,47l-2.8-1.8l-2.8,1.7L53.3,36.4z"/>
	<path class="st1" d="M26.7,36.4L40,61.3H13.3L26.7,36.4z"/>
	<path class="st2" d="M26.7,36.4L32.3,47l-2.8-1.8L26.7,47l-2.8-1.8l-2.8,1.7L26.7,36.4z"/>
	<path class="st3" d="M39.6,19.6h1v9.3h-1V19.6z"/>
	<path class="st3" d="M39.6,19.6h9.8l-2.7,3.3l2.7,3.3h-9.8V19.6z"/>
	<path class="st4" d="M40,28l17.8,33.3H22.2L40,28z"/>
	<path class="st3" d="M40,28l7.5,14l-3.7-2.4L40,42l-3.7-2.4l-3.7,2.3L40,28z"/>
	<path class="st3" d="M28.1,15.1c-0.3,0-0.6,0.3-0.6,0.6l0,0v1.2h-1.2c-0.3,0-0.6,0.3-0.6,0.6s0.3,0.6,0.6,0.6h1.2v1.2
		c0,0.3,0.3,0.6,0.6,0.6s0.6-0.3,0.6-0.6v-1.2h1.2c0.3,0,0.6-0.3,0.6-0.6s-0.3-0.6-0.6-0.6h-1.2v-1.2C28.7,15.4,28.5,15.1,28.1,15.1
		C28.1,15.1,28.1,15.1,28.1,15.1L28.1,15.1z M63.7,37.3c-0.3,0-0.6,0.3-0.6,0.6l0,0v1.2h-1.2c-0.3,0-0.6,0.3-0.6,0.6
		s0.3,0.6,0.6,0.6h1.2v1.2c0,0.3,0.3,0.6,0.6,0.6c0.3,0,0.6-0.3,0.6-0.6c0,0,0,0,0,0v-1.2h1.2c0.3,0,0.6-0.3,0.6-0.6
		s-0.3-0.6-0.6-0.6h-1.2v-1.2C64.3,37.6,64,37.3,63.7,37.3L63.7,37.3L63.7,37.3z M19.2,31.6c-0.3,0-0.6,0.3-0.6,0.6l0,0v1.2h-1.2
		c-0.3,0-0.6,0.3-0.6,0.6s0.3,0.6,0.6,0.6h1.2v1.2c0,0.3,0.3,0.6,0.6,0.6s0.6-0.3,0.6-0.6v-1.2H21c0.3,0,0.6-0.3,0.6-0.6
		s-0.3-0.6-0.6-0.6h-1.2v-1.2C19.8,31.8,19.6,31.6,19.2,31.6L19.2,31.6L19.2,31.6z"/>
</g>
</svg>
