<?xml version="1.0" encoding="utf-8"?>
<!-- Generator: Adobe Illustrator 22.1.0, SVG Export Plug-In . SVG Version: 6.00 Build 0)  -->
<svg version="1.1" id="圖層_1" xmlns="http://www.w3.org/2000/svg" xmlns:xlink="http://www.w3.org/1999/xlink" x="0px" y="0px"
	 viewBox="0 0 80 80" style="enable-background:new 0 0 80 80;" xml:space="preserve">
<style type="text/css">
	.st0{opacity:0.2;fill:#FFFFFF;enable-background:new    ;}
	.st1{fill:#AAAAAA;}
	.st2{fill:#CACACA;}
	.st3{fill:none;stroke:#FFFFFF;stroke-width:3;}
	.st4{fill:#FFFFFF;}
</style>
<g>
	<circle class="st0" cx="40" cy="40" r="40"/>
	<path class="st1" d="M20.4,27.6h39.1v35.6H20.4L20.4,27.6z"/>
	<path class="st2" d="M20.4,41.8h39.1v1.8H20.4L20.4,41.8z M20.4,45.3h39.1v1.8H20.4L20.4,45.3z M20.4,48.9h39.1v1.8H20.4L20.4,48.9
		z"/>
	<g transform="translate(20.444 20.444)">
		<path class="st2" d="M0,0h39.1v19.6H0V0z"/>
		<circle class="st3" cx="19.6" cy="9.8" r="6.7"/>
		<path class="st4" d="M20.4,9L20.4,9l-1.2,0h0c-0.3,0-0.6-0.3-0.6-0.6l0-0.6c0-0.3,0.3-0.6,0.6-0.6l2.4,0c0.3,0,0.6-0.3,0.6-0.6
			c0,0,0,0,0,0c0-0.3-0.3-0.6-0.6-0.6h0l-1.2,0l0-0.6c0-0.3-0.3-0.6-0.6-0.6h0c-0.3,0-0.6,0.3-0.6,0.6c0,0,0,0,0,0l0,0.6h0
			c-1,0-1.8,0.8-1.8,1.8l0,0.6c0,1,0.8,1.7,1.8,1.7l1.2,0h0c0.2,0,0.3,0.1,0.4,0.2c0.1,0.1,0.2,0.3,0.2,0.4l0,0.6
			c0,0.3-0.3,0.6-0.6,0.6l-0.6,0h0h0l0,0l-1.8,0c-0.3,0-0.6,0.3-0.6,0.6c0,0.3,0.3,0.6,0.6,0.6h0l1.2,0l0,0.6c0,0.3,0.3,0.6,0.6,0.6
			h0c0.3,0,0.6-0.3,0.6-0.6c0,0,0,0,0,0l0-0.6h0c1,0,1.8-0.8,1.8-1.8l0-0.6C22.2,9.7,21.4,9,20.4,9L20.4,9z"/>
	</g>
	<path class="st4" d="M54.4,11.1c-0.3,0-0.6,0.3-0.6,0.6c0,0,0,0,0,0v1.2h-1.2c-0.3,0-0.6,0.3-0.6,0.6s0.3,0.6,0.6,0.6h1.2v1.2
		c0,0.3,0.3,0.6,0.6,0.6s0.6-0.3,0.6-0.6l0,0v-1.2h1.2c0.3,0,0.6-0.3,0.6-0.6s-0.3-0.6-0.6-0.6h-1.2v-1.2
		C55.1,11.4,54.8,11.1,54.4,11.1L54.4,11.1L54.4,11.1z M13.6,30.2c-0.3,0-0.6,0.3-0.6,0.6c0,0,0,0,0,0v1.2h-1.2
		c-0.3,0-0.6,0.3-0.6,0.6s0.3,0.6,0.6,0.6h1.2v1.2c0,0.3,0.3,0.6,0.6,0.6s0.6-0.3,0.6-0.6v-1.2h1.2c0.3,0,0.6-0.3,0.6-0.6
		s-0.3-0.6-0.6-0.6l0,0h-1.2v-1.2C14.2,30.5,13.9,30.2,13.6,30.2C13.6,30.2,13.6,30.2,13.6,30.2L13.6,30.2z M64.7,48.4
		c-0.3,0-0.6,0.3-0.6,0.6c0,0,0,0,0,0v1.2h-1.2c-0.3,0-0.6,0.3-0.6,0.6s0.3,0.6,0.6,0.6h1.2v1.2c0,0.3,0.3,0.6,0.6,0.6
		s0.6-0.3,0.6-0.6v-1.2h1.2c0.3,0,0.6-0.3,0.6-0.6s-0.3-0.6-0.6-0.6h-1.2v-1.2C65.3,48.7,65,48.4,64.7,48.4
		C64.7,48.4,64.7,48.4,64.7,48.4z"/>
</g>
</svg>
