<svg xmlns="http://www.w3.org/2000/svg" width="120" height="120" viewBox="0 0 120 120">
    <g fill="none" fill-rule="evenodd">
        <path fill="#C5C5C5" fill-rule="nonzero" d="M75.399 92.127l-3.782 1.302 5.317 15.444 3.783-1.302zM49.199 90.764l-3.682-1.563-6.382 15.035 3.682 1.563zM25.323 30.924l3.309-2.248L49.283 59.07l-3.308 2.248z"/>
        <path fill="#E1E1E1" d="M95.824 42.261L45.94 31.658 33.74 89.043l49.886 10.603z"/>
        <path fill="#C5C5C5" d="M95.824 42.261L85.39 40.044 73.193 97.429l10.434 2.217z"/>
        <path fill="#E82087" d="M58.833 50.246l-3.599 5.71 4.565.97z"/>
        <path fill="#E1E1E1" fill-rule="nonzero" d="M85.757 73.257l-2.373 3.22 13.994 10.316 2.374-3.22z"/>
        <g fill="#4668CB" fill-rule="nonzero">
            <path d="M52.135 52.428l1.802-.868-2.39-4.96-4.55 3.44 1.206 1.596 2.603-1.968zM67.083 53.011l1.329 2.76 1.802-.868-2.39-4.96-4.55 3.441 1.206 1.595z"/>
        </g>
    </g>
</svg>
