<?xml version="1.0" encoding="utf-8"?>
<!-- Generator: Adobe Illustrator 24.3.0, SVG Export Plug-In . SVG Version: 6.00 Build 0)  -->
<svg version="1.1" xmlns="http://www.w3.org/2000/svg" xmlns:xlink="http://www.w3.org/1999/xlink" x="0px" y="0px"
	 viewBox="0 0 190 190" style="enable-background:new 0 0 190 190;" xml:space="preserve">
<style type="text/css">
	.st0{fill-rule:evenodd;clip-rule:evenodd;fill:#9BDEAE;}
	.st1{filter:url(#Adobe_OpacityMaskFilter);}
	.st2{fill-rule:evenodd;clip-rule:evenodd;fill:#FFFFFF;}
	.st3{mask:url(#b_1_);}
	.st4{fill:#C5C5C5;}
	.st5{fill-rule:evenodd;clip-rule:evenodd;fill:#F7F7F7;}
	.st6{fill-rule:evenodd;clip-rule:evenodd;fill:#E1E1E1;}
	.st7{fill-rule:evenodd;clip-rule:evenodd;fill:#E82087;}
	.st8{fill-rule:evenodd;clip-rule:evenodd;fill:#4668CB;}
</style>
<g id="圖層_1">
	<g>
		<g>
			<circle id="a_1_" class="st0" cx="95.4" cy="94.9" r="92.6"/>
		</g>
		<defs>
			<filter id="Adobe_OpacityMaskFilter" filterUnits="userSpaceOnUse" x="31.5" y="57.8" width="121.6" height="160.4">
				<feColorMatrix  type="matrix" values="1 0 0 0 0  0 1 0 0 0  0 0 1 0 0  0 0 0 1 0"/>
			</filter>
		</defs>
		<mask maskUnits="userSpaceOnUse" x="31.5" y="57.8" width="121.6" height="160.4" id="b_1_">
			<g class="st1">
				<circle id="a_2_" class="st2" cx="95.4" cy="94.9" r="92.6"/>
			</g>
		</mask>
		<g class="st3">
			<path class="st4" d="M64.9,175.9v42.3h7v-42.3H64.9z M110.8,175.9v42.3h7v-42.3H110.8z"/>
			<path class="st5" d="M31.5,57.8h121.6v135.7H31.5V57.8z"/>
			<path class="st6" d="M31.5,57.8h30v135.7h-30L31.5,57.8z"/>
			<g transform="translate(90.822 87.73)">
				<path class="st7" d="M25.2,3.6l5.3,15.9H19.9L25.2,3.6z"/>
				<path class="st8" d="M6.7,0.1L6.7,0.1c3.4,0,6.2,2.8,6.2,6.2l0,0c0,3.4-2.8,6.2-6.2,6.2l0,0c-3.4,0-6.2-2.8-6.2-6.2l0,0
					C0.6,2.8,3.3,0.1,6.7,0.1z"/>
				<path class="st8" d="M40.2,0.1L40.2,0.1c3.4,0,6.2,2.8,6.2,6.2l0,0c0,3.4-2.8,6.2-6.2,6.2l0,0c-3.4,0-6.2-2.8-6.2-6.2l0,0
					C34,2.8,36.8,0.1,40.2,0.1z"/>
			</g>
		</g>
	</g>
</g>
<g id="圖層_2">
</g>
</svg>
