<?xml version="1.0" encoding="utf-8"?>
<!-- Generator: Adobe Illustrator 22.1.0, SVG Export Plug-In . SVG Version: 6.00 Build 0)  -->
<svg version="1.1" id="圖層_1" xmlns="http://www.w3.org/2000/svg" xmlns:xlink="http://www.w3.org/1999/xlink" x="0px" y="0px"
	 viewBox="0 0 60 60" style="enable-background:new 0 0 60 60;" xml:space="preserve">
<style type="text/css">
	.st0{fill:#2AD3B8;}
	.st1{fill:#C5C5C5;}
	.st2{fill:#F7F7F7;}
	.st3{fill:#E1E1E1;}
	.st4{fill:#E82087;}
	.st5{fill:#4668CB;}
</style>
<g>
	<path class="st0" d="M0,0h60v60H0V0z"/>
	<path class="st1" d="M20.8,56.2v13.7h2.3V56.2H20.8z M35.7,56.2v13.7H38V56.2H35.7z"/>
	<path class="st2" d="M10,18h39.4v44H10V18z"/>
	<path class="st3" d="M10,18h9.7v44H10V18z"/>
	<g transform="translate(29.408 27.704)">
		<path class="st4" d="M8,1.1l1.7,5.1H6.3L8,1.1z"/>
		<path class="st5" d="M2,0L2,0c1.1,0,2,0.9,2,2l0,0c0,1.1-0.9,2-2,2l0,0C0.9,4,0,3.1,0,2l0,0C0,0.9,0.9,0,2,0z"/>
		<path class="st5" d="M12.8,0L12.8,0c1.1,0,2,0.9,2,2l0,0c0,1.1-0.9,2-2,2l0,0c-1.1,0-2-0.9-2-2l0,0C10.8,0.9,11.7,0,12.8,0z"/>
	</g>
</g>
</svg>
