<svg xmlns="http://www.w3.org/2000/svg" width="120" height="120" viewBox="0 0 120 120">
    <g fill="none" fill-rule="evenodd">
        <path fill="#C5C5C5" fill-rule="nonzero" d="M40.837 85.4h4.8v20.382a2.4 2.4 0 0 1-1.798 2.324l-7.237 1.874-1.204-4.647 5.44-1.408V85.4zM71.695 88.953l4.21-2.306 11.603 21.182-4.21 2.306zM103.66 64.683l2.193 4.27c-8.07 4.143-14.33 4.143-18.149-.638-3.309-4.142-5.284-11.159-6.096-21.12l4.784-.39c.741 9.093 2.485 15.288 5.063 18.515 2.066 2.587 5.925 2.587 12.205-.637z"/>
        <path fill="#E1E1E1" d="M24 20h67.2v76.8H24z"/>
        <path fill="#C5C5C5" d="M24 20h14.4v76.8H24z"/>
        <g fill="#4668CB">
            <path d="M24 27.2h67.2v6H24z"/>
            <path d="M17.082 24.2l7.025 3.052v5.918L15 31.46l3.22-3.005z"/>
        </g>
        <g transform="translate(54 39.2)">
            <path fill="#E82087" d="M13.8 1.2l3 8.4h-6z"/>
            <rect width="7.2" height="7.2" fill="#4668CB" rx="3.6"/>
            <rect width="7.2" height="7.2" x="20.4" fill="#4668CB" rx="3.6"/>
        </g>
        <path fill="#E1E1E1" fill-rule="nonzero" d="M28.44 49.255l4.369 1.987c-4.954 10.887-6.07 17.905-3.95 20.746 2.157 2.89 3.957 3.422 6.195 2.12l2.414 4.149c-4.516 2.627-8.934 1.32-12.456-3.398-3.559-4.767-2.217-13.199 3.428-25.604z"/>
    </g>
</svg>
