<svg xmlns="http://www.w3.org/2000/svg" width="231" height="200" viewBox="0 0 231 200">
    <g fill="none" fill-rule="evenodd">
        <path fill="#C5C5C5" fill-rule="nonzero" d="M118.713 166.66l-5.458-5.138c-6.787 7.225-9.432 14.293-7.333 21.022 2.378 7.622 9.782 9.58 20.436 6.704l-1.95-7.241c-7.27 1.962-10.455 1.12-11.335-1.7-1.158-3.711.522-8.199 5.64-13.646zM80.61 166.32l-5.458-5.14c-6.788 7.225-9.432 14.293-7.333 21.022 2.377 7.622 9.782 9.58 20.436 6.705l-1.95-7.242c-7.27 1.963-10.456 1.12-11.335-1.699-1.158-3.712.521-8.2 5.64-13.647zM92.245 30.034l-2.14 7.188c-12.551-3.743-23.2-3.14-31.55 1.168-7.453 3.843-12.934 10.62-15.816 19.197-2.865 8.525-3.103 17.993-.564 25.8 2.705 8.316 8.283 14.166 16.46 16.591l-2.13 7.191c-10.644-3.157-18.014-10.886-21.453-21.458-3.056-9.395-2.776-20.51.586-30.514C39.12 44.84 45.865 36.498 55.124 31.723c10.166-5.244 22.8-5.96 37.12-1.689z"/>
        <path fill="#E1E1E1" d="M150.416 66.21l-95.29-6.664-7.673 109.732 95.29 6.663z"/>
        <path fill="#C5C5C5" d="M150.416 66.21l-19.93-1.394-7.673 109.732 19.93 1.393z"/>
        <path fill="#E1E1E1" fill-rule="nonzero" d="M97.233 29.612l2.083 7.204c27.026-7.834 46.834 1.475 56.084 23.22 4.023 9.456 3.971 21.39.152 31.048-3.752 9.485-10.29 14.862-17.772 14.34l-.524 7.481c22.513 1.574 35.49-31.235 25.037-55.81-10.74-25.245-34.408-36.368-65.06-27.483z"/>
        <path fill="#E82087" d="M83.886 90.693l-5.188 11.541 8.719.61z"/>
        <path stroke="#4668CB" stroke-linecap="round" stroke-width="4" d="M103.987 94.712c-.727-2.436-2.094-3.717-4.1-3.842-2.007-.126-3.546.952-4.619 3.232M74.716 92.665c-.728-2.436-2.095-3.717-4.101-3.842-2.007-.126-3.546.952-4.619 3.232"/>
        <path fill="#F65C6F" d="M198.16 29.421l-.185-2.114c-.568-6.484-6.284-11.281-12.768-10.714-6.485.567-11.281 6.284-10.714 12.768l2.237 25.576h.013l.002.02 25.576-2.238c6.484-.568 11.28-6.284 10.714-12.768-.568-6.485-6.284-11.281-12.768-10.714l-2.107.184z"/>
    </g>
</svg>
