<svg width="84" height="88" xmlns="http://www.w3.org/2000/svg">
    <g stroke="#FFF" fill="none" fill-rule="evenodd">
        <path stroke-width="3" d="M75.331 75.574v-5.1l.876-1.432M47 55.335V11.106c.471-2.356 2.524-4.047 4.903-4.038 0 0 3.995.145 4.44 3.749v19.628l21.917 6.436c2.212.655 3.734 2.705 3.74 5.035v19.725l-3.533 4.682M42.655 37.798s-6.923.112-7.066 9.766v11.085l8.976 12.13v4.828M12.749 2l-7.29 8.044 7.465 7.69M5.459 10.044h18.272M29.668 10.044h5.395M22.314 37.235l7.29-8.06-7.465-7.691M29.604 29.174H11.332M5.396 29.174H0"/>
        <path stroke-width="2" d="M49.706 80.996h-3.804"/>
        <path stroke-width="3" d="M41.414 75.59h37.339V86H41.414z"/>
        <path stroke-width="2" d="M65.336 32.794V48.4"/>
        <path stroke-width="3" d="M56.391 31.185v13.981"/>
        <path stroke-width="2" d="M73.851 35.738v15.59"/>
    </g>
</svg>
